<svg width="221" height="220" viewBox="0 0 221 220" fill="none" xmlns="http://www.w3.org/2000/svg">
<path opacity="0.23" fill-rule="evenodd" clip-rule="evenodd" d="M158.722 37.2308C157.242 41.3153 158.107 45.9542 162.576 51.9904C165.098 55.3615 166.21 59.6427 165.6 63.8041C163.56 78.1392 167.673 93.201 179.826 94.6955C181.826 94.9514 183.62 96.2326 184.173 98.13C187.055 108.22 192.046 113.835 200.24 117.91C213.698 124.624 224.915 136.776 219.187 150.517C192.334 215.167 74.1663 262.585 13.1624 160.383C-16.3289 95.4805 7.46038 44.8169 47.7845 18.6578C77.6995 -0.769783 119.756 -5.5294 154.077 6.7588C166.695 11.2665 163.284 24.7548 158.722 37.2308ZM30.1896 92.3345C20.9001 124.94 39.1859 158.756 71.0534 167.836C102.894 176.907 136.257 157.806 145.546 125.201C154.836 92.5953 136.55 58.7789 104.709 49.7071C72.8418 40.6278 39.4792 59.7291 30.1896 92.3345Z" fill="white"/>
</svg>
