<svg width="40" height="34" viewBox="0 0 40 34" fill="none" xmlns="http://www.w3.org/2000/svg">
<path fill-rule="evenodd" clip-rule="evenodd" d="M35.8567 0.232604C36.3485 0.0266456 36.8868 -0.0443882 37.4156 0.0268957C37.9443 0.0981795 38.4442 0.309176 38.8632 0.637922C39.2822 0.966669 39.605 1.40115 39.798 1.89614C39.9909 2.39113 40.047 2.92853 39.9604 3.45241L35.4467 30.694C35.0089 33.3218 32.1112 34.8287 29.6891 33.5198C27.6631 32.4247 24.654 30.7376 21.9474 28.9772C20.5941 28.096 16.4485 25.2742 16.958 23.2663C17.3959 21.5495 24.3615 15.098 28.3418 11.2623C29.9041 9.75539 29.1916 8.88608 27.3467 10.2722C22.7653 13.7138 15.4097 18.9475 12.9777 20.4208C10.8323 21.7198 9.7138 21.9416 8.3764 21.7198C5.93646 21.3158 3.67363 20.6901 1.82675 19.9277C-0.66892 18.898 -0.54752 15.4841 1.82476 14.4901L35.8567 0.232604Z" fill="white"/>
</svg>
