<svg width="221" height="220" viewBox="0 0 221 220" fill="none" xmlns="http://www.w3.org/2000/svg">
<path opacity="0.23" fill-rule="evenodd" clip-rule="evenodd" d="M158.874 37.2668C157.392 41.3554 158.259 45.9987 162.732 52.0408C165.256 55.4152 166.369 59.7004 165.759 63.8659C163.716 78.2149 167.834 93.2913 179.998 94.7872C182 95.0434 183.795 96.3258 184.349 98.2251C187.234 108.325 192.23 113.945 200.432 118.024C213.903 124.745 225.131 136.908 219.398 150.663C192.518 215.375 74.2362 262.84 13.1732 160.538C-16.3467 95.573 7.46565 44.8603 47.8288 18.6759C77.7728 -0.770528 119.87 -5.53475 154.224 6.76535C166.855 11.2774 163.44 24.7788 158.874 37.2668ZM30.2169 92.4239C20.9184 125.061 39.2219 158.91 71.1202 167.998C102.992 177.079 136.387 157.959 145.685 125.322C154.984 92.685 136.68 58.8358 104.809 49.7553C72.9104 40.6671 39.5155 59.787 30.2169 92.4239Z" fill="white"/>
</svg>
