<svg width="26" height="24" viewBox="0 0 26 24" fill="none" xmlns="http://www.w3.org/2000/svg">
<path d="M8.728 1.43533C7.98878 0.438369 6.96525 -0.0108775 5.87968 0.000199773C4.84968 0.0100463 3.84682 0.429753 3.00938 0.988542C2.15521 1.56126 1.42688 2.28753 0.865379 3.12646C0.335518 3.92526 -0.0470159 4.86929 0.00467788 5.79117C0.2541 10.2258 2.87368 14.9644 6.55299 18.471C10.2297 21.9739 15.1393 24.4084 20.0968 23.9432C21.0686 23.8521 21.9875 23.3807 22.7383 22.7801C23.5149 22.1536 24.1494 21.383 24.6032 20.5154C25.0426 19.6637 25.3049 18.6815 25.1602 17.7251C25.0103 16.7282 24.4248 15.8371 23.3483 15.2463C23.1253 15.123 22.9047 14.9958 22.6866 14.8647C22.4928 14.7503 22.286 14.6259 22.0353 14.4832C21.5232 14.1825 20.9828 13.9278 20.4211 13.7225C19.8435 13.5219 19.1831 13.3902 18.4955 13.4801C17.7835 13.5736 17.1218 13.8936 16.5493 14.4672C16.1086 14.9103 15.4598 15.0481 14.5474 14.797C13.6195 14.541 12.5753 13.9059 11.6681 13.0468C10.7609 12.1902 10.0746 11.1883 9.78126 10.2836C9.49178 9.3876 9.61972 8.72912 10.072 8.27495C10.6833 7.66201 11.009 6.98014 11.0775 6.25888C11.1447 5.55732 10.9612 4.8976 10.6988 4.32158C10.306 3.46124 9.63911 2.60583 9.117 1.93873C8.98573 1.77195 8.85649 1.60372 8.7293 1.4341" fill="black"/>
</svg>
