<svg width="44" height="28" viewBox="0 0 44 28" fill="none" xmlns="http://www.w3.org/2000/svg">
<path d="M42.2319 27.9977H37.4142C35.5923 27.9977 35.0434 26.417 31.7774 22.9163C28.9231 19.9696 27.7176 19.6033 26.9956 19.6033C25.997 19.6033 25.7247 19.8972 25.7247 21.3694V26.0099C25.7247 27.265 25.3447 28 22.2835 28C19.3136 27.7863 16.4337 26.8199 13.8809 25.1803C11.3281 23.5408 9.17543 21.2751 7.60023 18.5698C3.86137 13.5824 1.25912 7.7303 0 1.47776C0 0.704346 0.274453 0.00329783 1.65094 0.00329783H6.46442C7.70157 0.00329783 8.14703 0.593536 8.6326 1.95719C10.9697 9.32498 14.9577 15.7339 16.5769 15.7339C17.1976 15.7339 17.4679 15.4399 17.4679 13.7823V6.19288C17.2631 2.7306 15.5467 2.43888 15.5467 1.18603C15.5684 0.855504 15.7096 0.547059 15.9402 0.326217C16.1708 0.105374 16.4727 -0.0104672 16.7817 0.00329783H24.3482C25.3827 0.00329783 25.7247 0.55509 25.7247 1.8803V12.1246C25.7247 13.2305 26.168 13.5968 26.4805 13.5968C27.1012 13.5968 27.5783 13.2305 28.7162 12.0138C31.1544 8.82669 33.147 5.27679 34.6317 1.4755C34.783 1.01861 35.0699 0.627438 35.4486 0.361938C35.8272 0.0964379 36.2767 -0.0287495 36.7281 0.00555911H41.5437C42.9877 0.00555911 43.2939 0.778975 42.9877 1.88256C41.2358 6.085 39.0686 10.0743 36.5233 13.7823C36.004 14.6303 35.7971 15.0713 36.5233 16.0663C37.0005 16.8398 38.6894 18.3504 39.8231 19.7864C41.474 21.5504 42.8442 23.5902 43.8808 25.8245C44.2946 27.2628 43.6063 27.9977 42.2319 27.9977Z" fill="black"/>
</svg>
