<svg width="26" height="24" viewBox="0 0 26 24" fill="none" xmlns="http://www.w3.org/2000/svg">
<path d="M8.6964 1.43013C7.95985 0.436781 6.94002 -0.0108381 5.85838 0.000199049C4.83212 0.0100099 3.83289 0.428197 2.99848 0.984962C2.14741 1.55561 1.42172 2.27925 0.862246 3.11514C0.334303 3.91105 -0.0468456 4.85166 0.00466094 5.7702C0.25318 10.1888 2.86328 14.9102 6.52926 18.4041C10.1927 21.8943 15.0845 24.32 20.024 23.8565C20.9923 23.7657 21.9078 23.296 22.656 22.6976C23.4298 22.0734 24.062 21.3056 24.5141 20.4411C24.9519 19.5924 25.2133 18.6138 25.069 17.6609C24.9197 16.6676 24.3364 15.7797 23.2637 15.1911C23.0415 15.0683 22.8217 14.9415 22.6045 14.8109C22.4113 14.6968 22.2053 14.573 21.9555 14.4307C21.4452 14.1311 20.9068 13.8774 20.3472 13.6728C19.7716 13.4729 19.1136 13.3417 18.4286 13.4312C17.7191 13.5244 17.0598 13.8433 16.4893 14.4148C16.0502 14.8563 15.4038 14.9936 14.4947 14.7434C13.5702 14.4884 12.5298 13.8556 11.6258 12.9996C10.7219 12.146 10.0381 11.1478 9.74584 10.2464C9.45741 9.35361 9.58488 8.69751 10.0356 8.24498C10.6446 7.63426 10.9691 6.95486 11.0374 6.23621C11.1043 5.53719 10.9215 4.87987 10.6601 4.30593C10.2686 3.44871 9.6042 2.59639 9.08398 1.93171C8.95319 1.76553 8.82441 1.59792 8.69768 1.4289" fill="black"/>
</svg>
