<svg width="114" height="34" viewBox="0 0 114 34" fill="none" xmlns="http://www.w3.org/2000/svg">
<path d="M42.2319 29.9977H37.4142C35.5923 29.9977 35.0434 28.417 31.7774 24.9163C28.9231 21.9696 27.7176 21.6033 26.9956 21.6033C25.997 21.6033 25.7247 21.8972 25.7247 23.3694V28.0099C25.7247 29.265 25.3447 30 22.2835 30C19.3136 29.7863 16.4337 28.8199 13.8809 27.1803C11.3281 25.5408 9.17543 23.2751 7.60023 20.5698C3.86137 15.5824 1.25912 9.7303 0 3.47776C0 2.70435 0.274453 2.0033 1.65094 2.0033H6.46442C7.70157 2.0033 8.14703 2.59354 8.6326 3.95719C10.9697 11.325 14.9577 17.7339 16.5769 17.7339C17.1976 17.7339 17.4679 17.4399 17.4679 15.7823V8.19288C17.2631 4.7306 15.5467 4.43888 15.5467 3.18603C15.5684 2.8555 15.7096 2.54706 15.9402 2.32622C16.1708 2.10537 16.4727 1.98953 16.7817 2.0033H24.3482C25.3827 2.0033 25.7247 2.55509 25.7247 3.8803V14.1246C25.7247 15.2305 26.168 15.5968 26.4805 15.5968C27.1012 15.5968 27.5783 15.2305 28.7162 14.0138C31.1544 10.8267 33.147 7.27679 34.6317 3.4755C34.783 3.01861 35.0699 2.62744 35.4486 2.36194C35.8272 2.09644 36.2767 1.97125 36.7281 2.00556H41.5437C42.9877 2.00556 43.2939 2.77897 42.9877 3.88256C41.2358 8.085 39.0686 12.0743 36.5233 15.7823C36.004 16.6303 35.7971 17.0713 36.5233 18.0663C37.0005 18.8398 38.6894 20.3504 39.8231 21.7864C41.474 23.5504 42.8442 25.5902 43.8808 27.8245C44.2946 29.2628 43.6063 29.9977 42.2319 29.9977Z" fill="black"/>
<path fill-rule="evenodd" clip-rule="evenodd" d="M109.857 0.232604C110.348 0.0266456 110.887 -0.0443882 111.416 0.0268957C111.944 0.0981795 112.444 0.309176 112.863 0.637922C113.282 0.966669 113.605 1.40115 113.798 1.89614C113.991 2.39113 114.047 2.92853 113.96 3.45241L109.447 30.694C109.009 33.3218 106.111 34.8287 103.689 33.5198C101.663 32.4247 98.654 30.7376 95.9474 28.9772C94.5941 28.096 90.4485 25.2742 90.958 23.2663C91.3959 21.5495 98.3615 15.098 102.342 11.2623C103.904 9.75539 103.192 8.88608 101.347 10.2722C96.7653 13.7138 89.4097 18.9475 86.9777 20.4208C84.8323 21.7198 83.7138 21.9416 82.3764 21.7198C79.9365 21.3158 77.6736 20.6901 75.8268 19.9277C73.3311 18.898 73.4525 15.4841 75.8248 14.4901L109.857 0.232604Z" fill="black"/>
</svg>
