<svg width="37" height="28" viewBox="0 0 37 28" fill="none" xmlns="http://www.w3.org/2000/svg">
<path d="M0.513355 4.48356C0.0282306 4.75684 -0.143498 5.37166 0.129788 5.85678C0.403074 6.34191 1.01789 6.51364 1.50301 6.24035L1.00818 5.36195L0.513355 4.48356ZM1.09602 5.31247L1.59085 6.19087L1.75638 6.09762L1.87662 5.95052L1.09602 5.31247ZM1.37075 4.97636L0.905223 4.08209L0.721348 4.17781L0.590156 4.33831L1.37075 4.97636ZM1.84389 4.73006L2.30942 5.62433L2.47284 5.53926L2.59561 5.40189L1.84389 4.73006ZM2.2014 4.33004L1.56631 3.54703L1.50354 3.59795L1.44968 3.65821L2.2014 4.33004ZM2.61111 3.99773L2.59173 2.98974L2.2452 2.9964L1.97602 3.21472L2.61111 3.99773ZM3.23419 3.98575L3.25357 4.99375L3.86785 4.98194L4.13893 4.43059L3.23419 3.98575ZM3.50357 3.43786L3.13975 2.4976L2.77255 2.63969L2.59883 2.99302L3.50357 3.43786ZM4.00171 3.24511L4.36553 4.18536L4.4568 4.15004L4.53957 4.09784L4.00171 3.24511ZM4.44568 2.96508L4.98354 3.8178L5.04367 3.77988L5.09788 3.73389L4.44568 2.96508ZM4.85482 2.618L4.46015 1.69027L4.31932 1.75018L4.20262 1.84919L4.85482 2.618ZM5.34121 2.41108L5.35445 1.40298L5.14202 1.40019L4.94654 1.48336L5.34121 2.41108ZM5.92736 2.41878L5.91412 3.42687L6.11911 3.42957L6.30887 3.35199L5.92736 2.41878ZM6.40751 2.22249L6.78901 3.1557L6.9716 3.08106L7.1126 2.9431L6.40751 2.22249ZM6.80872 1.82992L6.72178 0.825489L6.36185 0.856645L6.10363 1.1093L6.80872 1.82992ZM7.34871 1.78317L7.43565 2.7876L7.57575 2.77548L7.70718 2.72548L7.34871 1.78317ZM7.83344 1.59877L7.55498 0.629805L7.51441 0.641462L7.47496 0.65647L7.83344 1.59877ZM8.33192 1.45552L8.61038 2.42448L8.81508 2.36566L8.97849 2.22907L8.33192 1.45552ZM8.78643 1.07562L8.66534 0.0747312L8.36894 0.110592L8.13987 0.302064L8.78643 1.07562ZM9.31841 1.01125L9.37028 0.00440466L9.28354 -6.42989e-05L9.19731 0.0103682L9.31841 1.01125ZM9.85578 1.03894L10.0574 0.0511172L9.98323 0.0359844L9.90766 0.0320907L9.85578 1.03894ZM10.3859 1.14712L10.1843 2.13494L10.2514 2.14864L10.3197 2.15313L10.3859 1.14712ZM10.91 1.1816L10.8439 2.18761L10.9195 2.19259L10.995 2.1862L10.91 1.1816ZM11.4719 1.13407L11.8087 0.183826L11.6037 0.111139L11.3869 0.129478L11.4719 1.13407ZM11.9877 1.31693L12.839 0.776826L12.6526 0.482957L12.3246 0.36668L11.9877 1.31693ZM12.318 1.83748L11.4667 2.37758L11.523 2.46633L11.5964 2.54155L12.318 1.83748ZM12.6785 2.20697L11.9569 2.91104L12.0202 2.97598L12.0942 3.02857L12.6785 2.20697ZM13.0908 2.50019L13.7955 1.77925L13.7392 1.72422L13.6751 1.67859L13.0908 2.50019ZM13.4555 2.85674L14.2654 2.25627L14.2176 2.19186L14.1603 2.1358L13.4555 2.85674ZM13.761 3.26872L12.9511 3.86919L13.0325 3.97893L13.1401 4.06306L13.761 3.26872ZM14.1959 3.60866L15.2014 3.53577L15.1691 3.08972L14.8168 2.81432L14.1959 3.60866ZM14.2371 4.17677L13.2315 4.24967L13.2644 4.70224L13.6249 4.97779L14.2371 4.17677ZM14.7019 4.53201L15.6762 4.27298L15.5877 3.94013L15.3141 3.731L14.7019 4.53201ZM14.8384 5.04545L15.8462 5.07342L15.8502 4.92749L15.8127 4.78641L14.8384 5.04545ZM14.8228 5.60558L13.815 5.57761L13.8017 6.05665L14.1648 6.36943L14.8228 5.60558ZM15.2875 6.00589L16.2685 5.77332L16.1931 5.45533L15.9455 5.24204L15.2875 6.00589ZM15.4094 6.5199L14.4284 6.75246L14.4385 6.79515L14.4523 6.8368L15.4094 6.5199ZM15.5762 7.02363L16.5382 7.3253L16.6354 7.01522L16.5332 6.70673L15.5762 7.02363ZM15.3956 7.59933L14.4336 7.29766L14.2665 7.83065L14.6298 8.25498L15.3956 7.59933ZM15.7874 8.05699L16.7734 7.84662L16.72 7.596L16.5533 7.40133L15.7874 8.05699ZM15.8976 8.57345L16.9027 8.65275L16.9142 8.50653L16.8836 8.36308L15.8976 8.57345ZM15.8551 9.11256L16.8265 9.38224L16.8525 9.28866L16.8602 9.19186L15.8551 9.11256ZM15.7022 9.6635L14.7307 9.39383L14.5802 9.93608L14.9627 10.3488L15.7022 9.6635ZM16.1393 10.1352L17.0502 10.5673L17.3428 9.95057L16.8788 9.44988L16.1393 10.1352ZM15.8736 10.6954L14.9627 10.2633L14.8221 10.5597L14.8828 10.8821L15.8736 10.6954ZM15.971 11.2123L16.9741 11.1118L16.9698 11.0684L16.9617 11.0256L15.971 11.2123ZM16.0232 11.7334L15.02 11.8339L15.044 12.073L15.1732 12.2756L16.0232 11.7334ZM16.338 12.2269L17.2267 12.703L17.5055 12.1825L17.1879 11.6847L16.338 12.2269ZM16.0382 12.7866L15.1495 12.3106L14.9283 12.7234L15.1011 13.1586L16.0382 12.7866ZM16.2396 13.294L17.2476 13.2742L17.244 13.0917L17.1767 12.922L16.2396 13.294ZM16.25 13.8195L15.242 13.8393L15.2426 13.8718L15.2454 13.9043L16.25 13.8195ZM16.294 14.3418L15.2894 14.4265L15.3063 14.6262L15.3982 14.8043L16.294 14.3418ZM16.5513 14.8401L17.5002 14.4993L17.4777 14.4367L17.4472 14.3776L16.5513 14.8401ZM16.7315 15.3418L17.7229 15.1584L17.708 15.078L17.6804 15.001L16.7315 15.3418ZM16.8259 15.8517L17.8251 15.9862L17.8465 15.8266L17.8172 15.6683L16.8259 15.8517ZM16.7518 16.4021L15.7526 16.2677L15.7072 16.6054L15.876 16.9015L16.7518 16.4021ZM17.0144 16.8627L18.0225 16.8448L18.0179 16.5871L17.8903 16.3633L17.0144 16.8627ZM17.0248 17.4432L16.0167 17.4611L16.0273 18.054L16.5506 18.3329L17.0248 17.4432ZM17.5217 17.708L17.0476 18.5977L17.0928 18.6218L17.1402 18.6412L17.5217 17.708ZM17.9872 17.8982L17.6057 18.8315L17.8685 18.9389L18.1487 18.8934L17.9872 17.8982ZM18.5292 17.8103L19.2441 17.0993L18.8789 16.7322L18.3678 16.8151L18.5292 17.8103ZM18.9981 18.2817L18.2832 18.9926L18.752 19.464L19.37 19.2187L18.9981 18.2817ZM19.5444 18.0648L19.74 17.0758L19.4486 17.0182L19.1725 17.1277L19.5444 18.0648ZM20.0645 18.1677L19.8689 19.1567L20.158 19.2139L20.4324 19.1064L20.0645 18.1677ZM20.5861 17.9633L20.7826 16.9745L20.4931 16.9169L20.2183 17.0246L20.5861 17.9633ZM21.1107 18.0675L20.9142 19.0564L21.1724 19.1077L21.4227 19.0262L21.1107 18.0675ZM21.6227 17.9009L22.0277 16.9776L21.6759 16.8233L21.3106 16.9422L21.6227 17.9009ZM22.1679 18.1401L21.7629 19.0633L22.2947 19.2966L22.7634 18.9536L22.1679 18.1401ZM22.6576 17.7817L23.0473 16.8518L22.5219 16.6317L22.0622 16.9681L22.6576 17.7817ZM23.2111 18.0136L22.8215 18.9434L23.1936 19.0994L23.5706 18.9555L23.2111 18.0136ZM23.7161 17.8208L24.0157 16.8582L23.6826 16.7545L23.3566 16.8789L23.7161 17.8208ZM24.2641 17.9914L23.9645 18.954L24.4556 19.1069L24.8677 18.7989L24.2641 17.9914ZM24.751 17.6274L24.9664 16.6424L24.5164 16.544L24.1474 16.8198L24.751 17.6274ZM25.289 17.745L25.0736 18.7299L25.3834 18.7977L25.6762 18.6759L25.289 17.745ZM25.8028 17.5313L26.4602 16.7669L25.9892 16.3619L25.4157 16.6005L25.8028 17.5313ZM26.1872 17.8619L26.8935 17.1425L26.8698 17.1192L26.8446 17.0975L26.1872 17.8619ZM26.5543 18.2223L25.8479 18.9417L26.0046 19.0955L26.211 19.1703L26.5543 18.2223ZM27.1021 18.4207L27.9977 17.9578L27.8164 17.6072L27.4454 17.4728L27.1021 18.4207ZM27.3501 18.9005L26.4545 19.3635L26.5251 19.5L26.6331 19.6093L27.3501 18.9005ZM27.7198 19.2746L28.676 18.9549L28.6016 18.7325L28.4368 18.5658L27.7198 19.2746ZM27.8942 19.7961L26.938 20.1158L27.0637 20.4916L27.4117 20.6813L27.8942 19.7961ZM28.4053 20.0747L29.138 19.3821L29.0282 19.266L28.8878 19.1895L28.4053 20.0747ZM28.772 20.4627L29.7795 20.5005L29.7954 20.0777L29.5047 19.7701L28.772 20.4627ZM28.7479 21.1031L27.7404 21.0652L27.7216 21.5665L28.1101 21.8839L28.7479 21.1031ZM29.1751 21.4521L29.8136 20.6718L29.8129 20.6713L29.1751 21.4521ZM29.6049 21.8038L30.6116 21.8582L30.6392 21.3474L30.2434 21.0235L29.6049 21.8038ZM29.5706 22.4377L28.5639 22.3833L28.5468 22.6992L28.7133 22.9682L29.5706 22.4377ZM29.8464 22.8835L28.9891 23.414L29.089 23.5753L29.2406 23.6893L29.8464 22.8835ZM30.2983 23.2232L31.138 22.6651L31.0423 22.5212L30.9042 22.4173L30.2983 23.2232ZM30.5887 23.66L29.749 24.218L29.7879 24.2765L29.8345 24.3291L30.5887 23.66ZM30.9411 24.0572L31.9223 23.8256L31.8639 23.5782L31.6952 23.3881L30.9411 24.0572ZM31.0772 24.6343L30.096 24.8659L30.2086 25.3429L30.6533 25.549L31.0772 24.6343ZM31.5757 24.8654L31.1518 25.7801L31.2419 25.8218L31.3384 25.8452L31.5757 24.8654ZM32.1232 24.998L33.0041 24.5076L32.7895 24.122L32.3605 24.0181L32.1232 24.998ZM32.4099 25.5131L31.529 26.0034L31.7613 26.4207L32.2313 26.5053L32.4099 25.5131ZM32.9626 25.6126L33.7485 24.9812L33.5123 24.6872L33.1412 24.6204L32.9626 25.6126ZM33.3157 26.0521L32.5297 26.6836L32.8444 27.0752L33.3466 27.0599L33.3157 26.0521ZM33.9209 26.0336L34.7875 25.5184L34.4839 25.0077L33.89 25.0259L33.9209 26.0336ZM34.2355 26.5629L33.3689 27.078L33.4683 27.2452L33.6227 27.3635L34.2355 26.5629ZM34.6599 26.8878L34.0471 27.6883L34.381 27.9439L34.7976 27.8865L34.6599 26.8878ZM35.2904 26.8009L36.2357 26.4502L35.9543 25.6916L35.1528 25.8021L35.2904 26.8009ZM34.416 27.3423C34.6096 27.8643 35.1898 28.1305 35.7119 27.9369C36.2339 27.7432 36.5001 27.163 36.3064 26.641L35.3612 26.9916L34.416 27.3423ZM1.00818 5.36195L1.50301 6.24035L1.59085 6.19087L1.09602 5.31247L0.601195 4.43407L0.513355 4.48356L1.00818 5.36195ZM1.09602 5.31247L1.87662 5.95052L2.15135 5.61441L1.37075 4.97636L0.590156 4.33831L0.315426 4.67443L1.09602 5.31247ZM1.37075 4.97636L1.83628 5.87063L2.30942 5.62433L1.84389 4.73006L1.37836 3.83579L0.905223 4.08209L1.37075 4.97636ZM1.84389 4.73006L2.59561 5.40189L2.95312 5.00187L2.2014 4.33004L1.44968 3.65821L1.09217 4.05823L1.84389 4.73006ZM2.2014 4.33004L2.83648 5.11305L3.24619 4.78074L2.61111 3.99773L1.97602 3.21472L1.56631 3.54703L2.2014 4.33004ZM2.61111 3.99773L2.63049 5.00573L3.25357 4.99375L3.23419 3.98575L3.21481 2.97776L2.59173 2.98974L2.61111 3.99773ZM3.23419 3.98575L4.13893 4.43059L4.40831 3.88269L3.50357 3.43786L2.59883 2.99302L2.32944 3.54092L3.23419 3.98575ZM3.50357 3.43786L3.86738 4.37811L4.36553 4.18536L4.00171 3.24511L3.6379 2.30485L3.13975 2.4976L3.50357 3.43786ZM4.00171 3.24511L4.53957 4.09784L4.98354 3.8178L4.44568 2.96508L3.90783 2.11235L3.46386 2.39238L4.00171 3.24511ZM4.44568 2.96508L5.09788 3.73389L5.50702 3.38681L4.85482 2.618L4.20262 1.84919L3.79348 2.19626L4.44568 2.96508ZM4.85482 2.618L5.24949 3.54572L5.73588 3.3388L5.34121 2.41108L4.94654 1.48336L4.46015 1.69027L4.85482 2.618ZM5.34121 2.41108L5.32796 3.41918L5.91412 3.42687L5.92736 2.41878L5.94061 1.41068L5.35445 1.40298L5.34121 2.41108ZM5.92736 2.41878L6.30887 3.35199L6.78901 3.1557L6.40751 2.22249L6.026 1.28928L5.54586 1.48556L5.92736 2.41878ZM6.40751 2.22249L7.1126 2.9431L7.51381 2.55053L6.80872 1.82992L6.10363 1.1093L5.70242 1.50188L6.40751 2.22249ZM6.80872 1.82992L6.89567 2.83435L7.43565 2.7876L7.34871 1.78317L7.26176 0.778746L6.72178 0.825489L6.80872 1.82992ZM7.34871 1.78317L7.70718 2.72548L8.19191 2.54107L7.83344 1.59877L7.47496 0.65647L6.99023 0.840874L7.34871 1.78317ZM7.83344 1.59877L8.1119 2.56774L8.61038 2.42448L8.33192 1.45552L8.05346 0.486551L7.55498 0.629805L7.83344 1.59877ZM8.33192 1.45552L8.97849 2.22907L9.433 1.84917L8.78643 1.07562L8.13987 0.302064L7.68535 0.681964L8.33192 1.45552ZM8.78643 1.07562L8.90753 2.0765L9.4395 2.01214L9.31841 1.01125L9.19731 0.0103682L8.66534 0.0747312L8.78643 1.07562ZM9.31841 1.01125L9.26654 2.0181L9.80391 2.04579L9.85578 1.03894L9.90766 0.0320907L9.37028 0.00440466L9.31841 1.01125ZM9.85578 1.03894L9.65418 2.02676L10.1843 2.13494L10.3859 1.14712L10.5875 0.159299L10.0574 0.0511172L9.85578 1.03894ZM10.3859 1.14712L10.3197 2.15313L10.8439 2.18761L10.91 1.1816L10.9762 0.175593L10.452 0.141111L10.3859 1.14712ZM10.91 1.1816L10.995 2.1862L11.5569 2.13867L11.4719 1.13407L11.3869 0.129478L10.8251 0.177007L10.91 1.1816ZM11.4719 1.13407L11.135 2.08432L11.6509 2.26718L11.9877 1.31693L12.3246 0.36668L11.8087 0.183826L11.4719 1.13407ZM11.9877 1.31693L11.1364 1.85703L11.4667 2.37758L12.318 1.83748L13.1693 1.29738L12.839 0.776826L11.9877 1.31693ZM12.318 1.83748L11.5964 2.54155L11.9569 2.91104L12.6785 2.20697L13.4001 1.5029L13.0396 1.13341L12.318 1.83748ZM12.6785 2.20697L12.0942 3.02857L12.5065 3.32178L13.0908 2.50019L13.6751 1.67859L13.2628 1.38538L12.6785 2.20697ZM13.0908 2.50019L12.386 3.22112L12.7508 3.57768L13.4555 2.85674L14.1603 2.1358L13.7955 1.77925L13.0908 2.50019ZM13.4555 2.85674L12.6457 3.45721L12.9511 3.86919L13.761 3.26872L14.5708 2.66825L14.2654 2.25627L13.4555 2.85674ZM13.761 3.26872L13.1401 4.06306L13.575 4.403L14.1959 3.60866L14.8168 2.81432L14.3818 2.47438L13.761 3.26872ZM14.1959 3.60866L13.1904 3.68156L13.2315 4.24967L14.2371 4.17677L15.2426 4.10388L15.2014 3.53577L14.1959 3.60866ZM14.2371 4.17677L13.6249 4.97779L14.0896 5.33302L14.7019 4.53201L15.3141 3.731L14.8493 3.37576L14.2371 4.17677ZM14.7019 4.53201L13.7275 4.79104L13.864 5.30448L14.8384 5.04545L15.8127 4.78641L15.6762 4.27298L14.7019 4.53201ZM14.8384 5.04545L13.8306 5.01747L13.815 5.57761L14.8228 5.60558L15.8306 5.63355L15.8462 5.07342L14.8384 5.04545ZM14.8228 5.60558L14.1648 6.36943L14.6295 6.76974L15.2875 6.00589L15.9455 5.24204L15.4808 4.84173L14.8228 5.60558ZM15.2875 6.00589L14.3065 6.23845L14.4284 6.75246L15.4094 6.5199L16.3904 6.28733L16.2685 5.77332L15.2875 6.00589ZM15.4094 6.5199L14.4523 6.8368L14.6191 7.34053L15.5762 7.02363L16.5332 6.70673L16.3665 6.20299L15.4094 6.5199ZM15.5762 7.02363L14.6142 6.72196L14.4336 7.29766L15.3956 7.59933L16.3576 7.901L16.5382 7.3253L15.5762 7.02363ZM15.3956 7.59933L14.6298 8.25498L15.0216 8.71265L15.7874 8.05699L16.5533 7.40133L16.1615 6.94367L15.3956 7.59933ZM15.7874 8.05699L14.8015 8.26736L14.9116 8.78382L15.8976 8.57345L16.8836 8.36308L16.7734 7.84662L15.7874 8.05699ZM15.8976 8.57345L14.8926 8.49416L14.85 9.03327L15.8551 9.11256L16.8602 9.19186L16.9027 8.65275L15.8976 8.57345ZM15.8551 9.11256L14.8837 8.84289L14.7307 9.39383L15.7022 9.6635L16.6736 9.93317L16.8265 9.38224L15.8551 9.11256ZM15.7022 9.6635L14.9627 10.3488L15.3999 10.8205L16.1393 10.1352L16.8788 9.44988L16.4416 8.97818L15.7022 9.6635ZM16.1393 10.1352L15.2285 9.70308L14.9627 10.2633L15.8736 10.6954L16.7845 11.1276L17.0502 10.5673L16.1393 10.1352ZM15.8736 10.6954L14.8828 10.8821L14.9802 11.399L15.971 11.2123L16.9617 11.0256L16.8643 10.5088L15.8736 10.6954ZM15.971 11.2123L14.9678 11.3128L15.02 11.8339L16.0232 11.7334L17.0263 11.6329L16.9741 11.1118L15.971 11.2123ZM16.0232 11.7334L15.1732 12.2756L15.488 12.7691L16.338 12.2269L17.1879 11.6847L16.8731 11.1912L16.0232 11.7334ZM16.338 12.2269L15.4492 11.7509L15.1495 12.3106L16.0382 12.7866L16.9269 13.2626L17.2267 12.703L16.338 12.2269ZM16.0382 12.7866L15.1011 13.1586L15.3026 13.6661L16.2396 13.294L17.1767 12.922L16.9752 12.4146L16.0382 12.7866ZM16.2396 13.294L15.2317 13.3138L15.242 13.8393L16.25 13.8195L17.258 13.7997L17.2476 13.2742L16.2396 13.294ZM16.25 13.8195L15.2454 13.9043L15.2894 14.4265L16.294 14.3418L17.2987 14.257L17.2546 13.7347L16.25 13.8195ZM16.294 14.3418L15.3982 14.8043L15.6555 15.3026L16.5513 14.8401L17.4472 14.3776L17.1899 13.8793L16.294 14.3418ZM16.5513 14.8401L15.6025 15.1809L15.7827 15.6826L16.7315 15.3418L17.6804 15.001L17.5002 14.4993L16.5513 14.8401ZM16.7315 15.3418L15.7402 15.5252L15.8345 16.0352L16.8259 15.8517L17.8172 15.6683L17.7229 15.1584L16.7315 15.3418ZM16.8259 15.8517L15.8267 15.7173L15.7526 16.2677L16.7518 16.4021L17.751 16.5365L17.8251 15.9862L16.8259 15.8517ZM16.7518 16.4021L15.876 16.9015L16.1386 17.3621L17.0144 16.8627L17.8903 16.3633L17.6276 15.9027L16.7518 16.4021ZM17.0144 16.8627L16.0064 16.8806L16.0167 17.4611L17.0248 17.4432L18.0328 17.4252L18.0225 16.8448L17.0144 16.8627ZM17.0248 17.4432L16.5506 18.3329L17.0476 18.5977L17.5217 17.708L17.9958 16.8182L17.4989 16.5534L17.0248 17.4432ZM17.5217 17.708L17.1402 18.6412L17.6057 18.8315L17.9872 17.8982L18.3687 16.965L17.9032 16.7747L17.5217 17.708ZM17.9872 17.8982L18.1487 18.8934L18.6907 18.8054L18.5292 17.8103L18.3678 16.8151L17.8257 16.9031L17.9872 17.8982ZM18.5292 17.8103L17.8144 18.5212L18.2832 18.9926L18.9981 18.2817L19.7129 17.5707L19.2441 17.0993L18.5292 17.8103ZM18.9981 18.2817L19.37 19.2187L19.9163 19.0019L19.5444 18.0648L19.1725 17.1277L18.6261 17.3446L18.9981 18.2817ZM19.5444 18.0648L19.3488 19.0538L19.8689 19.1567L20.0645 18.1677L20.2602 17.1787L19.74 17.0758L19.5444 18.0648ZM20.0645 18.1677L20.4324 19.1064L20.954 18.902L20.5861 17.9633L20.2183 17.0246L19.6967 17.229L20.0645 18.1677ZM20.5861 17.9633L20.3897 18.9522L20.9142 19.0564L21.1107 18.0675L21.3071 17.0787L20.7826 16.9745L20.5861 17.9633ZM21.1107 18.0675L21.4227 19.0262L21.9347 18.8595L21.6227 17.9009L21.3106 16.9422L20.7986 17.1088L21.1107 18.0675ZM21.6227 17.9009L21.2176 18.8241L21.7629 19.0633L22.1679 18.1401L22.573 17.2168L22.0277 16.9776L21.6227 17.9009ZM22.1679 18.1401L22.7634 18.9536L23.2531 18.5952L22.6576 17.7817L22.0622 16.9681L21.5725 17.3265L22.1679 18.1401ZM22.6576 17.7817L22.268 18.7115L22.8215 18.9434L23.2111 18.0136L23.6007 17.0837L23.0473 16.8518L22.6576 17.7817ZM23.2111 18.0136L23.5706 18.9555L24.0756 18.7628L23.7161 17.8208L23.3566 16.8789L22.8516 17.0717L23.2111 18.0136ZM23.7161 17.8208L23.4165 18.7835L23.9645 18.954L24.2641 17.9914L24.5636 17.0287L24.0157 16.8582L23.7161 17.8208ZM24.2641 17.9914L24.8677 18.7989L25.3547 18.4349L24.751 17.6274L24.1474 16.8198L23.6604 17.1838L24.2641 17.9914ZM24.751 17.6274L24.5356 18.6123L25.0736 18.7299L25.289 17.745L25.5044 16.7601L24.9664 16.6424L24.751 17.6274ZM25.289 17.745L25.6762 18.6759L26.19 18.4622L25.8028 17.5313L25.4157 16.6005L24.9019 16.8141L25.289 17.745ZM25.8028 17.5313L25.1454 18.2957L25.5298 18.6263L26.1872 17.8619L26.8446 17.0975L26.4602 16.7669L25.8028 17.5313ZM26.1872 17.8619L25.4808 18.5813L25.8479 18.9417L26.5543 18.2223L27.2606 17.503L26.8935 17.1425L26.1872 17.8619ZM26.5543 18.2223L26.211 19.1703L26.7588 19.3687L27.1021 18.4207L27.4454 17.4728L26.8976 17.2744L26.5543 18.2223ZM27.1021 18.4207L26.2065 18.8837L26.4545 19.3635L27.3501 18.9005L28.2457 18.4376L27.9977 17.9578L27.1021 18.4207ZM27.3501 18.9005L26.6331 19.6093L27.0028 19.9833L27.7198 19.2746L28.4368 18.5658L28.0671 18.1918L27.3501 18.9005ZM27.7198 19.2746L26.7637 19.5943L26.938 20.1158L27.8942 19.7961L28.8503 19.4764L28.676 18.9549L27.7198 19.2746ZM27.8942 19.7961L27.4117 20.6813L27.9228 20.9599L28.4053 20.0747L28.8878 19.1895L28.3767 18.9109L27.8942 19.7961ZM28.4053 20.0747L27.6726 20.7672L28.0393 21.1552L28.772 20.4627L29.5047 19.7701L29.138 19.3821L28.4053 20.0747ZM28.772 20.4627L27.7645 20.4248L27.7404 21.0652L28.7479 21.1031L29.7554 21.141L29.7795 20.5005L28.772 20.4627ZM28.7479 21.1031L28.1101 21.8839L28.5373 22.2329L29.1751 21.4521L29.8129 20.6713L29.3857 20.3223L28.7479 21.1031ZM29.1751 21.4521L28.5366 22.2323L28.9664 22.584L29.6049 21.8038L30.2434 21.0235L29.8136 20.6718L29.1751 21.4521ZM29.6049 21.8038L28.5982 21.7494L28.5639 22.3833L29.5706 22.4377L30.5773 22.4921L30.6116 21.8582L29.6049 21.8038ZM29.5706 22.4377L28.7133 22.9682L28.9891 23.414L29.8464 22.8835L30.7038 22.353L30.428 21.9072L29.5706 22.4377ZM29.8464 22.8835L29.2406 23.6893L29.6925 24.029L30.2983 23.2232L30.9042 22.4173L30.4523 22.0776L29.8464 22.8835ZM30.2983 23.2232L29.4587 23.7812L29.749 24.218L30.5887 23.66L31.4283 23.1019L31.138 22.6651L30.2983 23.2232ZM30.5887 23.66L29.8345 24.3291L30.1869 24.7263L30.9411 24.0572L31.6952 23.3881L31.3428 22.9909L30.5887 23.66ZM30.9411 24.0572L29.9598 24.2887L30.096 24.8659L31.0772 24.6343L32.0585 24.4028L31.9223 23.8256L30.9411 24.0572ZM31.0772 24.6343L30.6533 25.549L31.1518 25.7801L31.5757 24.8654L31.9997 23.9506L31.5012 23.7196L31.0772 24.6343ZM31.5757 24.8654L31.3384 25.8452L31.8859 25.9778L32.1232 24.998L32.3605 24.0181L31.813 23.8855L31.5757 24.8654ZM32.1232 24.998L31.2423 25.4883L31.529 26.0034L32.4099 25.5131L33.2909 25.0228L33.0041 24.5076L32.1232 24.998ZM32.4099 25.5131L32.2313 26.5053L32.7839 26.6049L32.9626 25.6126L33.1412 24.6204L32.5886 24.5209L32.4099 25.5131ZM32.9626 25.6126L32.1766 26.2441L32.5297 26.6836L33.3157 26.0521L34.1016 25.4207L33.7485 24.9812L32.9626 25.6126ZM33.3157 26.0521L33.3466 27.0599L33.9518 27.0413L33.9209 26.0336L33.89 25.0259L33.2848 25.0444L33.3157 26.0521ZM33.9209 26.0336L33.0543 26.5487L33.3689 27.078L34.2355 26.5629L35.1022 26.0478L34.7875 25.5184L33.9209 26.0336ZM34.2355 26.5629L33.6227 27.3635L34.0471 27.6883L34.6599 26.8878L35.2727 26.0872L34.8483 25.7623L34.2355 26.5629ZM34.6599 26.8878L34.7976 27.8865L35.4281 27.7996L35.2904 26.8009L35.1528 25.8021L34.5223 25.889L34.6599 26.8878ZM35.2904 26.8009L34.3452 27.1515L34.416 27.3423L35.3612 26.9916L36.3064 26.641L36.2357 26.4502L35.2904 26.8009Z" fill="white"/>
</svg>
