<svg width="325" height="217" viewBox="0 0 325 217" fill="none" xmlns="http://www.w3.org/2000/svg">
<path d="M0.0863426 184.256C0.310867 183.751 0.901666 183.523 1.40644 183.748L1.49829 183.788L1.68981 183.873L1.83051 184.028L1.89793 184.101L2.05623 184.121L2.18912 184.136L2.31321 184.184L2.64837 184.318L3.0314 184.341L3.25223 184.353L3.44766 184.46L3.91179 184.709L3.99973 184.756L4.07595 184.821L4.23717 184.953L4.46289 184.966L4.54008 184.971L4.61435 184.987L5.13222 185.095L5.45956 185.164L5.67941 185.417L5.82403 185.581L5.99796 185.61L6.14648 185.634L6.2823 185.703L6.75132 185.938L6.86467 185.994L6.95945 186.077L7.36593 186.43L7.42261 186.48L7.59653 186.454L8.28834 186.351L8.62252 186.963L8.74564 187.188L8.89318 187.245L8.96451 187.273L9.029 187.31L9.29967 187.463L9.65143 187.502L9.88301 187.526L10.0794 187.651L10.523 187.932L10.6833 188.033L10.7947 188.187L10.9891 188.452L11.2402 188.581L11.6878 188.799L11.8509 188.879L11.975 189.01L12.2125 189.26L12.3972 189.346L12.8349 189.425L12.9903 189.453L13.128 189.526L13.7681 189.868L13.8941 190.02L14.2205 190.414L14.5117 190.731L14.8155 190.982L15.4135 191.367L15.5337 191.572L15.6989 191.857L15.9588 192.043L16.1542 192.184L16.2646 192.4L16.4024 192.672L16.9515 193.079L17.0278 193.456L17.0434 193.535L17.1235 193.575L17.3033 193.661L17.4372 193.809L17.788 194.203L17.9296 194.361L17.9951 194.563L18.1505 195.047L18.2423 195.279L18.4778 195.483L18.7973 195.761L18.8306 196.416L19.3944 197.12L18.9068 198.129L18.8521 198.34L18.897 198.735L18.9605 199.287L18.1378 199.942L18.0498 200.039L18.0107 200.309L17.9805 200.525L17.8622 200.709L17.5779 201.148L17.5486 201.194L17.5144 201.237L17.1841 201.645L17.1216 201.721L17.0463 201.783L16.6398 202.122L16.5939 202.161L16.5431 202.193L16.335 202.327L16.2265 202.564L16.1464 202.736L16.0106 202.866L15.6764 203.187L15.3803 203.546L15.2308 203.727L15.0168 203.823L14.6846 203.97L14.5889 204.067L14.4452 204.418L14.2302 204.945L13.685 205.026L13.5267 205.566L12.9541 205.698L12.6063 205.777L12.4724 205.886L12.0581 206.419L11.8226 206.521L11.5832 206.623L11.4376 206.831L11.3585 206.946L11.25 207.034L10.8934 207.324L10.6002 207.623L10.4136 207.859L10.2885 208.201L10.1879 208.478L9.95239 208.656L9.79995 208.77L9.84783 208.899L9.91819 209.087L9.91037 209.291L9.89083 209.777L9.88692 209.872L9.87324 209.931L10.013 210.046L10.1077 210.244L10.224 210.486L10.8054 210.922L10.8465 211.357L11.0165 211.416L11.1806 211.584L11.4816 211.889L11.8392 212.141L11.936 212.208L12.0131 212.296L12.359 212.686L12.361 212.688L12.7059 213.08L12.8222 213.213L12.8867 213.378L13.0421 213.774L13.1232 213.883L13.4016 214.012L13.6801 214.14L13.8374 214.402L14.0104 214.684L14.2771 214.881L14.6387 215.144L14.6827 215.588L14.7002 215.77C14.7547 216.32 14.3539 216.81 13.8042 216.864C13.3617 216.908 12.9583 216.657 12.789 216.27L12.5066 216.065L12.403 215.894L12.2858 215.7L12.0522 215.593L11.8207 215.486L11.6692 215.281L11.3565 214.862L11.2774 214.755L11.2275 214.63L11.0868 214.267L10.8611 214.011L10.5934 213.709L10.2563 213.473L10.182 213.422L10.1175 213.357L9.91819 213.153L9.58499 213.039L8.97526 212.829L8.91468 212.187L8.89709 211.99L8.82771 211.94L8.63131 211.793L8.39973 211.308L7.64344 210.684L7.89554 209.603L7.90238 209.414L7.76851 209.055L7.6366 208.704L7.76753 208.353L7.95514 207.851L8.05676 207.579L8.5121 207.233L8.59125 207.021L8.64597 206.87L8.74368 206.745L9.06222 206.341L9.09642 206.299L9.13355 206.261L9.499 205.887L9.53906 205.846L9.87617 205.571L10.1058 205.244L10.268 205.012L10.5299 204.899L10.7947 204.784L10.9627 204.569L11.0311 204.48L11.1191 204.409L11.5217 204.08L11.7024 203.931L11.932 203.878L11.936 203.876L11.9428 203.85L12.1226 203.236L12.7558 203.142L12.8085 203.133L12.8115 203.126L12.8867 202.94L13.0284 202.799L13.3948 202.429L13.5257 202.298L13.985 202.092L14.1697 201.867L14.2078 201.823L14.2498 201.782L14.4892 201.552L14.7628 200.962L15.4028 200.546L15.692 200.306L15.9236 200.021L16.0624 199.807L16.1122 199.456L16.1552 199.157L16.7053 198.542L16.761 198.479L16.8274 198.426L16.846 198.41L16.8431 198.383L16.8206 198.197L16.8685 198.016L16.9955 197.526L17.0209 197.432L17.0434 197.385L16.8656 197.165L16.8499 196.843L16.8431 196.711L16.7424 196.625L16.5587 196.464L16.2773 195.749L16.2656 195.719L16.2568 195.69L16.1562 195.377L16.079 195.292L15.7301 195.125L15.2797 194.91L15.181 194.421L15.1429 194.226L15.0217 194.137L14.8341 193.999L14.7276 193.79L14.5928 193.524L14.3592 193.358L14.1882 193.235L14.0817 193.052L13.9273 192.79L13.6821 192.632L13.6352 192.6L13.5912 192.565L13.1877 192.234L13.132 192.189L13.0831 192.135L12.7274 191.745L12.7118 191.728L12.6962 191.709L12.4812 191.449L12.3248 191.365L11.9145 191.293L11.7855 191.27L11.1933 190.993L11.0214 190.912L10.8904 190.774L10.6501 190.519L10.3423 190.371L10.3208 190.36L9.65143 190.014L9.51268 189.824L9.29185 189.52L9.20391 189.466L8.87852 189.431L8.67235 189.409L8.49158 189.306L8.10562 189.087L7.68545 188.926L7.3415 188.794L7.20178 188.536L6.80799 188.595L6.46014 188.293L6.05268 187.941L5.74195 187.671L5.52014 187.558L5.14297 187.497L4.78827 187.438L4.55279 187.168L4.39254 186.985L4.27724 186.959L3.4672 186.916L3.21315 186.704L2.87213 186.421L2.69527 186.325L2.36989 186.308L2.20768 186.298L2.05623 186.237L1.69469 186.092L1.29602 186.048L0.924717 186.004L0.672618 185.728L0.477193 185.513C0.0559082 185.255 -0.119761 184.72 0.0863426 184.256Z" fill="white"/>
<path d="M110.164 202.225C110.248 202.232 110.329 202.251 110.406 202.277L110.463 202.271L110.475 202.27H110.487L111.012 202.234L111.047 202.232H111.082L111.604 202.234L111.671 202.233L111.738 202.243L112.253 202.313L112.34 202.325L112.635 202.419L112.87 202.348L113.099 202.278L113.334 202.32L113.85 202.411L114.055 202.446L114.229 202.563L114.432 202.696L114.607 202.681L114.656 202.677L114.704 202.677L115.108 202.679L115.735 202.531L115.951 202.576L116.431 202.674L116.825 202.727L117.262 202.711L117.513 202.7L117.739 202.809L118.098 202.982L118.43 203.028L118.811 203.055L119.239 202.999L119.323 202.988L119.408 202.991L120.102 203.019L120.648 203.237L120.711 203.244L120.975 203.099L121.594 202.757L122.124 203.227L122.182 203.277L122.239 203.26L122.306 203.248L122.835 203.152L122.994 203.125L123.151 203.147L123.668 203.22L123.707 203.226L124.259 203.35L124.347 203.369L124.628 203.488L124.836 203.437L125.039 203.386L125.76 203.509L125.834 203.522L125.904 203.545L126.043 203.589L126.23 203.505L126.657 203.311L127.08 203.516L127.294 203.617L127.507 203.582L127.888 203.518L128.187 203.708L128.203 203.7L128.625 203.444L129.487 203.782L129.757 203.822L129.823 203.827C130.374 203.872 130.784 204.355 130.74 204.905C130.695 205.456 130.212 205.867 129.661 205.822L129.528 205.81L129.495 205.806L129.079 205.745L128.966 205.727L128.861 205.685L128.814 205.667L128.688 205.744L128.155 206.065L127.632 205.73L127.461 205.62L127.313 205.645L126.998 205.7L126.71 205.56L126.63 205.521L126.515 205.573L126.16 205.735L125.79 205.613L125.351 205.467L125.116 205.428L124.787 205.511L124.462 205.592L124.153 205.461L123.731 205.281L123.35 205.196L123.029 205.151L122.724 205.206L121.71 205.535L121.323 205.191L121.114 205.308L120.145 205.193L120.022 205.143L119.678 205.004L119.416 204.993L118.972 205.053L118.872 205.067L118.771 205.059L118.253 205.023L118.219 205.02L118.185 205.016L117.67 204.943L117.513 204.922L117.094 204.72L116.823 204.732L116.733 204.735L116.644 204.724L116.127 204.652L116.096 204.647L116.064 204.641L115.766 204.58L115.448 204.655L115.331 204.683H115.211L114.742 204.678L114.261 204.722L113.911 204.753L113.617 204.558L113.296 204.343L113.225 204.332L112.617 204.516L112.32 204.421L111.893 204.284L111.531 204.233L111.106 204.232L110.645 204.262L110.166 204.307L108.982 204.416L109.079 203.23L109.086 203.141C109.131 202.59 109.613 202.181 110.164 202.225Z" fill="white"/>
<path d="M227.347 113.268C227.749 112.94 228.328 112.975 228.686 113.334L228.924 113.468L229.151 113.594L229.287 113.815L229.563 114.26L229.565 114.264L229.752 114.568L230.031 114.797L230.163 114.905L230.253 115.05L230.526 115.499L230.619 115.652L230.653 115.828L230.67 115.91L230.733 115.941L230.791 115.968L231.307 116.297L231.674 116.532L231.752 116.962L231.791 117.185L231.868 117.246L232.28 117.502L232.703 117.767L232.748 118.265L232.774 118.576L232.988 118.642L233.268 118.728L233.457 118.951L233.793 119.347L234.004 119.595L234.02 119.816L234.45 119.917L234.645 120.396L234.853 120.898L234.916 121.053L235.097 121.145L235.388 121.293L235.536 121.584L235.689 121.89L236.139 122.285L236.224 122.533L236.31 122.778L236.499 122.927L236.575 122.989L236.64 123.063L237.036 123.525L237.08 123.601L237.253 123.893L237.525 124.109L237.599 124.167L237.66 124.239L238.159 124.815L238.217 125.05L238.232 125.113L238.314 125.145L238.631 125.276L238.802 125.575L239.062 126.034L239.103 126.104L239.13 126.18L239.212 126.399L239.403 126.532L239.475 126.584L239.539 126.646L239.908 127.02L240.081 127.194L240.155 127.427L240.283 127.841L240.327 127.915L240.583 128.028L241.002 128.214L241.236 128.98L241.438 129.214L241.593 129.394L241.651 129.623L241.729 129.938L241.826 130.052L242.177 130.288L242.323 130.387L242.426 130.53L242.636 130.82L242.846 130.969L243.994 131.788L242.672 132.718C242.22 133.036 241.596 132.928 241.278 132.477C241.206 132.374 241.156 132.261 241.127 132.146L241.112 132.126L240.912 131.848L240.596 131.636L240.485 131.56L240.397 131.458L240.059 131.062L239.905 130.884L239.769 130.341L239.582 130.125L239.444 129.965L239.383 129.763L239.355 129.672L239.229 129.618L238.941 129.49L238.507 128.773L238.445 128.668L238.317 128.256L238.181 128.118L237.81 127.86L237.555 127.681L237.446 127.389L237.284 126.953L237.234 126.864L237 126.769L236.529 126.576L236.408 126.082L236.331 125.76L236.207 125.617L235.718 125.23L235.624 125.07L235.4 124.69L235.184 124.439L234.611 123.989L234.42 123.435L234.219 123.26L234.077 123.134L233.991 122.964L233.899 122.78L233.682 122.67L233.354 122.503L233.213 122.163L233.004 121.663L233.001 121.657L232.991 121.633L232.852 121.601L232.134 121.436L232.08 120.702L232.061 120.449L231.801 120.37L231.46 120.265L231.262 119.968L230.972 119.533L230.831 119.321L230.808 119.066L230.798 118.938L230.755 118.911L230.699 118.876L230.649 118.835L230.239 118.498L229.954 118.266L229.889 117.903L229.861 117.748L229.819 117.721L228.899 117.287L228.723 116.386L228.632 116.236L228.354 116.008L228.222 115.902L227.859 115.31L227.86 115.309L227.723 115.086L227.554 114.993L227.387 114.9L227.266 114.752L227.203 114.675C226.854 114.246 226.919 113.617 227.347 113.268Z" fill="white"/>
<path d="M320.45 7.768e-06C321.002 -0.00214693 321.452 0.444229 321.454 0.996677L321.455 1.09732L321.454 1.14618L321.45 1.19503L321.429 1.42173L321.533 1.75981L321.655 2.15457L321.461 2.52099L321.358 2.71446L321.393 2.8923L321.395 2.89621L321.494 3.418L321.539 3.65837L321.323 4.37851L321.261 4.61204L321.34 4.85535L321.447 5.18659L321.296 5.58526L321.354 5.682L321.665 6.20085L321.164 7.02066L321.304 7.27764L321.524 7.68022L321.362 8.10918L321.268 8.35932L321.312 8.544L321.451 9.05406L321.487 9.18402V9.48009L321.644 9.66769L321.938 10.0156L321.866 10.468L321.782 11.0044L321.716 11.4148L321.903 11.5702L322.432 12.0118L322.206 12.6645L322.089 13.0056L322.1 13.071L322.289 13.3651L322.335 13.4374L322.367 13.5166L322.571 13.9983L322.706 14.312L322.968 14.5983L323.288 14.95L323.218 15.421L323.173 15.7181L323.191 15.7542L323.665 16.2213L323.733 16.4959L323.811 16.8163L324.007 17.0802L324.036 17.1193L324.06 17.1613L324.337 17.6205L324.567 18.0045L324.444 18.4022L324.477 18.4315L325 18.9181L324.711 19.5709L324.618 19.779L324.675 19.9783L324.841 20.5763L324.378 20.9906L324.13 21.2134L324.098 21.3424L324.044 21.8065L324.033 21.8955L323.744 22.8511L323.424 23.0494L323.136 23.2273L323.011 23.4315L322.823 23.8028L322.672 24.2591L322.516 24.7272L322.05 24.8884L321.787 24.9783L321.671 25.1434L321.584 25.2675L321.465 25.3594L321.25 25.5235C321.211 25.6861 321.132 25.8421 321.01 25.973C320.632 26.3764 319.998 26.398 319.595 26.0209L319.482 25.9134L318.756 25.2353L319.702 24.2093L319.759 24.1468L319.826 24.0959L320.124 23.8644L320.338 23.5624L320.523 23.2996L320.828 23.1941L320.929 23.1579L320.95 23.0954L320.974 23.025L321.008 22.9595L321.245 22.4895L321.264 22.4534L321.285 22.4192L321.553 21.9814L321.677 21.7802L322.047 21.5495L322.065 21.487L322.127 20.9789L322.141 20.9173L322.263 20.4307L322.339 20.1327L322.566 19.9285L322.58 19.9148L322.5 19.6236L322.591 19.4136L322.16 19.0149L322.346 18.413L322.391 18.2664L322.373 18.2361L322.085 17.8482L321.965 17.687L321.918 17.4925L321.857 17.2502L321.663 17.0597L321.541 16.9385L321.237 16.3141L321.103 16.0346L321.148 15.7288L321.168 15.594L321.116 15.5383L321.004 15.4152L320.936 15.2617L320.73 14.783L320.726 14.7742L320.556 14.3716L320.205 13.8215L320.168 13.6299L320.025 12.8512L320.089 12.6626L319.809 12.4281L319.767 12.0245L319.713 11.4998L319.699 11.3708L319.719 11.2428L319.804 10.6966V10.6937L319.818 10.6048L319.721 10.4885L319.486 10.21V9.84553L319.485 9.45273L319.381 9.07262L319.378 9.05699L319.373 9.04136L319.25 8.52837L319.179 8.22839L319.287 7.94209L319.327 7.83265L319.272 7.73103L319.14 7.48968L319.15 7.21315L319.172 6.68648L319.182 6.42657L319.317 6.20574L319.327 6.18913L319.083 5.78362L319.254 5.33121L319.329 5.13481L319.267 4.94524L319.179 4.66774L319.253 4.38437L319.389 3.86845L319.393 3.85184L319.398 3.83621L319.484 3.55284L319.429 3.27338L319.43 3.2724L319.326 2.7516L319.258 2.40472L319.424 2.09106L319.499 1.95035L319.457 1.81746L319.399 1.6279L319.418 1.42954L319.454 1.06312L319.453 1.00449C319.451 0.452071 319.897 0.00224523 320.45 7.768e-06Z" fill="white"/>
</svg>
