<svg width="208" height="219" viewBox="0 0 208 219" fill="none" xmlns="http://www.w3.org/2000/svg">
<path d="M66.2484 191.23L66.8568 191.262L66.93 191.277L67.3861 191.371L67.7689 191.396L68.2494 191.354L68.4643 191.337L68.6674 191.408L69.5044 191.705L69.689 191.997L69.9614 192.426L70.1822 192.652L70.5191 192.891L70.5826 192.936L70.6382 192.991L70.9996 193.345L71.0572 193.4L71.3258 193.764L72.0006 194.291L72.0328 194.733L72.0406 194.848L72.1442 194.927L72.4157 195.135L72.6393 195.974L72.6764 196.114L72.6725 196.259L72.6696 196.338L73.0163 196.638L73.0915 196.953L73.1999 197.414L73.3542 197.879L73.4548 198.185L73.3591 198.492L73.3454 198.534L73.5388 198.761L73.5925 199.009L73.7009 199.522L73.7321 199.664L73.7204 199.809L73.6784 200.344L73.6706 200.44L73.6452 200.532L73.6423 200.541L73.697 200.6L74.157 201.096L73.8669 201.708L73.7419 201.969L73.779 202.162L73.7868 202.205L73.7907 202.248L73.8181 202.527L74.0036 202.817L74.3181 203.31L74.0417 203.827L73.9636 203.971L73.9919 204.043L74.0593 204.212L74.0622 204.393L74.072 204.89L74.0954 205.168L74.2908 205.546L74.5193 206.182L74.5339 206.262L74.6277 206.768L74.656 206.925L74.6355 207.084L74.6062 207.294L74.8269 207.679L74.8298 207.914L74.9129 207.947L75.1736 207.906L75.6805 207.823L76.0428 208.187L76.2459 208.107L76.7635 208.209L77.0087 208.113L77.2821 208.006L77.5692 208.063L77.8339 208.116L78.0927 208.032L78.455 207.914L78.8037 208.067L78.8164 208.072L78.8379 208.057L79.2939 207.723L79.8154 207.942L79.9942 208.016L80.1221 207.968L80.4454 207.845L80.7754 207.948L80.8311 207.965L80.9063 207.91L81.2725 207.636L81.9454 207.784L82.1642 207.693L82.7336 207.456L83.2004 207.858L83.5822 208.185L83.6066 208.208L83.6301 208.23L83.8381 208.434L84.178 208.558L84.5461 208.691L84.9016 209.38L85.3245 209.807L85.3987 210.028L85.4466 210.172L85.6087 210.261L85.7483 210.337L85.8568 210.452L86.5091 211.141L86.4935 211.561L86.4876 211.698L86.5267 211.73L87.3461 212.401L87.3187 212.908L87.3012 213.224L87.3099 213.238L87.6088 213.463L87.7455 213.565L88.0893 214.083L88.393 214.426L88.561 214.614L88.6186 214.859L88.6391 214.95L89.0532 215.051L89.479 215.153L89.6919 215.536L89.7456 215.632L89.8276 215.647L90.1958 215.714L90.4302 216.006L90.4673 216.053L90.5708 216.05L91.1597 216.032L91.6422 216.845L91.8229 216.82L92.6178 216.71L92.9675 217.652C93.1593 218.17 92.8953 218.746 92.3776 218.938C92.0949 219.043 91.7957 219.01 91.5504 218.876L91.4703 218.888L91.0572 218.945L90.1519 218.251L90.0532 218.086L90.0415 218.067L90.0318 218.068L89.5337 218.083L89.2212 217.694L89.104 217.55L88.4594 217.434L88.2289 217.02L88.1567 216.891L88.0395 216.862L87.9438 216.84L87.8539 216.798L87.3598 216.569L86.9183 216.364L86.7298 215.564L86.5482 215.358L86.5013 215.307L86.4632 215.249L86.2708 214.959L85.9583 214.725L85.8079 214.611L85.7093 214.451L85.2708 213.742L85.2874 213.429L85.2932 213.307L85.26 213.279L84.8372 212.933L84.4514 212.619L84.4709 212.121L84.4778 211.922L84.1448 211.74L83.799 211.553L83.5764 210.884L83.2648 210.569L83.1945 210.433L83.1281 210.304L82.9533 210.242L82.7492 210.168L82.5929 210.015L82.3536 209.78L82.1329 209.872L81.8253 209.804L81.7384 209.785L81.6212 209.874L81.212 210.178L80.7247 210.027L80.5118 209.961L80.334 210.029L79.96 210.172L79.5918 210.016L79.5635 210.005L79.5332 210.027L79.0683 210.367L78.541 210.136L78.3486 210.051L78.204 210.098L77.956 210.179L77.6991 210.129L77.4657 210.082L77.2216 210.178L76.9491 210.285L76.6629 210.228L76.4364 210.182L76.1678 210.29L75.5545 210.533L75.0896 210.065L74.9871 209.962L74.9558 209.968L74.6785 210.012L74.4177 209.906L73.9558 209.717L73.9089 209.698L73.864 209.674L72.8522 209.134L72.8356 208.225L72.5348 207.698L72.6315 206.974L72.5817 206.706L72.4508 206.343L72.2282 205.911L72.1364 205.734L72.1197 205.537L72.0768 205.018L72.0738 204.986L72.0729 204.954L72.066 204.613L71.9332 204.279L71.7623 203.847L71.9811 203.437L72.0016 203.398L71.8766 203.202L71.8531 202.964L71.8063 202.497L71.7164 202.021L71.6568 201.701L71.7682 201.462L71.4166 201.082L71.566 200.544L71.691 200.089L71.7145 199.794L71.6891 199.676L71.1051 198.993L71.2711 198.465L71.3531 198.2L71.2896 198.008L71.276 197.966L71.2662 197.924L71.2193 197.73L71.0045 197.544L70.6441 197.234L70.6578 196.759L70.6685 196.347L70.6587 196.309L70.1109 195.891L70.0698 195.32L69.9878 195.257L69.8814 195.173L69.8003 195.064L69.5454 194.72L69.2964 194.476L68.9506 194.23L68.8774 194.178L68.8139 194.113L68.4565 193.747L68.3842 193.673L68.1899 193.366L67.8608 193.394L67.7856 193.401L67.1908 193.362L67.1224 193.357L67.056 193.344L66.6078 193.252L66.2269 193.232L66.0833 193.25L65.6976 193.573L65.4944 193.631L65.0403 193.762L64.5989 193.93L64.469 193.979L64.3293 193.991L64.1506 194.007L63.8693 194.282L63.6887 194.356L63.2121 194.551L63.0236 194.628L62.8205 194.625L62.4494 194.62L62.2999 194.684L62.0109 194.93L61.9571 194.976L61.8976 195.013L61.3751 195.343L61.2843 195.378L61.1534 195.428L61.0596 195.621L60.7911 196.168L60.1817 196.18L59.9063 196.185L59.8281 196.248L59.5283 196.584L59.4072 196.721L58.958 196.953L58.8154 197.129L58.6962 197.275L58.5322 197.367L58.4452 197.416C57.964 197.687 57.354 197.516 57.0829 197.035C56.829 196.584 56.9628 196.021 57.3768 195.729L57.539 195.529L57.6698 195.37L58.1581 195.115L58.3915 194.854L58.4452 194.795L58.5078 194.744L58.914 194.415L59.1806 194.198L59.5244 194.191L59.5342 194.19L59.7041 193.845L60.0684 193.704L60.4707 193.548L60.7725 193.357L61.1231 193.06L61.2384 192.962L61.378 192.903L61.8605 192.697L62.0548 192.615L62.2648 192.618L62.6427 192.623L62.7492 192.579L63.008 192.326L63.2648 192.076L63.6213 192.045L64.0178 192.012L64.3684 191.878L64.4075 191.862L64.4475 191.85L64.7395 191.767L65.0286 191.526L65.2552 191.336L65.5491 191.301L66.0775 191.236L66.1624 191.226L66.2484 191.23Z" fill="white"/>
<path d="M199.794 71.3435C200.338 71.2514 200.855 71.6185 200.947 72.1629L200.964 72.2616L200.972 72.3104L200.976 72.3592L200.991 72.5858L201.149 72.9022L201.333 73.2724L201.202 73.665L201.132 73.872L201.195 74.0419L201.197 74.0458L201.381 74.5439L201.465 74.7734L201.369 75.5186L201.346 75.7588L201.622 76.2959L201.554 76.6378L201.538 76.713L201.611 76.7989L202.003 77.2599L201.643 78.1505L202.105 78.7423L202.015 79.1916L201.963 79.4533L202.036 79.6281L202.257 80.1086L202.314 80.2307L202.335 80.3625L202.361 80.5227L202.547 80.6819L202.894 80.9778L202.904 82.3929L203.706 82.8656L203.53 83.9008L203.552 83.9643L203.785 84.2231L203.843 84.2866L203.888 84.3598L204.167 84.8012L204.352 85.0884L204.657 85.3286L205.03 85.6235L205.037 86.0992L205.041 86.399L205.065 86.4322L205.377 86.6529L205.608 86.815L205.72 87.0748L205.85 87.3785L206.085 87.6061L206.12 87.6402L206.152 87.6774L206.789 88.4264L206.733 88.8385L206.769 88.863L207.365 89.2565L207.186 89.948L207.128 90.1677L207.216 90.3552L207.478 90.9178L207.089 91.4022L206.88 91.6619L206.87 91.7947L206.892 92.2616L206.896 92.3504L206.885 92.4374L206.767 93.3397L206.484 93.5878L206.229 93.8105L206.139 94.0322L206.014 94.4287L205.862 95.3906L205.429 95.625L205.184 95.7569L205.097 95.9385L205.032 96.0743L204.929 96.1846L204.743 96.3819C204.731 96.5486 204.679 96.7153 204.579 96.8643C204.273 97.3236 203.652 97.4478 203.193 97.1417L203.063 97.0548L202.236 96.504L203.003 95.3379L203.049 95.2676L203.107 95.206L203.363 94.9297L203.525 94.5966L203.664 94.3076L203.948 94.1533L204.041 94.1015L204.052 94.0361L204.064 93.9628L204.086 93.8925L204.244 93.3905L204.256 93.3524L204.272 93.3153L204.554 92.621L204.732 92.4647L204.881 92.3329L204.889 92.2684L204.869 91.8221L204.866 91.7576L204.871 91.6942L204.912 91.1941L204.938 90.8885L205.129 90.6502L205.141 90.6345L205.014 90.3601L205.07 90.1384L204.579 89.8152L204.665 89.1911L204.686 89.0397L204.662 89.0124L204.171 88.5378L203.993 88.1246L203.772 87.9684L203.631 87.8688L203.531 87.7291L203.051 87.0494L203.046 86.7398L203.044 86.6041L202.984 86.5572L202.853 86.4537L202.762 86.314L202.48 85.8755L202.475 85.8677L202.241 85.4976L201.936 85.1587L201.805 85.0132L201.559 84.3334L201.47 84.0854L201.502 83.8891L201.188 83.7035L201.08 83.3119L200.907 82.6791L200.905 82.5492L200.9 81.9964V81.9935L200.9 81.9036L200.508 81.5687L200.384 80.8225L200.219 80.4641L200.213 80.4495L200.206 80.4348L199.882 79.6652L199.941 79.3645L199.964 79.2502L199.723 78.9426L199.591 77.8878L199.689 77.6476L199.695 77.63L199.389 77.2696L199.483 76.796L199.525 76.5899L199.434 76.4131L199.301 76.1534L199.378 75.331L199.379 75.3144L199.382 75.2978L199.42 75.0049L199.32 74.7382L199.321 74.7373L199.011 73.9091L199.123 73.5732L199.174 73.4218L199.111 73.2977L199.023 73.12L199.01 72.9218L198.985 72.5545L198.975 72.4969C198.883 71.9525 199.25 71.4358 199.794 71.3435Z" fill="white"/>
<path fill-rule="evenodd" clip-rule="evenodd" d="M1.97275 0.00313207C2.52306 0.0465937 2.93379 0.528095 2.89077 1.07838L2.86537 1.40554L2.75111 1.60282L2.68861 1.70927L2.70228 1.83135L2.83412 2.29719L2.90932 2.56185L2.83901 2.82749L2.70423 3.33337L2.6847 3.4076L2.65345 3.47791L2.47864 3.87539L2.45618 3.99161L2.5636 4.26115L2.71693 4.64789L2.55188 5.02877L2.39172 5.395L2.36047 5.68114L2.38 6.07765L2.44641 6.56107L2.50305 6.96832L2.25597 7.29744L2.08995 7.51913L2.0919 7.57382L2.22179 8.04943L2.23155 8.11583L2.33215 8.87075L2.25499 9.0944L2.21691 9.2028L2.28624 9.33074L2.54309 9.81025L2.28039 10.2868L2.21593 10.4021L2.24327 10.4675L2.3214 10.655L2.31945 10.8591L2.31554 11.1883L2.4425 11.5086L2.51868 11.7019L2.49524 12.3319L2.56556 12.7225L2.6681 13.1903L2.71888 13.3602L2.94155 13.5399L3.32145 13.8456L3.31462 14.3329L3.31169 14.4882L3.40153 14.579L3.53533 14.7148L3.60955 14.8896L3.81464 15.3701L3.86054 15.4795L3.90351 15.7402L4.01778 15.8193L4.02461 15.8242L4.03047 15.8281L4.47288 16.1445L4.72289 16.3242L4.88794 16.7725L5.04419 16.8585L5.1565 16.92L5.25026 17.0079L5.62528 17.3604L5.74345 17.4718L5.8206 17.6134L5.9876 17.9239L6.24152 18.1437L6.42414 18.3009L6.51008 18.5128L6.54817 18.5177L6.88803 18.5587L7.49939 19.1623L7.76894 19.4172L8.11466 19.6096L8.23869 19.6779L8.62152 20.0608L8.95747 20.26L9.07466 20.3293L9.1694 20.428L9.5366 20.8127L9.57274 20.8499L9.60399 20.8899L9.76024 21.0921L9.88134 21.1331L10.3374 21.1858L10.7427 21.2317L11.0005 21.5481L11.0748 21.6399L11.2086 21.6487L11.5426 21.6692L12.1647 22.2005L12.3873 22.3568L13.0915 22.5101L13.3161 22.8226L13.5241 23.1127L13.8278 23.0922L14.0515 23.0756L14.741 23.3402L15.3347 23.5521L15.4441 23.6273L15.8826 23.932L15.9256 23.9623L15.9656 23.9965L16.117 24.1264L16.3094 24.1322L16.3621 24.1332L16.4383 24.0258L16.5399 23.7025L16.6034 23.4506L16.4686 22.7728L16.6004 22.4808L16.7704 22.1019L16.9217 21.3821L17.1493 21.1673L17.3749 20.9524L17.452 20.7043L17.5223 20.4739L18.0048 19.9768L18.247 19.6135L18.4013 19.3879L18.4482 19.048L18.4863 18.7775L18.6552 18.5636L18.9814 18.1534L19.1269 17.9689L19.3408 17.8692L19.6748 17.712L19.9043 17.4766L19.958 17.421L20.0186 17.3741L20.3975 17.088L20.7608 16.7666L20.8799 16.6602L21.7227 16.2949L21.9601 16.3096L22.1671 16.3213L22.3322 16.2071L22.4386 16.1328L22.5597 16.0889L23.0607 15.9063L23.3273 15.8086L23.6047 15.8652L24.093 15.9658L24.3645 15.9922L24.6731 15.8945L24.72 15.8799L24.7678 15.8691L25.1692 15.7832L25.7796 15.5029L26.0071 15.5058L26.6556 15.5156L27.3031 15.6894L27.3148 15.6924L27.3265 15.6963L27.5531 15.7627L27.7787 15.6914L28.0942 15.5908L28.4076 15.6992L28.5737 15.7559L28.7573 15.6846L28.9897 15.5937L29.2378 15.623L29.6821 15.6748L30.4361 15.6572L30.689 15.8125L30.8794 15.9297L31.066 15.9092L31.1675 15.8975L31.2701 15.9063L31.6754 15.9424L32.1158 15.8809L32.6334 15.8076L32.9889 16.1914L33.0651 16.2735L33.1354 16.2666L33.6852 16.21L34.0144 16.6299L34.0515 16.6231L34.8416 16.4668L35.1629 17.2042L35.2468 17.3975L35.3435 17.4327L35.6531 17.546L35.8348 17.8214L36.0164 18.0958L36.5301 18.4572L36.7293 18.9269L37.3778 19.3605L37.4706 20.3889L37.4823 20.5246L37.4579 20.6594L37.413 20.9026L37.5009 21.0921L37.6347 21.3821L37.5761 21.6946L37.5263 21.9622L37.62 22.2679L37.7294 22.6273L37.5751 22.9701L37.3553 23.4555L37.162 23.9135L37.1581 23.9233L37.1532 23.934L36.8348 24.643L36.6551 24.7915L36.2391 25.1342L36.0477 25.2925L35.8045 25.3432L35.4998 25.4048L35.2986 25.5767L35.2508 25.6167L35.199 25.6509L34.5437 26.0786L34.2898 26.0991L33.7673 26.1392L33.7683 26.1402L33.6296 26.1529L33.4675 26.3296L33.0299 26.8043L32.4176 26.6011L32.1022 26.4956L31.857 26.5464L31.8043 26.5581L31.7496 26.563L31.5767 26.5787L31.3697 26.7769L30.8667 27.2564L30.2417 26.9517L29.9507 26.8091L29.8608 26.8228L29.3218 27.0445L28.7641 27.0699L28.4282 27.1802L27.9691 27.3785L27.6908 27.4976L27.3929 27.443L26.9984 27.3697L26.6165 27.4058L26.4984 27.4166L26.3802 27.4L25.9192 27.3326L25.5481 27.3267L25.1155 27.3951L25.0159 27.4107L24.9153 27.4068L24.4826 27.3873L24.0539 27.4449L23.8967 27.4664L23.7414 27.4381L23.5851 27.4088L23.3801 27.5299L22.8683 27.8297L22.3595 27.524L22.0812 27.356L21.922 27.3541L21.4874 27.4312L21.3018 27.4635L20.6035 27.3228L20.5469 27.3111L20.4912 27.2935L20.2529 27.2154L19.9688 27.2818L19.415 27.4097L19.0214 26.9996L18.9414 26.9156L18.8847 26.9234L18.8007 26.9341L18.7158 26.9302L17.7108 26.8863L17.6425 26.7964L17.6181 27.0572L17.5917 27.3199L17.4403 27.5357L17.3964 27.5973L17.5155 27.9801L17.2714 28.776L17.2616 28.8073L17.2508 28.8376L17.0614 29.3376L16.9891 29.53L17.0526 29.7497L17.0555 29.7605L17.0585 29.7722L17.1971 30.2986L17.2645 30.5554L17.1962 30.8113L17.1004 31.1677L17.1219 31.5262L17.1307 31.6814L17.0926 31.8318L17.0028 32.1844L17.035 32.5321L17.037 32.5467L17.0379 32.5614L17.0624 32.9462L17.1942 33.3251L17.2684 33.5419L17.2421 33.7694L17.1796 34.2949L17.1756 34.3281L17.1258 34.6474L17.1981 34.8798L17.369 35.2695L17.5487 35.6182L17.8983 36.0371L17.9511 36.1465L18.1767 36.6114L18.2177 36.6944L18.2421 36.7852L18.2704 36.8926L18.4032 36.963L18.9082 37.2315L18.9335 37.8028L18.9375 37.8976L18.9531 37.9073L19.2783 38.1027L19.3926 38.464L19.3935 38.4669L19.4599 38.4835L19.7129 38.5451L19.9033 38.7228L20.2813 39.0734L20.3242 39.1134L20.6211 39.4631L21.2227 39.9084L21.3155 40.2405L21.3741 40.4534L21.7306 40.5247L22.0108 40.5803L22.5333 41.0706L23.1505 41.4768L23.3058 41.8441L23.3586 41.8567L23.7092 41.9378L23.9279 42.223L24.1731 42.5433L24.4065 42.7162L24.7961 42.9076L24.8752 42.9466C24.9764 42.9744 25.0753 43.018 25.1673 43.0795C25.6261 43.3865 25.7493 44.0072 25.4427 44.4663L24.3938 46.0347L23.6203 44.559L23.4455 44.4731L23.3635 44.433L23.2912 44.3793L22.8712 44.0688L22.757 43.9848L22.671 43.8725L22.5577 43.724L22.3605 43.6791L21.8634 43.5648L21.546 42.8158L21.3653 42.6976L21.293 42.6498L21.2296 42.5902L21.0587 42.429L20.583 42.3353L20.4248 42.2347L19.9805 41.9515L19.6562 41.7454L19.5537 41.3753L19.4785 41.1057L19.3398 41.0032L19.247 40.9348L19.1728 40.8469L18.8759 40.4983L18.7314 40.3635L17.8241 40.1418L17.6552 39.6047L17.5985 39.426L16.9862 39.0588L16.9627 38.5216L16.9598 38.4611L16.951 38.4572L16.5692 38.254L16.3367 37.4024L16.2049 37.129L15.9422 36.8145L15.8728 36.7305L15.823 36.6338L15.5818 36.169L15.5672 36.1397L15.5545 36.1104L15.3425 35.6289L15.3201 35.5771L15.3035 35.5225L15.1482 35.0195L15.0798 34.8007L15.115 34.5732L15.198 34.0263L15.2283 33.7626L15.0837 33.3427L15.0437 32.7176L14.9959 32.1981L14.9793 32.0262L15.0222 31.8582L15.116 31.4871L15.0945 31.1248L15.0847 30.9636L15.1267 30.8074L15.1951 30.5505L15.1306 30.3025L14.8855 29.4499L14.9998 29.1413L15.1882 28.6354L15.1902 28.6295L15.3689 28.1559L15.4217 27.984L15.3406 27.7223L15.1941 27.2525L15.4773 26.8502L15.6521 26.6001L15.6775 26.3433L15.6892 26.2261L15.7264 26.1167H15.7078L15.3513 26.1079L14.6999 25.5454L14.4157 25.3481L14.0495 25.2182L14.0378 25.2134L14.0251 25.2085L13.7497 25.102L13.3874 25.1294L13.1051 25.1499L12.1774 24.6674L12.0377 24.4731L11.9137 24.3012L11.7691 24.2699L11.5728 24.227L11.4088 24.1127L10.9781 23.8119L10.938 23.7836L10.9009 23.7523L10.7515 23.6244L10.5152 23.6107L10.0767 23.5834L9.80029 23.2426L9.70555 23.1263L9.54734 23.1088L9.43796 23.0961L9.33444 23.0609L8.54827 22.7904L8.36564 22.556L8.05215 22.1546L7.81874 21.9105L7.3822 21.6507L7.29333 21.5618L7.02281 21.2903L6.6888 21.1057L6.57845 21.0442L6.48567 20.9573L6.1087 20.6008L6.09307 20.5852L5.96807 20.4621L5.09888 20.3567L4.87817 19.8107L4.75121 19.4992L4.54124 19.3176L4.40354 19.1974L4.31564 19.0363L4.13692 18.7072L3.97285 18.5519L3.59979 18.3497L3.26969 18.1691L3.05777 17.5919L2.86635 17.4552L2.07041 16.9034L2.00107 16.4864L1.92685 16.043L1.84384 15.8477L1.29987 15.2969L1.30573 14.8779L1.3067 14.791L1.22174 14.7226L0.978564 14.5263L0.890669 14.2284L0.740271 13.7226L0.729528 13.6874L0.721715 13.6513L0.609405 13.1366L0.605498 13.119L0.602569 13.1014L0.508814 12.5848L0.490258 12.4793L0.505884 12.0486L0.313492 11.5613L0.314469 11.367L0.318375 11.0457L0.184579 10.7253L0 10.281L0.232433 9.86006L0.266615 9.79756L0.249036 9.76533L0.0419942 9.37957L0.184579 8.96646L0.2881 8.66762L0.258802 8.44984L0.100591 7.87559L0.0673861 6.88335L0.410176 6.4263L0.393574 6.31008L0.387714 6.26711L0.384784 6.22414L0.358416 5.70068L0.35451 5.61962L0.364276 5.53856L0.438498 4.87153L0.499048 4.73481L0.551785 4.61273L0.489282 4.45648L0.380878 4.184L0.437521 3.8959L0.537136 3.38318L0.558621 3.27478L0.603545 3.17321L0.793008 2.74057L0.835979 2.57845L0.755896 2.29914L0.734411 2.22101L0.724645 2.13996L0.664095 1.60673L0.626007 1.27663L0.793008 0.990485L0.922897 0.768795C1.03474 0.297403 1.4747 -0.0360996 1.97275 0.00313207ZM25.9065 17.6476L25.805 17.6944L25.6946 17.7179L25.2278 17.8165L24.5784 18.0235L24.3733 18.003L23.8459 17.9513L23.7941 17.9464L23.7424 17.9357L23.4797 17.8819L23.3654 17.923L23.0236 18.1612L22.7404 18.3575L22.3966 18.338L22.0802 18.3195L21.9689 18.3673L21.6934 18.6124L21.6641 18.6388L21.6329 18.6623L21.2862 18.924L20.9835 19.2355L20.8565 19.3674L20.6905 19.4445L20.4024 19.5793L20.3916 19.592L20.3506 19.8967L20.3174 20.1311L20.1836 20.3264L19.9033 20.7327L19.6201 21.1604L19.5693 21.2376L19.5049 21.304L19.2929 21.5208L19.2109 21.7903L19.1338 22.0423L18.9423 22.2239L18.7509 22.4036L18.707 22.6165L18.6845 22.723L18.6396 22.8226L18.5546 23.0091L18.6093 23.2806L18.6533 23.5014L18.5986 23.7201L18.4716 24.2231L18.4648 24.2514L18.456 24.2797L18.3935 24.475L18.6318 24.7895L18.7343 24.9253L19.1894 24.8686L19.6894 24.8051L20.0371 25.1694L20.0713 25.2046H20.0742L20.3447 25.1421L20.6094 25.228L21.0489 25.3716L21.3282 25.4282L21.672 25.3677L21.7638 25.352L21.8585 25.353L22.3771 25.3598L22.6476 25.3638L22.8791 25.5024L22.881 25.5034L22.8957 25.4956L23.216 25.3091L23.5803 25.3755L23.9426 25.4409L24.3948 25.3813L24.9006 25.4038L25.3196 25.3384L25.4046 25.3247L25.4905 25.3257L26.0755 25.3345L26.14 25.3442L26.5482 25.4028L27.0863 25.353L27.223 25.3774L27.4584 25.4204L27.683 25.3247L27.723 25.3081L27.7641 25.2944L28.269 25.1284L28.3989 25.0854L28.5356 25.0786L28.8823 25.062L29.2202 24.9243L29.3344 24.8774L30.2759 24.7436L30.4927 24.8491L30.6988 24.6538L31.5035 24.5766L31.9615 24.4838L32.2242 24.4291L32.4332 24.4985L32.6803 24.2328L33.0622 24.1977L33.5827 24.1488L33.5895 24.1479H33.5964L33.8776 24.1244L34.0476 24.0141L34.4031 23.7143L34.5974 23.5492L34.8474 23.4974L35.157 23.434L35.2019 23.3969L35.3191 23.1341L35.5232 22.6546L35.5281 22.6439L35.533 22.6322L35.5965 22.4896L35.4705 22.0765L35.5515 21.6409L35.4646 21.4524L35.3318 21.1653L35.3894 20.8528L35.4568 20.4817L35.3709 20.425L35.1238 20.259L35.0066 19.9856L34.9128 19.7648L34.7126 19.6252L34.5574 19.5158L34.4529 19.3576L34.3474 19.1984L34.1609 19.131L33.7585 18.9836L33.652 18.7414L33.1989 18.8322L32.82 18.3478L32.7926 18.3136L32.775 18.3156L32.278 18.3663L31.8766 17.9337L31.8395 17.9396L31.7252 17.9552L31.6109 17.9454L31.192 17.9073L30.4214 17.9972L30.1265 17.8146L29.8921 17.67L29.6645 17.6759L29.5942 17.6778L29.5239 17.67L29.2534 17.6378L28.9604 17.753L28.6186 17.8868L28.2709 17.7677L28.0688 17.6974L27.5765 17.8556L27.2816 17.7687L26.7699 17.6173L26.3773 17.5118L26.2054 17.5089L25.9065 17.6476Z" fill="white"/>
</svg>
