<svg width="38" height="47" viewBox="0 0 38 47" fill="none" xmlns="http://www.w3.org/2000/svg">
<path d="M2.91169 1.08633C2.95538 0.531777 2.54125 0.0468029 1.98669 0.00311156C1.43214 -0.0405798 0.947165 0.373557 0.903473 0.928112L1.90758 1.00722L2.91169 1.08633ZM1.89967 1.10763L2.77041 1.6139L2.88576 1.41552L2.90378 1.18674L1.89967 1.10763ZM1.66949 1.50353L0.798746 0.997267L0.630928 1.2859L0.668747 1.61763L1.66949 1.50353ZM1.73075 2.0409L0.730011 2.155L0.739312 2.23658L0.761704 2.31558L1.73075 2.0409ZM1.88584 2.58807L2.85917 2.84717L2.93037 2.57969L2.85489 2.31339L1.88584 2.58807ZM1.75004 3.09821L2.67241 3.50285L2.70347 3.43204L2.72336 3.35732L1.75004 3.09821ZM1.52983 3.60019L0.607457 3.19556L0.562677 3.29763L0.5413 3.40703L1.52983 3.60019ZM1.42891 4.11665L0.440383 3.92349L0.383696 4.21359L0.492769 4.48832L1.42891 4.11665ZM1.64596 4.66336L2.56977 5.06471L2.73658 4.68077L2.5821 4.29169L1.64596 4.66336ZM1.42605 5.16953L0.502251 4.76817L0.442056 4.90673L0.425155 5.05684L1.42605 5.16953ZM1.36737 5.69079L0.366469 5.5781L0.357297 5.65957L0.361421 5.74146L1.36737 5.69079ZM1.39391 6.21768L0.387962 6.26835L0.390153 6.31186L0.396094 6.35502L1.39391 6.21768ZM1.46654 6.74536L2.27252 7.34943L2.52081 7.01815L2.46436 6.60802L1.46654 6.74536ZM1.08618 7.25286L0.280206 6.64879L0.0675921 6.93247L0.0795332 7.28679L1.08618 7.25286ZM1.10392 7.77923L0.0972729 7.81315L0.101259 7.93143L0.132552 8.04556L1.10392 7.77923ZM1.2489 8.30799L2.2472 8.17419L2.23819 8.10702L2.22027 8.04166L1.2489 8.30799ZM1.31913 8.83196L2.27155 9.15966L2.34907 8.93434L2.31742 8.69817L1.31913 8.83196ZM1.13797 9.35849L0.185543 9.0308L0.0423351 9.44702L0.250516 9.83486L1.13797 9.35849ZM1.41478 9.87418L2.29708 10.36L2.56123 9.88032L2.30223 9.39781L1.41478 9.87418ZM1.11645 10.416L0.234144 9.93012L0.000451944 10.3545L0.186138 10.802L1.11645 10.416ZM1.32892 10.928L2.3361 10.9367L2.33787 10.7315L2.25922 10.542L1.32892 10.928ZM1.32435 11.4566L0.317164 11.4479L0.315472 11.6436L0.387222 11.8258L1.32435 11.4566ZM1.52262 11.9599L2.52923 11.9949L2.53651 11.7856L2.45974 11.5907L1.52262 11.9599ZM1.50397 12.4959L0.497359 12.4609L0.493606 12.5688L0.512808 12.675L1.50397 12.4959ZM1.5979 13.0156L0.606734 13.1947L0.609977 13.2127L0.613867 13.2305L1.5979 13.0156ZM1.71116 13.5342L0.727131 13.7491L0.735043 13.7854L0.745599 13.8209L1.71116 13.5342ZM1.86234 14.0434L0.896781 14.3301L0.986047 14.6308L1.23022 14.8276L1.86234 14.0434ZM2.33081 14.4211L3.33792 14.4357L3.34506 13.9449L2.96293 13.6369L2.33081 14.4211ZM2.3224 14.9992L1.31529 14.9845L1.30915 15.4063L1.60538 15.7065L2.3224 14.9992ZM2.70882 15.3909L3.63555 14.9963L3.56046 14.8199L3.42584 14.6835L2.70882 15.3909ZM2.91483 15.8747L3.90837 15.7093L3.88864 15.5907L3.84155 15.4802L2.91483 15.8747ZM3.00879 16.4391L2.01524 16.6045L2.08516 17.0246L2.43521 17.2671L3.00879 16.4391ZM3.47323 16.7609L4.05928 15.9417L4.05307 15.9373L4.0468 15.9329L3.47323 16.7609ZM3.91844 17.0794L4.86411 16.7327L4.75716 16.441L4.50449 16.2602L3.91844 17.0794ZM4.10798 17.5964L3.16232 17.9431L3.29288 18.2992L3.6259 18.4807L4.10798 17.5964ZM4.59811 17.8635L5.28806 17.1297L5.19379 17.0411L5.08019 16.9792L4.59811 17.8635ZM4.97595 18.2188L5.86186 17.7396L5.78445 17.5965L5.6659 17.485L4.97595 18.2188ZM5.23282 18.6936L4.3469 19.1729L4.43467 19.3351L4.57425 19.4557L5.23282 18.6936ZM5.62818 19.0353L6.56169 18.6571L6.47049 18.432L6.28674 18.2732L5.62818 19.0353ZM5.84647 19.5741L4.91296 19.9523L5.13586 20.5025L5.72514 20.574L5.84647 19.5741ZM6.47427 19.6503L7.18219 18.9338L6.93732 18.6918L6.5956 18.6504L6.47427 19.6503ZM6.84491 20.0165L6.13699 20.7329L6.14475 20.7406L6.15268 20.7481L6.84491 20.0165ZM7.22474 20.3758L6.53251 21.1075L6.62518 21.1952L6.73679 21.257L7.22474 20.3758ZM7.6852 20.6308L8.39774 19.9189L8.29738 19.8185L8.17315 19.7497L7.6852 20.6308ZM8.05821 21.0042L7.34567 21.7161L7.43511 21.8056L7.54391 21.8702L8.05821 21.0042ZM8.50734 21.2709L9.23518 20.5747L9.14001 20.4752L9.02164 20.4049L8.50734 21.2709ZM8.87761 21.658L9.67252 21.0394L9.64097 20.9989L9.60545 20.9617L8.87761 21.658ZM9.22046 22.0986L8.42555 22.7171L8.60956 22.9536L8.8929 23.051L9.22046 22.0986ZM9.7294 22.2736L9.40184 23.2261L9.5061 23.2619L9.61564 23.2744L9.7294 22.2736ZM10.2977 22.3382L11.0793 21.703L10.82 21.3838L10.4114 21.3374L10.2977 22.3382ZM10.6519 22.7741L9.87021 23.4093L10.149 23.7524L10.5903 23.7794L10.6519 22.7741ZM11.2274 22.8093L11.882 22.0438L11.6257 21.8246L11.289 21.804L11.2274 22.8093ZM11.6338 23.1568L10.9793 23.9223L11.0167 23.9544L11.0572 23.9826L11.6338 23.1568ZM12.0671 23.4593L11.4904 24.2851L11.656 24.4007L11.8533 24.4436L12.0671 23.4593ZM12.5928 23.5735L13.4112 22.9864L13.1853 22.6714L12.8065 22.5892L12.5928 23.5735ZM12.9428 24.0614L12.1243 24.6485L12.2646 24.8439L12.478 24.955L12.9428 24.0614ZM13.4103 24.3046L12.9455 25.1982L13.1987 25.3299L13.4834 25.3092L13.4103 24.3046ZM14.0004 24.2617L14.3626 23.3218L14.1522 23.2408L13.9274 23.2571L14.0004 24.2617ZM14.4881 24.4496L14.1259 25.3894L14.1381 25.3942L14.1505 25.3986L14.4881 24.4496ZM14.9805 24.6248L15.5545 23.7971L15.4443 23.7207L15.3181 23.6758L14.9805 24.6248ZM15.4227 24.9314L16.0805 24.1686L16.0403 24.134L15.9967 24.1037L15.4227 24.9314ZM15.847 25.2973L15.1893 26.0601L15.4613 26.2946L15.8204 26.3041L15.847 25.2973ZM16.3995 25.3119L16.8955 24.4353L16.6771 24.3116L16.4261 24.305L16.3995 25.3119ZM16.8643 25.5749L16.3683 26.4515L16.5091 26.5312L16.6677 26.5628L16.8643 25.5749ZM17.3825 25.678L17.1859 26.6659L17.372 26.7029L17.5588 26.6697L17.3825 25.678ZM17.9623 25.5749L18.7654 24.967L18.3932 24.4753L17.786 24.5833L17.9623 25.5749ZM18.3549 26.0935L17.5518 26.7014L17.8379 27.0792L18.3113 27.0998L18.3549 26.0935ZM18.8939 26.1168L18.8503 27.1231L18.9355 27.1268L19.0202 27.1161L18.8939 26.1168ZM19.4538 26.0461L20.1811 25.3493L19.8304 24.9833L19.3275 25.0468L19.4538 26.0461ZM19.8851 26.4963L19.1578 27.1931L19.5539 27.6065L20.1118 27.4777L19.8851 26.4963ZM20.4452 26.3669L20.757 25.4092L20.4911 25.3226L20.2185 25.3855L20.4452 26.3669ZM20.9501 26.5314L20.6383 27.4891L20.6939 27.5072L20.7511 27.5187L20.9501 26.5314ZM21.4673 26.6356L21.2684 27.623L21.4546 27.6605L21.6418 27.6276L21.4673 26.6356ZM22.0016 26.5416L22.0149 25.5345L21.9203 25.5333L21.8272 25.5496L22.0016 26.5416ZM22.5242 26.5485L23.0433 25.6854L22.8099 25.545L22.5375 25.5414L22.5242 26.5485ZM23.0389 26.8581L22.5198 27.7212L23.032 28.0293L23.5478 27.7273L23.0389 26.8581ZM23.5687 26.5479L23.7495 25.5571L23.3821 25.49L23.0598 25.6787L23.5687 26.5479ZM24.0921 26.6435L23.9113 27.6343L24.068 27.6629L24.2259 27.6418L24.0921 26.6435ZM24.6144 26.5735L24.6588 25.5672L24.5693 25.5633L24.4805 25.5752L24.6144 26.5735ZM25.1385 26.5966L25.094 27.6029L25.1953 27.6073L25.2955 27.5915L25.1385 26.5966ZM25.6584 26.5146L25.6731 25.5075L25.5867 25.5062L25.5014 25.5197L25.6584 26.5146ZM26.1829 26.5222L26.3274 25.5254L26.2628 25.516L26.1976 25.5151L26.1829 26.5222ZM26.7136 26.5991L26.5691 27.5959L26.688 27.6132L26.8075 27.6019L26.7136 26.5991ZM27.2357 26.5502L27.4184 25.5597L27.2809 25.5343L27.1417 25.5474L27.2357 26.5502ZM27.7724 26.6492L27.5896 27.6397L27.8894 27.695L28.1695 27.5748L27.7724 26.6492ZM28.2784 26.4321L27.9635 25.4753L27.9217 25.4891L27.8812 25.5065L28.2784 26.4321ZM28.7868 26.2648L28.7398 25.2587L28.6025 25.2651L28.472 25.308L28.7868 26.2648ZM29.3107 26.2403L29.3577 27.2464L29.5316 27.2383L29.6927 27.1723L29.3107 26.2403ZM29.8114 26.0351L29.6692 25.0379L29.5453 25.0556L29.4294 25.1031L29.8114 26.0351ZM30.3292 25.9612L30.7704 25.0558L30.4928 24.9205L30.1869 24.9641L30.3292 25.9612ZM30.8997 26.2393L30.4584 27.1447L31.0878 27.4515L31.5946 26.9684L30.8997 26.2393ZM31.3608 25.7999L31.2659 24.7971L30.9185 24.83L30.6659 25.0708L31.3608 25.7999ZM31.8826 25.7505L31.9775 26.7533L32.032 26.7481L32.0856 26.7371L31.8826 25.7505ZM32.3936 25.6454L32.7109 24.6894L32.4549 24.6045L32.1907 24.6588L32.3936 25.6454ZM32.967 25.8357L32.6497 26.7916L33.2667 26.9964L33.7074 26.5185L32.967 25.8357ZM33.393 25.3737L33.2992 24.3709L32.9145 24.4069L32.6526 24.6909L33.393 25.3737ZM33.917 25.3247L33.8375 24.3206L33.8304 24.3212L33.8232 24.3219L33.917 25.3247ZM34.4559 25.2821L34.5354 26.2861L34.7918 26.2658L35.007 26.1252L34.4559 25.2821ZM34.9006 24.9914L35.4517 25.8345L35.5039 25.8004L35.5515 25.76L34.9006 24.9914ZM35.3006 24.6527L35.0977 23.6661L34.8459 23.7179L34.6497 23.884L35.3006 24.6527ZM35.858 24.538L36.0609 25.5246L36.3062 25.4741L36.4993 25.3147L35.858 24.538ZM36.2767 24.1923L36.918 24.969L37.0992 24.8194L37.1955 24.605L36.2767 24.1923ZM36.5012 23.6925L37.42 24.1052L37.4245 24.095L37.4289 24.0848L36.5012 23.6925ZM36.7056 23.2091L35.7875 22.7947L35.7825 22.8057L35.7779 22.8168L36.7056 23.2091ZM36.9261 22.7205L37.8441 23.1348L38 22.7895L37.8896 22.4271L36.9261 22.7205ZM36.7605 22.1767L35.7704 21.9919L35.7252 22.2342L35.797 22.4701L36.7605 22.1767ZM36.8559 21.6657L37.846 21.8504L37.9049 21.5348L37.7703 21.2433L36.8559 21.6657ZM36.6335 21.1841L35.6428 21.0022L35.5851 21.3164L35.7191 21.6065L36.6335 21.1841ZM36.7361 20.6255L37.7267 20.8075L37.7516 20.6721L37.7392 20.5349L36.7361 20.6255ZM36.6858 20.0689L37.689 19.9783L37.6457 19.499L37.2456 19.2315L36.6858 20.0689ZM36.1847 19.7339L35.258 20.1285L35.3755 20.4045L35.6249 20.5712L36.1847 19.7339ZM35.9781 19.2487L36.9047 18.854L36.7921 18.5895L36.5567 18.4243L35.9781 19.2487ZM35.5404 18.9415L34.6999 19.4966L34.8053 19.6561L34.9617 19.7659L35.5404 18.9415ZM35.2515 18.5041L36.0919 17.949L35.9088 17.6717L35.5967 17.5579L35.2515 18.5041ZM34.7507 18.3214L33.8277 18.7245L34.0003 19.1198L34.4055 19.2676L34.7507 18.3214ZM34.4925 17.7301L35.4155 17.327L35.0911 16.5843L34.2962 16.7422L34.4925 17.7301ZM33.848 17.8582L33.055 18.4792L33.4368 18.9667L34.0442 18.8461L33.848 17.8582ZM33.4775 17.3851L34.2704 16.764L33.9272 16.3258L33.3734 16.3833L33.4775 17.3851ZM32.9062 17.4444L32.1676 18.1293L32.5098 18.4982L33.0102 18.4462L32.9062 17.4444ZM32.4865 16.9918L33.2251 16.307L32.8673 15.9212L32.3463 15.9944L32.4865 16.9918ZM31.9274 17.0704L31.8376 18.0736L31.9529 18.0839L32.0676 18.0678L31.9274 17.0704ZM31.4044 17.0236L31.4942 16.0204L31.3915 16.0112L31.2891 16.023L31.4044 17.0236ZM30.8705 17.0851L30.3421 17.9426L30.6392 18.1256L30.9858 18.0857L30.8705 17.0851ZM30.3805 16.7831L30.9089 15.9256L30.6545 15.7688L30.3558 15.7762L30.3805 16.7831ZM29.8525 16.796L29.736 17.7965L29.8064 17.8047L29.8772 17.8029L29.8525 16.796ZM29.3308 16.7353L29.4473 15.7348L29.1979 15.7058L28.964 15.7972L29.3308 16.7353ZM28.8014 16.9423L28.4734 17.8946L28.8235 18.0152L29.1682 17.8804L28.8014 16.9423ZM28.2834 16.7639L28.6113 15.8116L28.2957 15.7029L27.9777 15.8042L28.2834 16.7639ZM27.7627 16.9297L27.4775 17.8957L27.7739 17.9833L28.0684 17.8895L27.7627 16.9297ZM27.2374 16.7746L27.5227 15.8086L27.5107 15.8051L27.4987 15.8019L27.2374 16.7746ZM26.7065 16.632L26.9677 15.6593L26.8467 15.6268L26.7215 15.6249L26.7065 16.632ZM26.1789 16.6242L26.1938 15.6171L25.9648 15.6137L25.7568 15.7097L26.1789 16.6242ZM25.67 16.8591L25.8792 17.8443L25.9896 17.8209L26.0921 17.7736L25.67 16.8591ZM25.1548 16.9685L24.9456 15.9832L24.8971 15.9935L24.85 16.0085L25.1548 16.9685ZM24.6471 17.1297L24.5482 18.132L24.7545 18.1524L24.952 18.0897L24.6471 17.1297ZM24.1153 17.0772L23.913 18.0639L23.9643 18.0744L24.0164 18.0796L24.1153 17.0772ZM23.5719 16.9658L23.7742 15.9791L23.4946 15.9218L23.2264 16.0197L23.5719 16.9658ZM23.0669 17.1502L22.7214 16.204L22.5994 16.2486L22.4927 16.3226L23.0669 17.1502ZM22.6151 17.4636L22.5569 18.4692L22.9038 18.4892L23.1892 18.2912L22.6151 17.4636ZM22.059 17.4315L22.1172 16.4259L21.8781 16.4121L21.6584 16.5074L22.059 17.4315ZM21.5777 17.6401L21.1771 16.716L21.0297 16.7799L20.9095 16.8865L21.5777 17.6401ZM21.1806 17.9923L21.7877 18.796L21.8192 18.7721L21.8488 18.7459L21.1806 17.9923ZM20.7697 18.3026L20.1626 17.4989L20.1007 17.5457L20.0466 17.6014L20.7697 18.3026ZM20.4112 18.6723L20.8387 19.5843L21.0058 19.5059L21.1343 19.3735L20.4112 18.6723ZM19.9065 18.9088L19.4791 17.9968L19.2644 18.0974L19.1172 18.2831L19.9065 18.9088ZM19.5785 19.3226L18.7892 18.6969L18.6185 18.9123L18.5808 19.1846L19.5785 19.3226ZM19.4984 19.9016L20.3286 20.4719L20.4635 20.2756L20.4961 20.0397L19.4984 19.9016ZM19.2083 20.324L18.3781 19.7537L18.3738 19.7599L18.3696 19.7662L19.2083 20.324ZM18.922 20.7544L19.6446 21.4561L19.7093 21.3895L19.7607 21.3122L18.922 20.7544ZM18.5401 21.1478L17.8174 20.4461L17.6482 20.6204L17.5771 20.8526L18.5401 21.1478ZM18.3857 21.6516L19.078 22.3831L19.2709 22.2006L19.3487 21.9467L18.3857 21.6516ZM17.9642 22.0505L17.2718 21.3189L17.0428 21.5357L16.9783 21.8444L17.9642 22.0505ZM17.855 22.5725L18.7735 22.986L18.8185 22.886L18.841 22.7786L17.855 22.5725ZM17.6376 23.0555L16.7192 22.642L16.5868 22.9361L16.6498 23.2523L17.6376 23.0555ZM17.7549 23.6442L18.7318 23.8896L18.787 23.6697L18.7427 23.4475L17.7549 23.6442ZM17.6275 24.1517L18.5883 24.4537L18.5972 24.4256L18.6044 24.397L17.6275 24.1517ZM17.4702 24.652L18.291 25.2357L18.3833 25.106L18.431 24.9541L17.4702 24.652ZM17.151 25.1008L16.3302 24.5171L16.195 24.7072L16.1571 24.9374L17.151 25.1008ZM17.0653 25.6218L18.0531 25.8186L18.0564 25.8019L18.0592 25.7852L17.0653 25.6218ZM16.9631 26.1352L17.9154 26.4633L17.9376 26.3988L17.9509 26.3319L16.9631 26.1352ZM16.7925 26.6301L15.8403 26.302L15.8016 26.4143L15.7901 26.5325L16.7925 26.6301ZM16.7416 27.1532L17.5654 27.7327L17.7183 27.5154L17.7441 27.2509L16.7416 27.1532ZM16.412 27.6218L15.5882 27.0423L15.3031 27.4477L15.4502 27.9209L16.412 27.6218ZM16.5866 28.1831L17.5496 28.4782L17.6407 28.1809L17.5484 27.8839L16.5866 28.1831ZM16.4321 28.6873L17.3741 29.0437L17.3856 29.0134L17.3951 28.9824L16.4321 28.6873ZM16.2413 29.1913L15.2993 28.8348L15.2972 28.8405L16.2413 29.1913ZM16.0519 29.7011L15.1078 29.3503L14.9924 29.6609L15.0839 29.9793L16.0519 29.7011ZM16.2071 30.241L17.1813 29.9851L17.1783 29.9739L17.1751 29.9628L16.2071 30.241ZM16.3465 30.772L17.3195 31.0323L17.3885 30.7744L17.3207 30.5161L16.3465 30.772ZM16.2083 31.2884L15.2353 31.0281L15.1933 31.1854L15.2029 31.3479L16.2083 31.2884ZM16.2393 31.8115L17.2154 32.0599L17.254 31.9082L17.2448 31.752L16.2393 31.8115ZM16.106 32.3352L15.1299 32.0868L15.087 32.2554L15.1031 32.4287L16.106 32.3352ZM16.1548 32.8585L17.16 32.7945L17.1591 32.7797L17.1577 32.765L16.1548 32.8585ZM16.1881 33.3813L15.1829 33.4453L15.1916 33.5816L15.2363 33.7107L16.1881 33.3813ZM16.3653 33.8933L17.3656 34.0112L17.3926 33.782L17.3171 33.5639L16.3653 33.8933ZM16.303 34.4223L17.2987 34.5742L17.3012 34.5572L17.3033 34.5402L16.303 34.4223ZM16.2189 34.9732L15.2232 34.8213L15.1884 35.0498L15.2566 35.2706L16.2189 34.9732ZM16.3754 35.4796L15.4131 35.777L15.43 35.8317L15.453 35.8842L16.3754 35.4796ZM16.5883 35.9649L15.6659 36.3694L15.6789 36.3991L15.6938 36.4279L16.5883 35.9649ZM16.8309 36.4336L15.9364 36.8966L15.9867 36.9938L16.0568 37.078L16.8309 36.4336ZM17.1737 36.8454L18.0798 36.4055L18.0262 36.2952L17.9478 36.201L17.1737 36.8454ZM17.4008 37.3132L18.3726 37.0484L18.3479 36.9578L18.3069 36.8733L17.4008 37.3132ZM17.545 37.8427L16.5732 38.1074L16.6878 38.528L17.0728 38.7324L17.545 37.8427ZM18.0627 38.1174L19.0689 38.0736L19.0439 37.4979L18.5348 37.2278L18.0627 38.1174ZM18.0904 38.7536L17.0841 38.7974L17.1076 39.3383L17.5718 39.6171L18.0904 38.7536ZM18.5709 39.0422L19.5316 38.7396L19.4169 38.3753L19.0895 38.1787L18.5709 39.0422ZM18.7422 39.5863L17.7815 39.8888L17.9519 40.4298L18.5028 40.5646L18.7422 39.5863ZM19.3604 39.7375L20.0463 38.9999L19.8544 38.8215L19.5998 38.7592L19.3604 39.7375ZM19.7405 40.0909L20.508 39.4387L20.4697 39.3936L20.4264 39.3533L19.7405 40.0909ZM20.0775 40.4875L19.31 41.1398L19.3853 41.2283L19.4787 41.2974L20.0775 40.4875ZM20.4973 40.7979L21.4679 40.5288L21.3752 40.1943L21.0961 39.988L20.4973 40.7979ZM20.6649 41.4026L19.6943 41.6716L19.7976 42.0443L20.1238 42.2521L20.6649 41.4026ZM21.1126 41.6877L20.5714 42.5372L20.7306 42.6387L20.9158 42.6755L21.1126 41.6877ZM21.6895 41.8027L22.3792 41.0686L22.1691 40.8712L21.8863 40.8148L21.6895 41.8027ZM22.0711 42.1613L21.3814 42.8953L21.4453 42.9553L21.5186 43.0034L22.0711 42.1613ZM22.5086 42.4483L23.4359 42.0551L23.3166 41.7738L23.0612 41.6062L22.5086 42.4483ZM22.7472 43.0109L21.8199 43.4041L22.0204 43.877L22.5209 43.9924L22.7472 43.0109ZM23.2994 43.1382L24.0992 42.526L23.8789 42.2382L23.5257 42.1568L23.2994 43.1382ZM23.6336 43.575L22.8338 44.1871L22.9205 44.3004L23.0351 44.3851L23.6336 43.575ZM24.0564 43.8873L23.4579 44.6974L23.5313 44.7516L23.6133 44.7918L24.0564 43.8873ZM24.5308 44.1197L25.4234 43.6529L25.2704 43.3604L24.9739 43.2152L24.5308 44.1197ZM24.6746 44.3945L23.782 44.8613L24.5684 46.3648L25.5118 44.9545L24.6746 44.3945ZM25.6249 44.7853C25.9342 44.3229 25.8101 43.6974 25.3477 43.3881C24.8853 43.0788 24.2598 43.2029 23.9505 43.6653L24.7877 44.2253L25.6249 44.7853ZM1.90758 1.00722L0.903473 0.928112L0.895562 1.02852L1.89967 1.10763L2.90378 1.18674L2.91169 1.08633L1.90758 1.00722ZM1.89967 1.10763L1.02893 0.601365L0.798746 0.997267L1.66949 1.50353L2.54023 2.0098L2.77041 1.6139L1.89967 1.10763ZM1.66949 1.50353L0.668747 1.61763L0.730011 2.155L1.73075 2.0409L2.73149 1.92681L2.67023 1.38944L1.66949 1.50353ZM1.73075 2.0409L0.761704 2.31558L0.916796 2.86274L1.88584 2.58807L2.85489 2.31339L2.6998 1.76623L1.73075 2.0409ZM1.88584 2.58807L0.912517 2.32897L0.776715 2.83911L1.75004 3.09821L2.72336 3.35732L2.85917 2.84717L1.88584 2.58807ZM1.75004 3.09821L0.82767 2.69358L0.607457 3.19556L1.52983 3.60019L2.4522 4.00483L2.67241 3.50285L1.75004 3.09821ZM1.52983 3.60019L0.5413 3.40703L0.440383 3.92349L1.42891 4.11665L2.41744 4.30981L2.51835 3.79335L1.52983 3.60019ZM1.42891 4.11665L0.492769 4.48832L0.709823 5.03503L1.64596 4.66336L2.5821 4.29169L2.36505 3.74498L1.42891 4.11665ZM1.64596 4.66336L0.722162 4.262L0.502251 4.76817L1.42605 5.16953L2.34986 5.57088L2.56977 5.06471L1.64596 4.66336ZM1.42605 5.16953L0.425155 5.05684L0.366469 5.5781L1.36737 5.69079L2.36827 5.80347L2.42695 5.28221L1.42605 5.16953ZM1.36737 5.69079L0.361421 5.74146L0.387962 6.26835L1.39391 6.21768L2.39985 6.16701L2.37331 5.64011L1.36737 5.69079ZM1.39391 6.21768L0.396094 6.35502L0.468729 6.88271L1.46654 6.74536L2.46436 6.60802L2.39172 6.08033L1.39391 6.21768ZM1.46654 6.74536L0.660565 6.1413L0.280206 6.64879L1.08618 7.25286L1.89216 7.85693L2.27252 7.34943L1.46654 6.74536ZM1.08618 7.25286L0.0795332 7.28679L0.0972729 7.81315L1.10392 7.77923L2.11057 7.7453L2.09283 7.21893L1.08618 7.25286ZM1.10392 7.77923L0.132552 8.04556L0.277529 8.57432L1.2489 8.30799L2.22027 8.04166L2.07529 7.51289L1.10392 7.77923ZM1.2489 8.30799L0.250605 8.44179L0.32083 8.96576L1.31913 8.83196L2.31742 8.69817L2.2472 8.17419L1.2489 8.30799ZM1.31913 8.83196L0.366701 8.50427L0.185543 9.0308L1.13797 9.35849L2.09039 9.68618L2.27155 9.15966L1.31913 8.83196ZM1.13797 9.35849L0.250516 9.83486L0.527326 10.3505L1.41478 9.87418L2.30223 9.39781L2.02542 8.88213L1.13797 9.35849ZM1.41478 9.87418L0.532477 9.38834L0.234144 9.93012L1.11645 10.416L1.99875 10.9018L2.29708 10.36L1.41478 9.87418ZM1.11645 10.416L0.186138 10.802L0.398609 11.314L1.32892 10.928L2.25922 10.542L2.04675 10.0299L1.11645 10.416ZM1.32892 10.928L0.321732 10.9193L0.317164 11.4479L1.32435 11.4566L2.33153 11.4653L2.3361 10.9367L1.32892 10.928ZM1.32435 11.4566L0.387222 11.8258L0.58549 12.329L1.52262 11.9599L2.45974 11.5907L2.26147 11.0874L1.32435 11.4566ZM1.52262 11.9599L0.516003 11.9249L0.497359 12.4609L1.50397 12.4959L2.51059 12.5309L2.52923 11.9949L1.52262 11.9599ZM1.50397 12.4959L0.512808 12.675L0.606734 13.1947L1.5979 13.0156L2.58906 12.8365L2.49514 12.3168L1.50397 12.4959ZM1.5979 13.0156L0.613867 13.2305L0.727131 13.7491L1.71116 13.5342L2.69519 13.3194L2.58193 12.8007L1.5979 13.0156ZM1.71116 13.5342L0.745599 13.8209L0.896781 14.3301L1.86234 14.0434L2.82791 13.7568L2.67672 13.2476L1.71116 13.5342ZM1.86234 14.0434L1.23022 14.8276L1.69869 15.2052L2.33081 14.4211L2.96293 13.6369L2.49446 13.2593L1.86234 14.0434ZM2.33081 14.4211L1.32369 14.4064L1.31529 14.9845L2.3224 14.9992L3.32952 15.0138L3.33792 14.4357L2.33081 14.4211ZM2.3224 14.9992L1.60538 15.7065L1.99181 16.0982L2.70882 15.3909L3.42584 14.6835L3.03942 14.2918L2.3224 14.9992ZM2.70882 15.3909L1.7821 15.7854L1.9881 16.2693L2.91483 15.8747L3.84155 15.4802L3.63555 14.9963L2.70882 15.3909ZM2.91483 15.8747L1.92128 16.0401L2.01524 16.6045L3.00879 16.4391L4.00233 16.2737L3.90837 15.7093L2.91483 15.8747ZM3.00879 16.4391L2.43521 17.2671L2.89965 17.5888L3.47323 16.7609L4.0468 15.9329L3.58236 15.6112L3.00879 16.4391ZM3.47323 16.7609L2.88718 17.58L3.33239 17.8986L3.91844 17.0794L4.50449 16.2602L4.05928 15.9417L3.47323 16.7609ZM3.91844 17.0794L2.97278 17.4261L3.16232 17.9431L4.10798 17.5964L5.05365 17.2496L4.86411 16.7327L3.91844 17.0794ZM4.10798 17.5964L3.6259 18.4807L4.11603 18.7479L4.59811 17.8635L5.08019 16.9792L4.59006 16.712L4.10798 17.5964ZM4.59811 17.8635L3.90816 18.5973L4.286 18.9526L4.97595 18.2188L5.6659 17.485L5.28806 17.1297L4.59811 17.8635ZM4.97595 18.2188L4.09004 18.698L4.3469 19.1729L5.23282 18.6936L6.11873 18.2144L5.86186 17.7396L4.97595 18.2188ZM5.23282 18.6936L4.57425 19.4557L4.96961 19.7974L5.62818 19.0353L6.28674 18.2732L5.89138 17.9316L5.23282 18.6936ZM5.62818 19.0353L4.69467 19.4135L4.91296 19.9523L5.84647 19.5741L6.77998 19.1959L6.56169 18.6571L5.62818 19.0353ZM5.84647 19.5741L5.72514 20.574L6.35294 20.6501L6.47427 19.6503L6.5956 18.6504L5.9678 18.5742L5.84647 19.5741ZM6.47427 19.6503L5.76635 20.3667L6.13699 20.7329L6.84491 20.0165L7.55283 19.3L7.18219 18.9338L6.47427 19.6503ZM6.84491 20.0165L6.15268 20.7481L6.53251 21.1075L7.22474 20.3758L7.91697 19.6442L7.53714 19.2848L6.84491 20.0165ZM7.22474 20.3758L6.73679 21.257L7.19725 21.512L7.6852 20.6308L8.17315 19.7497L7.71269 19.4947L7.22474 20.3758ZM7.6852 20.6308L6.97266 21.3427L7.34567 21.7161L8.05821 21.0042L8.77076 20.2923L8.39774 19.9189L7.6852 20.6308ZM8.05821 21.0042L7.54391 21.8702L7.99303 22.1369L8.50734 21.2709L9.02164 20.4049L8.57252 20.1382L8.05821 21.0042ZM8.50734 21.2709L7.7795 21.9671L8.14978 22.3542L8.87761 21.658L9.60545 20.9617L9.23518 20.5747L8.50734 21.2709ZM8.87761 21.658L8.08271 22.2765L8.42555 22.7171L9.22046 22.0986L10.0154 21.48L9.67252 21.0394L8.87761 21.658ZM9.22046 22.0986L8.8929 23.051L9.40184 23.2261L9.7294 22.2736L10.057 21.3211L9.54801 21.1461L9.22046 22.0986ZM9.7294 22.2736L9.61564 23.2744L10.1839 23.339L10.2977 22.3382L10.4114 21.3374L9.84316 21.2728L9.7294 22.2736ZM10.2977 22.3382L9.51598 22.9734L9.87021 23.4093L10.6519 22.7741L11.4335 22.1389L11.0793 21.703L10.2977 22.3382ZM10.6519 22.7741L10.5903 23.7794L11.1659 23.8147L11.2274 22.8093L11.289 21.804L10.7134 21.7687L10.6519 22.7741ZM11.2274 22.8093L10.5729 23.5748L10.9793 23.9223L11.6338 23.1568L12.2884 22.3913L11.882 22.0438L11.2274 22.8093ZM11.6338 23.1568L11.0572 23.9826L11.4904 24.2851L12.0671 23.4593L12.6437 22.6335L12.2105 22.331L11.6338 23.1568ZM12.0671 23.4593L11.8533 24.4436L12.379 24.5577L12.5928 23.5735L12.8065 22.5892L12.2808 22.475L12.0671 23.4593ZM12.5928 23.5735L11.7743 24.1606L12.1243 24.6485L12.9428 24.0614L13.7612 23.4743L13.4112 22.9864L12.5928 23.5735ZM12.9428 24.0614L12.478 24.955L12.9455 25.1982L13.4103 24.3046L13.8751 23.411L13.4076 23.1678L12.9428 24.0614ZM13.4103 24.3046L13.4834 25.3092L14.0735 25.2662L14.0004 24.2617L13.9274 23.2571L13.3372 23.3L13.4103 24.3046ZM14.0004 24.2617L13.6382 25.2015L14.1259 25.3894L14.4881 24.4496L14.8502 23.5097L14.3626 23.3218L14.0004 24.2617ZM14.4881 24.4496L14.1505 25.3986L14.643 25.5737L14.9805 24.6248L15.3181 23.6758L14.8256 23.5006L14.4881 24.4496ZM14.9805 24.6248L14.4066 25.4524L14.8488 25.7591L15.4227 24.9314L15.9967 24.1037L15.5545 23.7971L14.9805 24.6248ZM15.4227 24.9314L14.765 25.6942L15.1893 26.0601L15.847 25.2973L16.5047 24.5344L16.0805 24.1686L15.4227 24.9314ZM15.847 25.2973L15.8204 26.3041L16.3728 26.3187L16.3995 25.3119L16.4261 24.305L15.8737 24.2904L15.847 25.2973ZM16.3995 25.3119L15.9034 26.1885L16.3683 26.4515L16.8643 25.5749L17.3604 24.6983L16.8955 24.4353L16.3995 25.3119ZM16.8643 25.5749L16.6677 26.5628L17.1859 26.6659L17.3825 25.678L17.579 24.6902L17.0609 24.5871L16.8643 25.5749ZM17.3825 25.678L17.5588 26.6697L18.1387 26.5666L17.9623 25.5749L17.786 24.5833L17.2062 24.6864L17.3825 25.678ZM17.9623 25.5749L17.1593 26.1829L17.5518 26.7014L18.3549 26.0935L19.158 25.4856L18.7654 24.967L17.9623 25.5749ZM18.3549 26.0935L18.3113 27.0998L18.8503 27.1231L18.8939 26.1168L18.9375 25.1106L18.3985 25.0872L18.3549 26.0935ZM18.8939 26.1168L19.0202 27.1161L19.5801 27.0454L19.4538 26.0461L19.3275 25.0468L18.7676 25.1176L18.8939 26.1168ZM19.4538 26.0461L18.7265 26.7429L19.1578 27.1931L19.8851 26.4963L20.6124 25.7994L20.1811 25.3493L19.4538 26.0461ZM19.8851 26.4963L20.1118 27.4777L20.6718 27.3483L20.4452 26.3669L20.2185 25.3855L19.6585 25.5149L19.8851 26.4963ZM20.4452 26.3669L20.1333 27.3247L20.6383 27.4891L20.9501 26.5314L21.262 25.5736L20.757 25.4092L20.4452 26.3669ZM20.9501 26.5314L20.7511 27.5187L21.2684 27.623L21.4673 26.6356L21.6663 25.6482L21.1491 25.544L20.9501 26.5314ZM21.4673 26.6356L21.6418 27.6276L22.1761 27.5337L22.0016 26.5416L21.8272 25.5496L21.2929 25.6436L21.4673 26.6356ZM22.0016 26.5416L21.9884 27.5488L22.511 27.5557L22.5242 26.5485L22.5375 25.5414L22.0149 25.5345L22.0016 26.5416ZM22.5242 26.5485L22.0052 27.4117L22.5198 27.7212L23.0389 26.8581L23.558 25.9949L23.0433 25.6854L22.5242 26.5485ZM23.0389 26.8581L23.5478 27.7273L24.0776 27.4171L23.5687 26.5479L23.0598 25.6787L22.53 25.9889L23.0389 26.8581ZM23.5687 26.5479L23.3878 27.5388L23.9113 27.6343L24.0921 26.6435L24.273 25.6526L23.7495 25.5571L23.5687 26.5479ZM24.0921 26.6435L24.2259 27.6418L24.7482 27.5717L24.6144 26.5735L24.4805 25.5752L23.9583 25.6452L24.0921 26.6435ZM24.6144 26.5735L24.5699 27.5797L25.094 27.6029L25.1385 26.5966L25.1829 25.5904L24.6588 25.5672L24.6144 26.5735ZM25.1385 26.5966L25.2955 27.5915L25.8154 27.5095L25.6584 26.5146L25.5014 25.5197L24.9815 25.6017L25.1385 26.5966ZM25.6584 26.5146L25.6438 27.5217L26.1682 27.5293L26.1829 26.5222L26.1976 25.5151L25.6731 25.5075L25.6584 26.5146ZM26.1829 26.5222L26.0384 27.519L26.5691 27.5959L26.7136 26.5991L26.858 25.6023L26.3274 25.5254L26.1829 26.5222ZM26.7136 26.5991L26.8075 27.6019L27.3297 27.553L27.2357 26.5502L27.1417 25.5474L26.6196 25.5963L26.7136 26.5991ZM27.2357 26.5502L27.0529 27.5407L27.5896 27.6397L27.7724 26.6492L27.9551 25.6587L27.4184 25.5597L27.2357 26.5502ZM27.7724 26.6492L28.1695 27.5748L28.6755 27.3577L28.2784 26.4321L27.8812 25.5065L27.3752 25.7236L27.7724 26.6492ZM28.2784 26.4321L28.5932 27.3889L29.1016 27.2216L28.7868 26.2648L28.472 25.308L27.9635 25.4753L28.2784 26.4321ZM28.7868 26.2648L28.8338 27.2709L29.3577 27.2464L29.3107 26.2403L29.2637 25.2342L28.7398 25.2587L28.7868 26.2648ZM29.3107 26.2403L29.6927 27.1723L30.1934 26.967L29.8114 26.0351L29.4294 25.1031L28.9287 25.3083L29.3107 26.2403ZM29.8114 26.0351L29.9537 27.0322L30.4714 26.9584L30.3292 25.9612L30.1869 24.9641L29.6692 25.0379L29.8114 26.0351ZM30.3292 25.9612L29.8879 26.8666L30.4584 27.1447L30.8997 26.2393L31.341 25.3339L30.7704 25.0558L30.3292 25.9612ZM30.8997 26.2393L31.5946 26.9684L32.0557 26.529L31.3608 25.7999L30.6659 25.0708L30.2048 25.5102L30.8997 26.2393ZM31.3608 25.7999L31.4556 26.8026L31.9775 26.7533L31.8826 25.7505L31.7877 24.7478L31.2659 24.7971L31.3608 25.7999ZM31.8826 25.7505L32.0856 26.7371L32.5966 26.6319L32.3936 25.6454L32.1907 24.6588L31.6797 24.764L31.8826 25.7505ZM32.3936 25.6454L32.0764 26.6013L32.6497 26.7916L32.967 25.8357L33.2842 24.8797L32.7109 24.6894L32.3936 25.6454ZM32.967 25.8357L33.7074 26.5185L34.1334 26.0566L33.393 25.3737L32.6526 24.6909L32.2265 25.1528L32.967 25.8357ZM33.393 25.3737L33.4868 26.3766L34.0108 26.3276L33.917 25.3247L33.8232 24.3219L33.2992 24.3709L33.393 25.3737ZM33.917 25.3247L33.9965 26.3288L34.5354 26.2861L34.4559 25.2821L34.3765 24.278L33.8375 24.3206L33.917 25.3247ZM34.4559 25.2821L35.007 26.1252L35.4517 25.8345L34.9006 24.9914L34.3496 24.1483L33.9049 24.439L34.4559 25.2821ZM34.9006 24.9914L35.5515 25.76L35.9515 25.4213L35.3006 24.6527L34.6497 23.884L34.2497 24.2227L34.9006 24.9914ZM35.3006 24.6527L35.5036 25.6392L36.0609 25.5246L35.858 24.538L35.655 23.5515L35.0977 23.6661L35.3006 24.6527ZM35.858 24.538L36.4993 25.3147L36.918 24.969L36.2767 24.1923L35.6354 23.4156L35.2167 23.7613L35.858 24.538ZM36.2767 24.1923L37.1955 24.605L37.42 24.1052L36.5012 23.6925L35.5824 23.2798L35.3579 23.7796L36.2767 24.1923ZM36.5012 23.6925L37.4289 24.0848L37.6333 23.6013L36.7056 23.2091L35.7779 22.8168L35.5734 23.3003L36.5012 23.6925ZM36.7056 23.2091L37.6236 23.6234L37.8441 23.1348L36.9261 22.7205L36.008 22.3061L35.7875 22.7947L36.7056 23.2091ZM36.9261 22.7205L37.8896 22.4271L37.7241 21.8833L36.7605 22.1767L35.797 22.4701L35.9625 23.0138L36.9261 22.7205ZM36.7605 22.1767L37.7507 22.3615L37.846 21.8504L36.8559 21.6657L35.8658 21.4809L35.7704 21.9919L36.7605 22.1767ZM36.8559 21.6657L37.7703 21.2433L37.5479 20.7618L36.6335 21.1841L35.7191 21.6065L35.9415 22.088L36.8559 21.6657ZM36.6335 21.1841L37.6241 21.3661L37.7267 20.8075L36.7361 20.6255L35.7454 20.4436L35.6428 21.0022L36.6335 21.1841ZM36.7361 20.6255L37.7392 20.5349L37.689 19.9783L36.6858 20.0689L35.6827 20.1594L35.7329 20.7161L36.7361 20.6255ZM36.6858 20.0689L37.2456 19.2315L36.7444 18.8965L36.1847 19.7339L35.6249 20.5712L36.1261 20.9062L36.6858 20.0689ZM36.1847 19.7339L37.1114 19.3392L36.9047 18.854L35.9781 19.2487L35.0514 19.6433L35.258 20.1285L36.1847 19.7339ZM35.9781 19.2487L36.5567 18.4243L36.119 18.1171L35.5404 18.9415L34.9617 19.7659L35.3994 20.0731L35.9781 19.2487ZM35.5404 18.9415L36.3808 18.3863L36.0919 17.949L35.2515 18.5041L34.4111 19.0592L34.6999 19.4966L35.5404 18.9415ZM35.2515 18.5041L35.5967 17.5579L35.0959 17.3752L34.7507 18.3214L34.4055 19.2676L34.9063 19.4503L35.2515 18.5041ZM34.7507 18.3214L35.6737 17.9183L35.4155 17.327L34.4925 17.7301L33.5694 18.1333L33.8277 18.7245L34.7507 18.3214ZM34.4925 17.7301L34.2962 16.7422L33.6517 16.8703L33.848 17.8582L34.0442 18.8461L34.6887 18.7181L34.4925 17.7301ZM33.848 17.8582L34.6409 17.2371L34.2704 16.764L33.4775 17.3851L32.6845 18.0061L33.055 18.4792L33.848 17.8582ZM33.4775 17.3851L33.3734 16.3833L32.8022 16.4426L32.9062 17.4444L33.0102 18.4462L33.5815 18.3869L33.4775 17.3851ZM32.9062 17.4444L33.6448 16.7596L33.2251 16.307L32.4865 16.9918L31.748 17.6767L32.1676 18.1293L32.9062 17.4444ZM32.4865 16.9918L32.3463 15.9944L31.7872 16.073L31.9274 17.0704L32.0676 18.0678L32.6267 17.9892L32.4865 16.9918ZM31.9274 17.0704L32.0172 16.0672L31.4942 16.0204L31.4044 17.0236L31.3146 18.0268L31.8376 18.0736L31.9274 17.0704ZM31.4044 17.0236L31.2891 16.023L30.7553 16.0845L30.8705 17.0851L30.9858 18.0857L31.5197 18.0242L31.4044 17.0236ZM30.8705 17.0851L31.3989 16.2276L30.9089 15.9256L30.3805 16.7831L29.8521 17.6406L30.3421 17.9426L30.8705 17.0851ZM30.3805 16.7831L30.3558 15.7762L29.8278 15.7891L29.8525 16.796L29.8772 17.8029L30.4052 17.79L30.3805 16.7831ZM29.8525 16.796L29.969 15.7955L29.4473 15.7348L29.3308 16.7353L29.2143 17.7357L29.736 17.7965L29.8525 16.796ZM29.3308 16.7353L28.964 15.7972L28.4346 16.0043L28.8014 16.9423L29.1682 17.8804L29.6976 17.6733L29.3308 16.7353ZM28.8014 16.9423L29.1294 15.99L28.6113 15.8116L28.2834 16.7639L27.9554 17.7162L28.4734 17.8946L28.8014 16.9423ZM28.2834 16.7639L27.9777 15.8042L27.457 15.97L27.7627 16.9297L28.0684 17.8895L28.5891 17.7236L28.2834 16.7639ZM27.7627 16.9297L28.048 15.9638L27.5227 15.8086L27.2374 16.7746L26.9522 17.7406L27.4775 17.8957L27.7627 16.9297ZM27.2374 16.7746L27.4987 15.8019L26.9677 15.6593L26.7065 16.632L26.4453 17.6048L26.9762 17.7474L27.2374 16.7746ZM26.7065 16.632L26.7215 15.6249L26.1938 15.6171L26.1789 16.6242L26.1639 17.6313L26.6915 17.6391L26.7065 16.632ZM26.1789 16.6242L25.7568 15.7097L25.2479 15.9446L25.67 16.8591L26.0921 17.7736L26.601 17.5387L26.1789 16.6242ZM25.67 16.8591L25.4607 15.8738L24.9456 15.9832L25.1548 16.9685L25.364 17.9537L25.8792 17.8443L25.67 16.8591ZM25.1548 16.9685L24.85 16.0085L24.3423 16.1697L24.6471 17.1297L24.952 18.0897L25.4596 17.9285L25.1548 16.9685ZM24.6471 17.1297L24.746 16.1273L24.2142 16.0749L24.1153 17.0772L24.0164 18.0796L24.5482 18.132L24.6471 17.1297ZM24.1153 17.0772L24.3176 16.0905L23.7742 15.9791L23.5719 16.9658L23.3696 17.9525L23.913 18.0639L24.1153 17.0772ZM23.5719 16.9658L23.2264 16.0197L22.7214 16.204L23.0669 17.1502L23.4123 18.0963L23.9173 17.9119L23.5719 16.9658ZM23.0669 17.1502L22.4927 16.3226L22.0409 16.6361L22.6151 17.4636L23.1892 18.2912L23.641 17.9777L23.0669 17.1502ZM22.6151 17.4636L22.6732 16.4581L22.1172 16.4259L22.059 17.4315L22.0009 18.437L22.5569 18.4692L22.6151 17.4636ZM22.059 17.4315L21.6584 16.5074L21.1771 16.716L21.5777 17.6401L21.9784 18.5642L22.4597 18.3556L22.059 17.4315ZM21.5777 17.6401L20.9095 16.8865L20.5124 17.2386L21.1806 17.9923L21.8488 18.7459L22.246 18.3938L21.5777 17.6401ZM21.1806 17.9923L20.5735 17.1885L20.1626 17.4989L20.7697 18.3026L21.3767 19.1064L21.7877 18.796L21.1806 17.9923ZM20.7697 18.3026L20.0466 17.6014L19.6882 17.971L20.4112 18.6723L21.1343 19.3735L21.4927 19.0039L20.7697 18.3026ZM20.4112 18.6723L19.9837 17.7602L19.4791 17.9968L19.9065 18.9088L20.334 19.8208L20.8387 19.5843L20.4112 18.6723ZM19.9065 18.9088L19.1172 18.2831L18.7892 18.6969L19.5785 19.3226L20.3678 19.9483L20.6959 19.5345L19.9065 18.9088ZM19.5785 19.3226L18.5808 19.1846L18.5007 19.7636L19.4984 19.9016L20.4961 20.0397L20.5762 19.4606L19.5785 19.3226ZM19.4984 19.9016L18.6682 19.3313L18.3781 19.7537L19.2083 20.324L20.0385 20.8943L20.3286 20.4719L19.4984 19.9016ZM19.2083 20.324L18.3696 19.7662L18.0833 20.1966L18.922 20.7544L19.7607 21.3122L20.047 20.8818L19.2083 20.324ZM18.922 20.7544L18.1994 20.0528L17.8174 20.4461L18.5401 21.1478L19.2627 21.8495L19.6446 21.4561L18.922 20.7544ZM18.5401 21.1478L17.5771 20.8526L17.4227 21.3564L18.3857 21.6516L19.3487 21.9467L19.5031 21.443L18.5401 21.1478ZM18.3857 21.6516L17.6933 20.92L17.2718 21.3189L17.9642 22.0505L18.6565 22.782L19.078 22.3831L18.3857 21.6516ZM17.9642 22.0505L16.9783 21.8444L16.8691 22.3664L17.855 22.5725L18.841 22.7786L18.9501 22.2566L17.9642 22.0505ZM17.855 22.5725L16.9366 22.159L16.7192 22.642L17.6376 23.0555L18.556 23.469L18.7735 22.986L17.855 22.5725ZM17.6376 23.0555L16.6498 23.2523L16.7671 23.841L17.7549 23.6442L18.7427 23.4475L18.6254 22.8587L17.6376 23.0555ZM17.7549 23.6442L16.778 23.3989L16.6506 23.9063L17.6275 24.1517L18.6044 24.397L18.7318 23.8896L17.7549 23.6442ZM17.6275 24.1517L16.6666 23.8496L16.5093 24.3499L17.4702 24.652L18.431 24.9541L18.5883 24.4537L17.6275 24.1517ZM17.4702 24.652L16.6494 24.0682L16.3302 24.5171L17.151 25.1008L17.9718 25.6845L18.291 25.2357L17.4702 24.652ZM17.151 25.1008L16.1571 24.9374L16.0714 25.4584L17.0653 25.6218L18.0592 25.7852L18.1449 25.2642L17.151 25.1008ZM17.0653 25.6218L16.0775 25.4251L15.9753 25.9384L16.9631 26.1352L17.9509 26.3319L18.0531 25.8186L17.0653 25.6218ZM16.9631 26.1352L16.0108 25.807L15.8403 26.302L16.7925 26.6301L17.7448 26.9582L17.9154 26.4633L16.9631 26.1352ZM16.7925 26.6301L15.7901 26.5325L15.7391 27.0556L16.7416 27.1532L17.7441 27.2509L17.795 26.7278L16.7925 26.6301ZM16.7416 27.1532L15.9177 26.5738L15.5882 27.0423L16.412 27.6218L17.2359 28.2013L17.5654 27.7327L16.7416 27.1532ZM16.412 27.6218L15.4502 27.9209L15.6248 28.4822L16.5866 28.1831L17.5484 27.8839L17.3738 27.3227L16.412 27.6218ZM16.5866 28.1831L15.6236 27.8879L15.4691 28.3921L16.4321 28.6873L17.3951 28.9824L17.5496 28.4782L16.5866 28.1831ZM16.4321 28.6873L15.49 28.3308L15.2993 28.8348L16.2413 29.1913L17.1834 29.5478L17.3741 29.0437L16.4321 28.6873ZM16.2413 29.1913L15.2972 28.8405L15.1078 29.3503L16.0519 29.7011L16.9961 30.0519L17.1855 29.5421L16.2413 29.1913ZM16.0519 29.7011L15.0839 29.9793L15.239 30.5192L16.2071 30.241L17.1751 29.9628L17.02 29.4229L16.0519 29.7011ZM16.2071 30.241L15.2329 30.4968L15.3723 31.0278L16.3465 30.772L17.3207 30.5161L17.1813 29.9851L16.2071 30.241ZM16.3465 30.772L15.3735 30.5116L15.2353 31.0281L16.2083 31.2884L17.1813 31.5488L17.3195 31.0323L16.3465 30.772ZM16.2083 31.2884L15.2029 31.3479L15.2338 31.871L16.2393 31.8115L17.2448 31.752L17.2138 31.2289L16.2083 31.2884ZM16.2393 31.8115L15.2632 31.5631L15.1299 32.0868L16.106 32.3352L17.0821 32.5836L17.2154 32.0599L16.2393 31.8115ZM16.106 32.3352L15.1031 32.4287L15.1519 32.952L16.1548 32.8585L17.1577 32.765L17.1089 32.2417L16.106 32.3352ZM16.1548 32.8585L15.1496 32.9225L15.1829 33.4453L16.1881 33.3813L17.1933 33.3173L17.16 32.7945L16.1548 32.8585ZM16.1881 33.3813L15.2363 33.7107L15.4135 34.2227L16.3653 33.8933L17.3171 33.5639L17.1399 33.0519L16.1881 33.3813ZM16.3653 33.8933L15.365 33.7754L15.3027 34.3044L16.303 34.4223L17.3033 34.5402L17.3656 34.0112L16.3653 33.8933ZM16.303 34.4223L15.3072 34.2705L15.2232 34.8213L16.2189 34.9732L17.2146 35.125L17.2987 34.5742L16.303 34.4223ZM16.2189 34.9732L15.2566 35.2706L15.4131 35.777L16.3754 35.4796L17.3377 35.1822L17.1813 34.6758L16.2189 34.9732ZM16.3754 35.4796L15.453 35.8842L15.6659 36.3694L16.5883 35.9649L17.5107 35.5603L17.2978 35.075L16.3754 35.4796ZM16.5883 35.9649L15.6938 36.4279L15.9364 36.8966L16.8309 36.4336L17.7254 35.9705L17.4827 35.5018L16.5883 35.9649ZM16.8309 36.4336L16.0568 37.078L16.3996 37.4898L17.1737 36.8454L17.9478 36.201L17.605 35.7892L16.8309 36.4336ZM17.1737 36.8454L16.2676 37.2852L16.4947 37.753L17.4008 37.3132L18.3069 36.8733L18.0798 36.4055L17.1737 36.8454ZM17.4008 37.3132L16.429 37.5779L16.5732 38.1074L17.545 37.8427L18.5168 37.578L18.3726 37.0484L17.4008 37.3132ZM17.545 37.8427L17.0728 38.7324L17.5905 39.0071L18.0627 38.1174L18.5348 37.2278L18.0172 36.953L17.545 37.8427ZM18.0627 38.1174L17.0564 38.1613L17.0841 38.7974L18.0904 38.7536L19.0966 38.7098L19.0689 38.0736L18.0627 38.1174ZM18.0904 38.7536L17.5718 39.6171L18.0524 39.9056L18.5709 39.0422L19.0895 38.1787L18.6089 37.8901L18.0904 38.7536ZM18.5709 39.0422L17.6102 39.3447L17.7815 39.8888L18.7422 39.5863L19.703 39.2837L19.5316 38.7396L18.5709 39.0422ZM18.7422 39.5863L18.5028 40.5646L19.121 40.7159L19.3604 39.7375L19.5998 38.7592L18.9816 38.6079L18.7422 39.5863ZM19.3604 39.7375L18.6746 40.4752L19.0547 40.8286L19.7405 40.0909L20.4264 39.3533L20.0463 38.9999L19.3604 39.7375ZM19.7405 40.0909L18.973 40.7432L19.31 41.1398L20.0775 40.4875L20.8451 39.8353L20.508 39.4387L19.7405 40.0909ZM20.0775 40.4875L19.4787 41.2974L19.8985 41.6078L20.4973 40.7979L21.0961 39.988L20.6763 39.6776L20.0775 40.4875ZM20.4973 40.7979L19.5267 41.0669L19.6943 41.6716L20.6649 41.4026L21.6355 41.1336L21.4679 40.5288L20.4973 40.7979ZM20.6649 41.4026L20.1238 42.2521L20.5714 42.5372L21.1126 41.6877L21.6537 40.8382L21.206 40.553L20.6649 41.4026ZM21.1126 41.6877L20.9158 42.6755L21.4927 42.7905L21.6895 41.8027L21.8863 40.8148L21.3093 40.6999L21.1126 41.6877ZM21.6895 41.8027L20.9998 42.5367L21.3814 42.8953L22.0711 42.1613L22.7608 41.4272L22.3792 41.0686L21.6895 41.8027ZM22.0711 42.1613L21.5186 43.0034L21.9561 43.2904L22.5086 42.4483L23.0612 41.6062L22.6237 41.3191L22.0711 42.1613ZM22.5086 42.4483L21.5813 42.8415L21.8199 43.4041L22.7472 43.0109L23.6745 42.6177L23.4359 42.0551L22.5086 42.4483ZM22.7472 43.0109L22.5209 43.9924L23.073 44.1197L23.2994 43.1382L23.5257 42.1568L22.9735 42.0294L22.7472 43.0109ZM23.2994 43.1382L22.4995 43.7504L22.8338 44.1871L23.6336 43.575L24.4335 42.9628L24.0992 42.526L23.2994 43.1382ZM23.6336 43.575L23.0351 44.3851L23.4579 44.6974L24.0564 43.8873L24.6549 43.0772L24.2321 42.7648L23.6336 43.575ZM24.0564 43.8873L23.6133 44.7918L24.0877 45.0242L24.5308 44.1197L24.9739 43.2152L24.4995 42.9828L24.0564 43.8873ZM24.5308 44.1197L23.6383 44.5865L23.782 44.8613L24.6746 44.3945L25.5671 43.9277L25.4234 43.6529L24.5308 44.1197ZM24.6746 44.3945L25.5118 44.9545L25.6249 44.7853L24.7877 44.2253L23.9505 43.6653L23.8374 43.8345L24.6746 44.3945Z" fill="white"/>
</svg>
