<svg width="576" height="622" viewBox="0 0 576 622" fill="none" xmlns="http://www.w3.org/2000/svg">
<path d="M366.797 571.651C386.054 567.242 397.994 571.133 406.011 580.914C430.451 610.903 458.568 639.016 483.283 609.422C550.569 528.966 586.13 403.275 573.468 291.932C556.467 141.884 463.077 5.18347 276.676 -1.84108e-05C-33.0647 33.1094 -52.4291 432.828 70.6441 597.339C96.7789 632.364 138.021 617.192 168.891 588.238C187.654 570.59 206.497 564.123 233.58 569.755C238.686 570.782 243.715 567.45 246.546 562.134C263.613 529.738 303.831 538.679 335.477 564.065C344.645 571.485 356.012 574.189 366.797 571.651Z" fill="#FBD3DD"/>
</svg>
