<svg width="253" height="253" viewBox="0 0 253 253" fill="none" xmlns="http://www.w3.org/2000/svg">
<path fill-rule="evenodd" clip-rule="evenodd" d="M119.664 224.251C118.95 219.342 115.646 215.121 108.075 211.405C103.821 209.344 100.465 205.614 98.8588 201.091C93.2648 185.54 81.2621 172.527 68.5753 177.478C66.4826 178.283 64.048 177.944 62.5017 176.323C54.3374 167.672 46.4781 164.659 36.3001 164.903C19.5717 165.28 2.15633 158.98 0.48672 142.069C-7.46497 62.5551 83.0901 -48.1057 196.925 22.6046C260.161 72.4244 263.705 136.195 238.088 184.027C219.094 219.532 180.449 246.69 140.347 252.532C125.609 254.69 121.805 239.265 119.664 224.251ZM216.294 100.325C208.12 62.4843 172.314 38.0785 136.313 45.8547C100.342 53.6244 77.8012 90.6333 85.9749 128.474C94.1485 166.315 129.955 190.721 165.926 182.951C201.927 175.175 224.467 138.166 216.294 100.325Z" fill="white"/>
</svg>
