<svg width="542" height="579" viewBox="0 0 542 579" fill="none" xmlns="http://www.w3.org/2000/svg">
<path d="M484.25 243.86C483.979 224.268 489.224 213.072 498.603 206.584C527.337 186.829 555.174 163.186 535.268 134.605C481.166 56.8082 384.612 3.74814 291.438 0.224126C165.887 -4.58671 38.0252 67.7236 1.53876 250.489C-24.9971 560.179 298.278 636.646 454 539.107C487.142 518.407 481.88 475.627 463.562 441.077C452.387 420.071 450.363 400.592 459.651 374.737C461.374 369.858 459.521 364.429 455.667 360.878C432.148 339.424 446.412 301.114 472.632 273.604C480.281 265.644 484.457 254.842 484.25 243.86Z" fill="#FBD3DD"/>
</svg>
