<svg width="15" height="18" viewBox="0 0 15 18" fill="none" xmlns="http://www.w3.org/2000/svg">
<path d="M14.6071 1.66513C14.966 1.2344 14.9078 0.594245 14.4771 0.235304C14.0464 -0.123638 13.4062 -0.0654417 13.0473 0.365288L13.8272 1.01521L14.6071 1.66513ZM13.7622 1.0932L14.4973 1.7934L14.5205 1.769L14.5421 1.74312L13.7622 1.0932ZM13.4675 1.40262L14.0267 2.24991L14.123 2.18636L14.2026 2.10282L13.4675 1.40262ZM13.0073 1.70634L12.4481 0.859046L12.0301 1.13495L11.9946 1.63456L13.0073 1.70634ZM12.9613 2.3552L13.3453 3.295L13.9294 3.05636L13.974 2.42697L12.9613 2.3552ZM12.408 2.58127L12.024 1.64146L11.6604 1.79002L11.4915 2.14461L12.408 2.58127ZM12.1736 3.07315L12.6663 3.96082L12.9504 3.80314L13.0901 3.50981L12.1736 3.07315ZM11.6787 3.34786L11.186 2.46019L10.7702 2.69096L10.6813 3.15816L11.6787 3.34786ZM11.5658 3.94102L12.1726 4.75491L12.4893 4.51879L12.5632 4.13072L11.5658 3.94102ZM11.1306 4.26551L10.5238 3.45161L10.4636 3.49652L10.4106 3.54981L11.1306 4.26551ZM10.757 4.64136L10.037 3.92566L9.88699 4.07657L9.8102 4.27501L10.757 4.64136ZM10.5559 5.16099L11.091 6.02376L11.38 5.84452L11.5027 5.52734L10.5559 5.16099ZM10.0832 5.45419L9.54811 4.59143L9.46917 4.64038L9.40043 4.70285L10.0832 5.45419ZM9.68869 5.81265L9.00595 5.06131L8.97624 5.08831L8.94875 5.11758L9.68869 5.81265ZM9.32662 6.1981L8.58667 5.50303L8.47535 5.62154L8.4066 5.76888L9.32662 6.1981ZM9.09577 6.69291L8.17576 6.26369L8.14642 6.32657L8.12592 6.39286L9.09577 6.69291ZM8.92675 7.23924L9.15951 8.2274L9.72491 8.09422L9.8966 7.5393L8.92675 7.23924ZM8.28385 7.39068L8.05108 6.40251L7.35235 6.5671L7.27461 7.28073L8.28385 7.39068ZM8.21522 8.02067L8.97023 8.69934L9.18901 8.45595L9.22446 8.13061L8.21522 8.02067ZM7.86206 8.41355L8.41428 9.26544L8.52715 9.19227L8.61708 9.09223L7.86206 8.41355ZM7.39824 8.71421L6.84602 7.86233L6.69808 7.95823L6.59113 8.0984L7.39824 8.71421ZM7.07772 9.1343L6.27061 8.51849L6.21846 8.58684L6.17854 8.663L7.07772 9.1343ZM6.82703 9.61258L7.61408 10.2538L7.67871 10.1745L7.72621 10.0839L6.82703 9.61258ZM6.49356 10.0219L7.23551 10.7148L7.25894 10.6897L7.28061 10.6631L6.49356 10.0219ZM6.13266 10.4083L6.62616 11.2955L6.76565 11.2179L6.8746 11.1012L6.13266 10.4083ZM5.63813 10.6834L5.14463 9.79619L4.922 9.92003L4.78421 10.1343L5.63813 10.6834ZM5.35044 11.1308L6.09289 11.8232L6.15506 11.7565L6.20435 11.6799L5.35044 11.1308ZM4.98983 11.5175L5.68606 12.2563L5.70993 12.2339L5.73229 12.2099L4.98983 11.5175ZM4.60283 11.8822L3.9066 11.1433L3.74404 11.2965L3.66079 11.5037L4.60283 11.8822ZM4.39601 12.397L5.22162 12.9878L5.29259 12.8886L5.33805 12.7754L4.39601 12.397ZM4.08797 12.8275L3.26236 12.2367L3.23356 12.277L3.20881 12.3198L4.08797 12.8275ZM3.82008 13.2914L4.18822 14.2375L4.5208 14.1081L4.69925 13.7991L3.82008 13.2914ZM3.25794 13.5102L2.88981 12.5641L2.69214 12.641L2.5418 12.7906L3.25794 13.5102ZM2.88214 13.8842L2.166 13.1646L1.99398 13.3358L1.91799 13.5663L2.88214 13.8842ZM2.70439 14.4232L3.31617 15.2334L3.56924 15.0423L3.66854 14.7411L2.70439 14.4232ZM2.27178 14.7499L1.66 13.9397L1.58925 13.9932L1.52883 14.0581L2.27178 14.7499ZM1.91147 15.1368L1.16852 14.445L1.12235 14.4946L1.08317 14.5498L1.91147 15.1368ZM1.6053 15.5689L0.776997 14.9819L0.75641 15.0109L0.737909 15.0413L1.6053 15.5689ZM1.32794 16.0249L0.460549 15.4974L0.454272 15.5077L0.448242 15.5182L1.32794 16.0249ZM1.08457 16.4474L0.434654 17.2273L1.36184 18L1.96427 16.9541L1.08457 16.4474ZM1.66513 15.6097C1.2344 15.2508 0.594245 15.3089 0.235304 15.7397C-0.123638 16.1704 -0.0654417 16.8106 0.365288 17.1695L1.01521 16.3896L1.66513 15.6097ZM13.8272 1.01521L13.0473 0.365288L12.9823 0.443278L13.7622 1.0932L14.5421 1.74312L14.6071 1.66513L13.8272 1.01521ZM13.7622 1.0932L13.0271 0.392999L12.7324 0.702421L13.4675 1.40262L14.2026 2.10282L14.4973 1.7934L13.7622 1.0932ZM13.4675 1.40262L12.9082 0.555329L12.4481 0.859046L13.0073 1.70634L13.5665 2.55363L14.0267 2.24991L13.4675 1.40262ZM13.0073 1.70634L11.9946 1.63456L11.9487 2.28342L12.9613 2.3552L13.974 2.42697L14.02 1.77811L13.0073 1.70634ZM12.9613 2.3552L12.5774 1.4154L12.024 1.64146L12.408 2.58127L12.7919 3.52106L13.3453 3.295L12.9613 2.3552ZM12.408 2.58127L11.4915 2.14461L11.2571 2.63649L12.1736 3.07315L13.0901 3.50981L13.3245 3.01792L12.408 2.58127ZM12.1736 3.07315L11.681 2.18549L11.186 2.46019L11.6787 3.34786L12.1713 4.23552L12.6663 3.96082L12.1736 3.07315ZM11.6787 3.34786L10.6813 3.15816L10.5685 3.75132L11.5658 3.94102L12.5632 4.13072L12.676 3.53756L11.6787 3.34786ZM11.5658 3.94102L10.959 3.12712L10.5238 3.45161L11.1306 4.26551L11.7374 5.07941L12.1726 4.75491L11.5658 3.94102ZM11.1306 4.26551L10.4106 3.54981L10.037 3.92566L10.757 4.64136L11.477 5.35706L11.8506 4.98121L11.1306 4.26551ZM10.757 4.64136L9.8102 4.27501L9.60914 4.79464L10.5559 5.16099L11.5027 5.52734L11.7038 5.00771L10.757 4.64136ZM10.5559 5.16099L10.0209 4.29823L9.54811 4.59143L10.0832 5.45419L10.6182 6.31696L11.091 6.02376L10.5559 5.16099ZM10.0832 5.45419L9.40043 4.70285L9.00595 5.06131L9.68869 5.81265L10.3714 6.56399L10.7659 6.20554L10.0832 5.45419ZM9.68869 5.81265L8.94875 5.11758L8.58667 5.50303L9.32662 6.1981L10.0666 6.89317L10.4286 6.50772L9.68869 5.81265ZM9.32662 6.1981L8.4066 5.76888L8.17576 6.26369L9.09577 6.69291L10.0158 7.12213L10.2466 6.62732L9.32662 6.1981ZM9.09577 6.69291L8.12592 6.39286L7.95689 6.93918L8.92675 7.23924L9.8966 7.5393L10.0656 6.99297L9.09577 6.69291ZM8.92675 7.23924L8.69398 6.25108L8.05108 6.40251L8.28385 7.39068L8.51662 8.37884L9.15951 8.2274L8.92675 7.23924ZM8.28385 7.39068L7.27461 7.28073L7.20598 7.91072L8.21522 8.02067L9.22446 8.13061L9.29309 7.50062L8.28385 7.39068ZM8.21522 8.02067L7.4602 7.34199L7.10704 7.73488L7.86206 8.41355L8.61708 9.09223L8.97023 8.69934L8.21522 8.02067ZM7.86206 8.41355L7.30985 7.56167L6.84602 7.86233L7.39824 8.71421L7.95045 9.5661L8.41428 9.26544L7.86206 8.41355ZM7.39824 8.71421L6.59113 8.0984L6.27061 8.51849L7.07772 9.1343L7.88483 9.75011L8.20535 9.33003L7.39824 8.71421ZM7.07772 9.1343L6.17854 8.663L5.92785 9.14128L6.82703 9.61258L7.72621 10.0839L7.9769 9.6056L7.07772 9.1343ZM6.82703 9.61258L6.03998 8.97133L5.70651 9.38062L6.49356 10.0219L7.28061 10.6631L7.61408 10.2538L6.82703 9.61258ZM6.49356 10.0219L5.75162 9.32893L5.39071 9.71536L6.13266 10.4083L6.8746 11.1012L7.23551 10.7148L6.49356 10.0219ZM6.13266 10.4083L5.63916 9.52111L5.14463 9.79619L5.63813 10.6834L6.13163 11.5706L6.62616 11.2955L6.13266 10.4083ZM5.63813 10.6834L4.78421 10.1343L4.49652 10.5817L5.35044 11.1308L6.20435 11.6799L6.49205 11.2324L5.63813 10.6834ZM5.35044 11.1308L4.60798 10.4384L4.24737 10.8251L4.98983 11.5175L5.73229 12.2099L6.09289 11.8232L5.35044 11.1308ZM4.98983 11.5175L4.2936 10.7786L3.9066 11.1433L4.60283 11.8822L5.29906 12.621L5.68606 12.2563L4.98983 11.5175ZM4.60283 11.8822L3.66079 11.5037L3.45397 12.0186L4.39601 12.397L5.33805 12.7754L5.54487 12.2606L4.60283 11.8822ZM4.39601 12.397L3.5704 11.8062L3.26236 12.2367L4.08797 12.8275L4.91359 13.4183L5.22162 12.9878L4.39601 12.397ZM4.08797 12.8275L3.20881 12.3198L2.94092 12.7838L3.82008 13.2914L4.69925 13.7991L4.96714 13.3351L4.08797 12.8275ZM3.82008 13.2914L3.45195 12.3453L2.88981 12.5641L3.25794 13.5102L3.62608 14.4563L4.18822 14.2375L3.82008 13.2914ZM3.25794 13.5102L2.5418 12.7906L2.166 13.1646L2.88214 13.8842L3.59828 14.6038L3.97408 14.2297L3.25794 13.5102ZM2.88214 13.8842L1.91799 13.5663L1.74024 14.1053L2.70439 14.4232L3.66854 14.7411L3.84629 14.2021L2.88214 13.8842ZM2.70439 14.4232L2.09261 13.6131L1.66 13.9397L2.27178 14.7499L2.88356 15.5601L3.31617 15.2334L2.70439 14.4232ZM2.27178 14.7499L1.52883 14.0581L1.16852 14.445L1.91147 15.1368L2.65443 15.8287L3.01474 15.4418L2.27178 14.7499ZM1.91147 15.1368L1.08317 14.5498L0.776997 14.9819L1.6053 15.5689L2.4336 16.1559L2.73977 15.7238L1.91147 15.1368ZM1.6053 15.5689L0.737909 15.0413L0.460549 15.4974L1.32794 16.0249L2.19533 16.5525L2.47269 16.0964L1.6053 15.5689ZM1.32794 16.0249L0.448242 15.5182L0.204879 15.9407L1.08457 16.4474L1.96427 16.9541L2.20763 16.5317L1.32794 16.0249ZM1.08457 16.4474L1.7345 15.6675L1.66513 15.6097L1.01521 16.3896L0.365288 17.1695L0.434654 17.2273L1.08457 16.4474Z" fill="white"/>
</svg>
