<svg width="22" height="17" viewBox="0 0 22 17" fill="none" xmlns="http://www.w3.org/2000/svg">
<path d="M1.59063 0.182243C1.13253 -0.137554 0.501917 -0.0254364 0.18212 0.432665C-0.137677 0.890766 -0.0255598 1.52138 0.432541 1.84117L1.01159 1.01171L1.59063 0.182243ZM1.09453 1.06961L1.75235 0.301118L1.71446 0.268692L1.67358 0.240148L1.09453 1.06961ZM1.42093 1.34901L0.76312 2.1175L0.915872 2.24825L1.10702 2.31065L1.42093 1.34901ZM1.95282 1.52264L2.85448 1.06403L2.6647 0.690901L2.26674 0.560992L1.95282 1.52264ZM2.21552 2.03913L1.31386 2.49773L1.47616 2.81683L1.80305 2.9628L2.21552 2.03913ZM2.70982 2.25986L3.12607 1.33787L3.12229 1.33618L2.70982 2.25986ZM3.1986 2.48053L3.99416 1.85572L3.84094 1.66062L3.61484 1.55855L3.1986 2.48053ZM3.53584 2.90993L2.74028 3.53474L2.75089 3.54825L2.76195 3.5614L3.53584 2.90993ZM3.88343 3.32285L3.10954 3.97431L3.2997 4.20021L3.58153 4.28833L3.88343 3.32285ZM4.41149 3.48797L5.24811 2.91931L5.0499 2.62771L4.71339 2.52248L4.41149 3.48797ZM4.72927 3.9555L3.89265 4.52416L4.16726 4.92816L4.65441 4.96432L4.72927 3.9555ZM5.32999 4.00008L6.25808 3.59765L6.01478 3.03653L5.40485 2.99127L5.32999 4.00008ZM5.58051 4.57782L4.65242 4.98025L4.75699 5.22143L4.96576 5.38118L5.58051 4.57782ZM6.00315 4.90124L5.3884 5.7046L5.61031 5.8744L5.88791 5.90624L6.00315 4.90124ZM6.58009 4.96739L7.41659 4.39856L7.15591 4.0152L6.69533 3.96239L6.58009 4.96739ZM6.90651 5.44741L6.07001 6.01624L6.24469 6.27312L6.53345 6.38769L6.90651 5.44741ZM7.40307 5.64442L7.03001 6.5847L7.04491 6.59061L7.05999 6.59605L7.40307 5.64442ZM7.90637 5.82587L8.48806 4.99826L8.37707 4.92025L8.24945 4.87424L7.90637 5.82587ZM8.34174 6.13187L7.76005 6.95948L8.06132 7.17123L8.42822 7.13975L8.34174 6.13187ZM8.95489 6.07925L9.65963 5.35355L9.32841 5.0319L8.8684 5.07137L8.95489 6.07925ZM9.35101 6.46393L8.64627 7.18964L8.6484 7.19169L9.35101 6.46393ZM9.75349 6.85251L9.05087 7.58027L9.14529 7.67142L9.25983 7.73546L9.75349 6.85251ZM10.2184 7.11243L9.72474 7.99538L10.083 8.19571L10.4796 8.08971L10.2184 7.11243ZM10.8532 6.94276L11.6737 6.35111L11.2657 5.78538L10.5919 5.96548L10.8532 6.94276ZM11.2228 7.45542L10.4023 8.04708L10.5584 8.26349L10.8008 8.37479L11.2228 7.45542ZM11.7075 7.67788L11.2855 8.59724L11.4655 8.67985L11.6633 8.6885L11.7075 7.67788ZM12.256 7.70185L12.4718 6.71354L12.3869 6.69502L12.3002 6.69123L12.256 7.70185ZM12.7723 7.81456L12.5566 8.80292L12.5663 8.80494L12.7723 7.81456ZM13.2878 7.92179L13.0818 8.91217L13.2473 8.94661L13.415 8.92534L13.2878 7.92179ZM13.8429 7.8514L14.5414 7.1197L14.1932 6.7873L13.7156 6.84786L13.8429 7.8514ZM14.2894 8.27768L13.5909 9.00939L13.8176 9.22582L14.127 9.27614L14.2894 8.27768ZM14.8107 8.36246L14.6483 9.36092L14.8202 9.38888L14.9915 9.35774L14.8107 8.36246ZM15.3621 8.26225L15.729 7.31955L15.4625 7.21585L15.1812 7.26697L15.3621 8.26225ZM15.8635 8.45743L15.4966 9.40013L15.6859 9.47378L15.8889 9.4687L15.8635 8.45743ZM16.3971 8.44407L16.4699 7.4351L16.4209 7.43157L16.3718 7.4328L16.3971 8.44407ZM16.9378 8.48305L17.7389 7.86532L17.4623 7.50665L17.0105 7.47408L16.9378 8.48305ZM17.3079 8.96308L16.5069 9.5808L16.8959 10.0853L17.5189 9.95242L17.3079 8.96308ZM17.9736 8.82114L18.8409 8.30059L18.4692 7.68113L17.7626 7.8318L17.9736 8.82114ZM18.2778 9.32801L17.4104 9.84856L17.5968 10.1591L17.938 10.2808L18.2778 9.32801ZM18.8161 9.52001L19.8207 9.40119L19.747 8.77799L19.1559 8.5672L18.8161 9.52001ZM18.8922 10.1628L17.8876 10.2816L17.924 10.5891L18.1262 10.8235L18.8922 10.1628ZM19.2237 10.5472L18.4578 11.2079L18.5003 11.2573L18.5489 11.3008L19.2237 10.5472ZM19.6259 10.9073L20.4225 10.2839L20.3674 10.2134L20.3007 10.1538L19.6259 10.9073ZM19.9578 11.3314L20.9677 11.3887L20.9893 11.0081L20.7544 10.7079L19.9578 11.3314ZM19.9248 11.9132L18.9148 11.8559L18.9013 12.0944L18.9958 12.3137L19.9248 11.9132ZM20.1303 12.39L19.2014 12.7905L19.2175 12.828L19.2367 12.8641L20.1303 12.39ZM20.3796 12.8599L19.4859 13.334L19.5211 13.4002L19.5656 13.4606L20.3796 12.8599ZM20.7158 13.3156L21.688 13.5952L21.8258 13.1161L21.5298 12.715L20.7158 13.3156ZM20.5482 13.8985L19.5761 13.6189L19.4861 13.9319L19.5956 14.2386L20.5482 13.8985ZM20.7259 14.3961L21.7365 14.3522L21.7299 14.1997L21.6786 14.056L20.7259 14.3961ZM20.749 14.9282L19.7384 14.9722L19.7421 15.0574L19.7601 15.1408L20.749 14.9282ZM20.8343 15.3248L19.8453 15.5374L20.0566 16.5203L21.0408 16.3151L20.8343 15.3248ZM21.1948 16.283C21.7417 16.169 22.0926 15.6332 21.9786 15.0863C21.8646 14.5393 21.3288 14.1884 20.7818 14.3024L20.9883 15.2927L21.1948 16.283ZM1.01159 1.01171L0.432541 1.84117L0.515488 1.89908L1.09453 1.06961L1.67358 0.240148L1.59063 0.182243L1.01159 1.01171ZM1.09453 1.06961L0.436717 1.83811L0.76312 2.1175L1.42093 1.34901L2.07875 0.580513L1.75235 0.301118L1.09453 1.06961ZM1.42093 1.34901L1.10702 2.31065L1.6389 2.48428L1.95282 1.52264L2.26674 0.560992L1.73485 0.387363L1.42093 1.34901ZM1.95282 1.52264L1.05116 1.98124L1.31386 2.49773L2.21552 2.03913L3.11718 1.58053L2.85448 1.06403L1.95282 1.52264ZM2.21552 2.03913L1.80305 2.9628L2.29735 3.18353L2.70982 2.25986L3.12229 1.33618L2.62799 1.11545L2.21552 2.03913ZM2.70982 2.25986L2.29357 3.18184L2.78235 3.4025L3.1986 2.48053L3.61484 1.55855L3.12607 1.33788L2.70982 2.25986ZM3.1986 2.48053L2.40303 3.10534L2.74028 3.53474L3.53584 2.90993L4.3314 2.28512L3.99416 1.85572L3.1986 2.48053ZM3.53584 2.90993L2.76195 3.5614L3.10954 3.97431L3.88343 3.32285L4.65732 2.67139L4.30973 2.25847L3.53584 2.90993ZM3.88343 3.32285L3.58153 4.28833L4.10958 4.45345L4.41149 3.48797L4.71339 2.52248L4.18533 2.35736L3.88343 3.32285ZM4.41149 3.48797L3.57486 4.05662L3.89265 4.52416L4.72927 3.9555L5.56589 3.38685L5.24811 2.91931L4.41149 3.48797ZM4.72927 3.9555L4.65441 4.96432L5.25513 5.00889L5.32999 4.00008L5.40485 2.99127L4.80414 2.94669L4.72927 3.9555ZM5.32999 4.00008L4.4019 4.40251L4.65242 4.98025L5.58051 4.57782L6.5086 4.17539L6.25808 3.59765L5.32999 4.00008ZM5.58051 4.57782L4.96576 5.38118L5.3884 5.7046L6.00315 4.90124L6.6179 4.09787L6.19525 3.77446L5.58051 4.57782ZM6.00315 4.90124L5.88791 5.90624L6.46486 5.97239L6.58009 4.96739L6.69533 3.96239L6.11838 3.89624L6.00315 4.90124ZM6.58009 4.96739L5.74359 5.53622L6.07001 6.01624L6.90651 5.44741L7.74301 4.87857L7.41659 4.39856L6.58009 4.96739ZM6.90651 5.44741L6.53345 6.38769L7.03001 6.5847L7.40307 5.64442L7.77614 4.70414L7.27957 4.50712L6.90651 5.44741ZM7.40307 5.64442L7.05999 6.59605L7.56329 6.7775L7.90637 5.82587L8.24945 4.87424L7.74616 4.69279L7.40307 5.64442ZM7.90637 5.82587L7.32468 6.65348L7.76005 6.95948L8.34174 6.13187L8.92343 5.30426L8.48806 4.99826L7.90637 5.82587ZM8.34174 6.13187L8.42822 7.13975L9.04138 7.08713L8.95489 6.07925L8.8684 5.07137L8.25525 5.12399L8.34174 6.13187ZM8.95489 6.07925L8.25015 6.80495L8.64627 7.18964L9.35101 6.46393L10.0558 5.73823L9.65963 5.35355L8.95489 6.07925ZM9.35101 6.46393L8.6484 7.19169L9.05087 7.58027L9.75349 6.85251L10.4561 6.12475L10.0536 5.73617L9.35101 6.46393ZM9.75349 6.85251L9.25983 7.73546L9.72474 7.99538L10.2184 7.11243L10.712 6.22948L10.2471 5.96955L9.75349 6.85251ZM10.2184 7.11243L10.4796 8.08971L11.1144 7.92004L10.8532 6.94276L10.5919 5.96548L9.95717 6.13515L10.2184 7.11243ZM10.8532 6.94276L10.0326 7.53442L10.4023 8.04708L11.2228 7.45542L12.0433 6.86377L11.6737 6.35111L10.8532 6.94276ZM11.2228 7.45542L10.8008 8.37479L11.2855 8.59724L11.7075 7.67788L12.1295 6.75851L11.6448 6.53606L11.2228 7.45542ZM11.7075 7.67788L11.6633 8.6885L12.2119 8.71247L12.256 7.70185L12.3002 6.69123L11.7516 6.66725L11.7075 7.67788ZM12.256 7.70185L12.0403 8.69016L12.5566 8.80287L12.7723 7.81456L12.9881 6.82625L12.4718 6.71354L12.256 7.70185ZM12.7723 7.81456L12.5663 8.80494L13.0818 8.91217L13.2878 7.92179L13.4938 6.93141L12.9784 6.82418L12.7723 7.81456ZM13.2878 7.92179L13.415 8.92534L13.9701 8.85495L13.8429 7.8514L13.7156 6.84786L13.1605 6.91824L13.2878 7.92179ZM13.8429 7.8514L13.1444 8.58311L13.5909 9.00939L14.2894 8.27768L14.9879 7.54597L14.5414 7.1197L13.8429 7.8514ZM14.2894 8.27768L14.127 9.27614L14.6483 9.36092L14.8107 8.36246L14.9731 7.36399L14.4518 7.27921L14.2894 8.27768ZM14.8107 8.36246L14.9915 9.35774L15.5429 9.25754L15.3621 8.26225L15.1812 7.26697L14.6298 7.36717L14.8107 8.36246ZM15.3621 8.26225L14.9952 9.20495L15.4966 9.40013L15.8635 8.45743L16.2305 7.51473L15.729 7.31955L15.3621 8.26225ZM15.8635 8.45743L15.8889 9.4687L16.4225 9.45534L16.3971 8.44407L16.3718 7.4328L15.8382 7.44616L15.8635 8.45743ZM16.3971 8.44407L16.3244 9.45304L16.865 9.49201L16.9378 8.48305L17.0105 7.47408L16.4699 7.4351L16.3971 8.44407ZM16.9378 8.48305L16.1367 9.10077L16.5069 9.5808L17.3079 8.96308L18.109 8.34535L17.7389 7.86532L16.9378 8.48305ZM17.3079 8.96308L17.5189 9.95242L18.1845 9.81048L17.9736 8.82114L17.7626 7.8318L17.097 7.97373L17.3079 8.96308ZM17.9736 8.82114L17.1062 9.34169L17.4104 9.84856L18.2778 9.32801L19.1451 8.80746L18.8409 8.30059L17.9736 8.82114ZM18.2778 9.32801L17.938 10.2808L18.4763 10.4728L18.8161 9.52001L19.1559 8.5672L18.6176 8.3752L18.2778 9.32801ZM18.8161 9.52001L17.8116 9.63883L17.8876 10.2816L18.8922 10.1628L19.8967 10.044L19.8207 9.40119L18.8161 9.52001ZM18.8922 10.1628L18.1262 10.8235L18.4578 11.2079L19.2237 10.5472L19.9897 9.88644L19.6581 9.50205L18.8922 10.1628ZM19.2237 10.5472L18.5489 11.3008L18.951 11.6609L19.6259 10.9073L20.3007 10.1538L19.8986 9.79362L19.2237 10.5472ZM19.6259 10.9073L18.8293 11.5308L19.1611 11.9548L19.9578 11.3314L20.7544 10.7079L20.4225 10.2839L19.6259 10.9073ZM19.9578 11.3314L18.9478 11.2741L18.9148 11.8559L19.9248 11.9132L20.9347 11.9705L20.9677 11.3887L19.9578 11.3314ZM19.9248 11.9132L18.9958 12.3137L19.2014 12.7905L20.1303 12.39L21.0593 11.9896L20.8537 11.5128L19.9248 11.9132ZM20.1303 12.39L19.2367 12.8641L19.4859 13.334L20.3796 12.8599L21.2732 12.3859L21.0239 11.916L20.1303 12.39ZM20.3796 12.8599L19.5656 13.4606L19.9019 13.9163L20.7158 13.3156L21.5298 12.715L21.1935 12.2593L20.3796 12.8599ZM20.7158 13.3156L19.7437 13.0361L19.5761 13.6189L20.5482 13.8985L21.5204 14.178L21.688 13.5952L20.7158 13.3156ZM20.5482 13.8985L19.5956 14.2386L19.7732 14.7362L20.7259 14.3961L21.6786 14.056L21.5009 13.5583L20.5482 13.8985ZM20.7259 14.3961L19.7153 14.44L19.7384 14.9722L20.749 14.9282L21.7597 14.8843L21.7365 14.3522L20.7259 14.3961ZM20.749 14.9282L19.7601 15.1408L19.8453 15.5374L20.8343 15.3248L21.8233 15.1122L21.738 14.7156L20.749 14.9282ZM20.8343 15.3248L21.0408 16.3151L21.1948 16.283L20.9883 15.2927L20.7818 14.3024L20.6278 14.3345L20.8343 15.3248Z" fill="white"/>
</svg>
