<svg width="154" height="153" viewBox="0 0 154 153" fill="none" xmlns="http://www.w3.org/2000/svg">
<path fill-rule="evenodd" clip-rule="evenodd" d="M72.3938 135.668C71.9619 132.698 69.963 130.144 65.3829 127.896C62.8092 126.649 60.7793 124.393 59.8073 121.656C56.4231 112.248 49.1616 104.376 41.4863 107.371C40.2203 107.858 38.7474 107.653 37.812 106.672C32.8726 101.439 28.1179 99.616 21.9604 99.7635C11.84 99.9916 1.30403 96.1801 0.293946 85.9492C-4.51668 37.8448 50.2675 -29.1031 119.135 13.6754C157.393 43.8155 159.537 82.3959 144.038 111.333C132.548 132.813 109.168 149.243 84.907 152.777C75.9907 154.083 73.6894 144.751 72.3938 135.668ZM130.853 60.695C125.909 37.8019 104.246 23.0368 82.4663 27.7413C60.7047 32.4419 47.0679 54.8316 52.0128 77.7246C56.9577 100.618 78.62 115.383 100.382 110.682C122.161 105.978 135.798 83.588 130.853 60.695Z" fill="#FBD3DD"/>
</svg>
