<svg width="32" height="16" viewBox="0 0 32 16" fill="none" xmlns="http://www.w3.org/2000/svg">
<path d="M1.48609 0.121248C0.99655 -0.14313 0.385379 0.0394015 0.121002 0.528942C-0.143376 1.01848 0.0391556 1.62965 0.528696 1.89403L1.00739 1.00764L1.48609 0.121248ZM1.09603 1.05551L1.98274 0.577402L1.83978 0.312258L1.57473 0.169117L1.09603 1.05551ZM1.31548 1.46251L0.428773 1.94062L0.679898 2.40636L1.20589 2.46392L1.31548 1.46251ZM1.9082 1.52738L2.50994 0.719443L2.29018 0.555772L2.0178 0.525962L1.9082 1.52738ZM2.32509 1.83786L3.11035 1.20683L3.02987 1.10668L2.92682 1.02993L2.32509 1.83786ZM2.67866 2.27786L1.8934 2.90889L1.96597 2.9992L2.05715 3.07068L2.67866 2.27786ZM3.0984 2.60689L2.47689 3.39972L2.72207 3.59192L3.03295 3.61216L3.0984 2.60689ZM3.67071 2.64415L4.32119 1.87492L4.06758 1.66046L3.73615 1.63888L3.67071 2.64415ZM4.08285 2.99266L3.43237 3.7619L3.71486 4.00078L4.08481 4.00005L4.08285 2.99266ZM4.6674 2.99152L5.54196 2.49154L5.25122 1.98299L4.66543 1.98413L4.6674 2.99152ZM4.98225 3.54227L4.10769 4.04225L4.34341 4.45457L4.81148 4.53508L4.98225 3.54227ZM5.51815 3.63445L5.95289 2.72569L5.82674 2.66534L5.68892 2.64163L5.51815 3.63445ZM5.99008 3.86021L5.55534 4.76897L5.61036 4.79529L5.66815 4.81478L5.99008 3.86021ZM6.49014 4.02885L7.03927 3.18428L6.93261 3.11493L6.81207 3.07428L6.49014 4.02885ZM6.93312 4.31687L7.63042 3.58981L7.56187 3.52407L7.48225 3.4723L6.93312 4.31687ZM7.33166 4.6991L6.63436 5.42616L6.8854 5.66693L7.23152 5.70151L7.33166 4.6991ZM7.88537 4.75442L7.78523 5.75682L7.81874 5.76017L7.8524 5.76127L7.88537 4.75442ZM8.45586 4.7731L9.35653 4.32185L9.088 3.78587L8.48883 3.76625L8.45586 4.7731ZM8.75481 5.36979L7.85413 5.82104L8.05552 6.223L8.4892 6.34153L8.75481 5.36979ZM9.269 5.51033L9.61276 4.5634L9.57419 4.5494L9.53461 4.53859L9.269 5.51033ZM9.76392 5.69L9.42017 6.63693L9.60015 6.70227L9.79156 6.69701L9.76392 5.69ZM10.3476 5.67398L10.7947 4.77121L10.5703 4.6601L10.32 4.66696L10.3476 5.67398ZM10.8167 5.90624L11.4263 5.10426L11.3498 5.04611L11.2637 5.00347L10.8167 5.90624ZM11.2441 6.23117L10.6345 7.03316L10.7881 7.14992L10.974 7.20166L11.2441 6.23117ZM11.7572 6.37399L12.1602 5.45073L12.0954 5.42246L12.0273 5.4035L11.7572 6.37399ZM12.2355 6.58281L12.6794 5.67848L12.6592 5.66856L12.6385 5.65955L12.2355 6.58281ZM12.7056 6.81357L13.5175 6.21721L13.3713 6.0181L13.1495 5.90924L12.7056 6.81357ZM13.061 7.29731L12.2491 7.89368L12.5335 8.28099L13.0136 8.30359L13.061 7.29731ZM13.6247 7.32386L14.3155 6.59057L14.0443 6.3351L13.6721 6.31758L13.6247 7.32386ZM14.0265 7.70233L13.3357 8.43562L13.6742 8.75441L14.1363 8.70371L14.0265 7.70233ZM14.6353 7.63554L15.4355 7.02356L15.0903 6.57219L14.5255 6.63415L14.6353 7.63554ZM14.9949 8.10572L14.1947 8.71771L14.3946 8.97901L14.7101 9.07202L14.9949 8.10572ZM15.5023 8.25526L16.233 7.56176L16.0467 7.36548L15.7871 7.28897L15.5023 8.25526ZM15.8921 8.66594L15.1614 9.35945L15.4536 9.66732L15.878 9.67324L15.8921 8.66594ZM16.4631 8.67391L16.9713 7.80407L16.7423 7.67031L16.4772 7.66661L16.4631 8.67391ZM16.9179 8.93957L17.5818 8.18193L17.5093 8.11838L17.426 8.06974L16.9179 8.93957ZM17.3297 9.30046L16.6657 10.0581L17.0374 10.3838L17.5224 10.2892L17.3297 9.30046ZM17.9609 9.17742L18.7347 8.53236L18.3531 8.07462L17.7682 8.18864L17.9609 9.17742ZM18.3337 9.62455L17.5599 10.2696L17.617 10.3381L17.6852 10.3954L18.3337 9.62455ZM18.7491 9.97403L18.1006 10.7449L18.4075 11.0031L18.8079 10.9797L18.7491 9.97403ZM19.3409 9.93946L19.6502 8.9807L19.4706 8.92278L19.2822 8.93378L19.3409 9.93946ZM19.8435 10.1015L20.4321 9.284L20.3035 9.1914L20.1527 9.14276L19.8435 10.1015ZM20.2762 10.4131L20.9821 9.69442L20.9273 9.64053L20.8649 9.59559L20.2762 10.4131ZM20.6748 10.8046L19.9689 11.5233L20.0533 11.6063L20.1548 11.6674L20.6748 10.8046ZM21.1255 11.0762L20.6055 11.939L20.9168 12.1267L21.2762 12.0723L21.1255 11.0762ZM21.7445 10.9826L22.5482 10.3753L22.1867 9.89679L21.5938 9.98651L21.7445 10.9826ZM22.1035 11.4577L21.2997 12.065L21.4471 12.26L21.6674 12.3658L22.1035 11.4577ZM22.5758 11.6844L22.1397 12.5926L22.2913 12.6653L22.4583 12.685L22.5758 11.6844ZM23.1226 11.7486L23.3148 10.7597L23.2777 10.7525L23.2401 10.7481L23.1226 11.7486ZM23.6509 11.8513L24.4735 11.2697L24.24 10.9395L23.8431 10.8624L23.6509 11.8513ZM24.0017 12.3474L23.1792 12.929L23.469 13.3389L23.9709 13.3543L24.0017 12.3474ZM24.5685 12.3647L24.943 11.4295L24.7775 11.3632L24.5993 11.3578L24.5685 12.3647ZM25.0559 12.5599L25.8004 11.8814L25.6449 11.7107L25.4304 11.6248L25.0559 12.5599ZM25.4394 12.9808L24.6948 13.6593L24.8564 13.8367L25.0806 13.9221L25.4394 12.9808ZM25.9302 13.1678L25.5714 14.1092L25.7387 14.1729L25.9177 14.1751L25.9302 13.1678ZM26.5023 13.1749L27.1431 12.3976L26.8694 12.1719L26.5147 12.1676L26.5023 13.1749ZM26.9209 13.52L26.28 14.2973L26.3869 14.3854L26.5136 14.4414L26.9209 13.52ZM27.4001 13.7319L26.9928 14.6533L27.0091 14.6605L27.0256 14.6671L27.4001 13.7319ZM27.8868 13.9268L27.5123 14.862L27.5442 14.8747L27.5768 14.8853L27.8868 13.9268ZM28.3888 14.0891L28.8994 13.2207L28.804 13.1646L28.6988 13.1306L28.3888 14.0891ZM28.8427 14.356L28.3321 15.2244L28.4786 15.3106L28.6453 15.3439L28.8427 14.356ZM29.3705 14.4615L30.1699 13.8485L29.9394 13.5478L29.5679 13.4736L29.3705 14.4615ZM29.7316 14.9324L28.9322 15.5454L29.1927 15.8852L29.6181 15.9334L29.7316 14.9324ZM30.2487 14.991L31.1658 15.4079L31.7393 14.1462L30.3622 13.9901L30.2487 14.991ZM29.331 14.5755C29.1008 15.082 29.3248 15.6792 29.8313 15.9094C30.3378 16.1397 30.935 15.9157 31.1652 15.4092L30.2481 14.9923L29.331 14.5755ZM1.00739 1.00764L0.528696 1.89403L0.617336 1.9419L1.09603 1.05551L1.57473 0.169117L1.48609 0.121248L1.00739 1.00764ZM1.09603 1.05551L0.209322 1.53362L0.428773 1.94062L1.31548 1.46251L2.20219 0.984402L1.98274 0.577402L1.09603 1.05551ZM1.31548 1.46251L1.20589 2.46392L1.79861 2.52879L1.9082 1.52738L2.0178 0.525962L1.42508 0.461095L1.31548 1.46251ZM1.9082 1.52738L1.30647 2.33531L1.72335 2.6458L2.32509 1.83786L2.92682 1.02993L2.50994 0.719443L1.9082 1.52738ZM2.32509 1.83786L1.53982 2.4689L1.8934 2.90889L2.67866 2.27786L3.46392 1.64682L3.11035 1.20683L2.32509 1.83786ZM2.67866 2.27786L2.05715 3.07068L2.47689 3.39972L3.0984 2.60689L3.7199 1.81407L3.30017 1.48503L2.67866 2.27786ZM3.0984 2.60689L3.03295 3.61216L3.60526 3.64942L3.67071 2.64415L3.73615 1.63888L3.16384 1.60163L3.0984 2.60689ZM3.67071 2.64415L3.02023 3.41338L3.43237 3.7619L4.08285 2.99266L4.73333 2.22343L4.32119 1.87492L3.67071 2.64415ZM4.08285 2.99266L4.08481 4.00005L4.66936 3.99892L4.6674 2.99152L4.66543 1.98413L4.08089 1.98527L4.08285 2.99266ZM4.6674 2.99152L3.79283 3.49151L4.10769 4.04225L4.98225 3.54227L5.85681 3.04228L5.54196 2.49154L4.6674 2.99152ZM4.98225 3.54227L4.81148 4.53508L5.34738 4.62726L5.51815 3.63445L5.68892 2.64163L5.15302 2.54945L4.98225 3.54227ZM5.51815 3.63445L5.08341 4.54321L5.55534 4.76897L5.99008 3.86021L6.42481 2.95145L5.95289 2.72569L5.51815 3.63445ZM5.99008 3.86021L5.66815 4.81478L6.16822 4.98342L6.49014 4.02885L6.81207 3.07428L6.312 2.90564L5.99008 3.86021ZM6.49014 4.02885L5.94101 4.87342L6.38399 5.16144L6.93312 4.31687L7.48225 3.4723L7.03927 3.18428L6.49014 4.02885ZM6.93312 4.31687L6.23582 5.04393L6.63436 5.42616L7.33166 4.6991L8.02896 3.97204L7.63042 3.58981L6.93312 4.31687ZM7.33166 4.6991L7.23152 5.70151L7.78523 5.75682L7.88537 4.75442L7.98552 3.75202L7.43181 3.6967L7.33166 4.6991ZM7.88537 4.75442L7.8524 5.76127L8.42289 5.77996L8.45586 4.7731L8.48883 3.76625L7.91835 3.74757L7.88537 4.75442ZM8.45586 4.7731L7.55519 5.22436L7.85413 5.82104L8.75481 5.36979L9.65548 4.91853L9.35653 4.32185L8.45586 4.7731ZM8.75481 5.36979L8.4892 6.34153L9.00339 6.48208L9.269 5.51033L9.53461 4.53859L9.02042 4.39804L8.75481 5.36979ZM9.269 5.51033L8.92525 6.45726L9.42017 6.63693L9.76392 5.69L10.1077 4.74307L9.61276 4.5634L9.269 5.51033ZM9.76392 5.69L9.79156 6.69701L10.3753 6.68099L10.3476 5.67398L10.32 4.66696L9.73629 4.68298L9.76392 5.69ZM10.3476 5.67398L9.90061 6.57675L10.3697 6.80901L10.8167 5.90624L11.2637 5.00347L10.7947 4.77121L10.3476 5.67398ZM10.8167 5.90624L10.207 6.70822L10.6345 7.03316L11.2441 6.23117L11.8538 5.42919L11.4263 5.10426L10.8167 5.90624ZM11.2441 6.23117L10.974 7.20166L11.487 7.34448L11.7572 6.37399L12.0273 5.4035L11.5143 5.26069L11.2441 6.23117ZM11.7572 6.37399L11.3541 7.29725L11.8325 7.50607L12.2355 6.58281L12.6385 5.65955L12.1602 5.45073L11.7572 6.37399ZM12.2355 6.58281L11.7916 7.48713L12.2618 7.71789L12.7056 6.81357L13.1495 5.90924L12.6794 5.67848L12.2355 6.58281ZM12.7056 6.81357L11.8937 7.40993L12.2491 7.89368L13.061 7.29731L13.8729 6.70095L13.5175 6.21721L12.7056 6.81357ZM13.061 7.29731L13.0136 8.30359L13.5773 8.33014L13.6247 7.32386L13.6721 6.31758L13.1083 6.29104L13.061 7.29731ZM13.6247 7.32386L12.934 8.05715L13.3357 8.43562L14.0265 7.70233L14.7172 6.96904L14.3155 6.59057L13.6247 7.32386ZM14.0265 7.70233L14.1363 8.70371L14.7452 8.63693L14.6353 7.63554L14.5255 6.63415L13.9166 6.70094L14.0265 7.70233ZM14.6353 7.63554L13.8351 8.24752L14.1947 8.71771L14.9949 8.10572L15.7951 7.49374L15.4355 7.02356L14.6353 7.63554ZM14.9949 8.10572L14.7101 9.07202L15.2175 9.22155L15.5023 8.25526L15.7871 7.28897L15.2797 7.13943L14.9949 8.10572ZM15.5023 8.25526L14.7716 8.94877L15.1614 9.35945L15.8921 8.66594L16.6227 7.97244L16.233 7.56176L15.5023 8.25526ZM15.8921 8.66594L15.878 9.67324L16.4491 9.6812L16.4631 8.67391L16.4772 7.66661L15.9061 7.65865L15.8921 8.66594ZM16.4631 8.67391L15.955 9.54374L16.4097 9.80941L16.9179 8.93957L17.426 8.06974L16.9713 7.80407L16.4631 8.67391ZM16.9179 8.93957L16.2539 9.69721L16.6657 10.0581L17.3297 9.30046L17.9936 8.54282L17.5818 8.18193L16.9179 8.93957ZM17.3297 9.30046L17.5224 10.2892L18.1537 10.1662L17.9609 9.17742L17.7682 8.18864L17.137 8.31168L17.3297 9.30046ZM17.9609 9.17742L17.1871 9.82248L17.5599 10.2696L18.3337 9.62455L19.1075 8.97948L18.7347 8.53236L17.9609 9.17742ZM18.3337 9.62455L17.6852 10.3954L18.1006 10.7449L18.7491 9.97403L19.3976 9.20313L18.9822 8.85364L18.3337 9.62455ZM18.7491 9.97403L18.8079 10.9797L19.3997 10.9451L19.3409 9.93946L19.2822 8.93378L18.6904 8.96835L18.7491 9.97403ZM19.3409 9.93946L19.0317 10.8982L19.5342 11.0603L19.8435 10.1015L20.1527 9.14276L19.6502 8.9807L19.3409 9.93946ZM19.8435 10.1015L19.2548 10.9191L19.6876 11.2307L20.2762 10.4131L20.8649 9.59559L20.4321 9.284L19.8435 10.1015ZM20.2762 10.4131L19.5703 11.1318L19.9689 11.5233L20.6748 10.8046L21.3807 10.0859L20.9821 9.69442L20.2762 10.4131ZM20.6748 10.8046L20.1548 11.6674L20.6055 11.939L21.1255 11.0762L21.6455 10.2134L21.1948 9.94176L20.6748 10.8046ZM21.1255 11.0762L21.2762 12.0723L21.8952 11.9786L21.7445 10.9826L21.5938 9.98651L20.9748 10.0802L21.1255 11.0762ZM21.7445 10.9826L20.9407 11.5899L21.2997 12.065L22.1035 11.4577L22.9072 10.8504L22.5482 10.3753L21.7445 10.9826ZM22.1035 11.4577L21.6674 12.3658L22.1397 12.5926L22.5758 11.6844L23.0118 10.7763L22.5395 10.5495L22.1035 11.4577ZM22.5758 11.6844L22.4583 12.685L23.0052 12.7492L23.1226 11.7486L23.2401 10.7481L22.6932 10.6839L22.5758 11.6844ZM23.1226 11.7486L22.9305 12.7375L23.4588 12.8402L23.6509 11.8513L23.8431 10.8624L23.3148 10.7597L23.1226 11.7486ZM23.6509 11.8513L22.8284 12.4329L23.1792 12.929L24.0017 12.3474L24.8242 11.7658L24.4735 11.2697L23.6509 11.8513ZM24.0017 12.3474L23.9709 13.3543L24.5377 13.3716L24.5685 12.3647L24.5993 11.3578L24.0325 11.3404L24.0017 12.3474ZM24.5685 12.3647L24.1939 13.2999L24.6813 13.4951L25.0559 12.5599L25.4304 11.6248L24.943 11.4295L24.5685 12.3647ZM25.0559 12.5599L24.3113 13.2385L24.6948 13.6593L25.4394 12.9808L26.184 12.3022L25.8004 11.8814L25.0559 12.5599ZM25.4394 12.9808L25.0806 13.9221L25.5714 14.1092L25.9302 13.1678L26.2889 12.2264L25.7981 12.0394L25.4394 12.9808ZM25.9302 13.1678L25.9177 14.1751L26.4898 14.1822L26.5023 13.1749L26.5147 12.1676L25.9426 12.1605L25.9302 13.1678ZM26.5023 13.1749L25.8614 13.9521L26.28 14.2973L26.9209 13.52L27.5617 12.7428L27.1431 12.3976L26.5023 13.1749ZM26.9209 13.52L26.5136 14.4414L26.9928 14.6533L27.4001 13.7319L27.8074 12.8105L27.3281 12.5986L26.9209 13.52ZM27.4001 13.7319L27.0256 14.6671L27.5123 14.862L27.8868 13.9268L28.2614 12.9916L27.7746 12.7967L27.4001 13.7319ZM27.8868 13.9268L27.5768 14.8853L28.0787 15.0476L28.3888 14.0891L28.6988 13.1306L28.1969 12.9683L27.8868 13.9268ZM28.3888 14.0891L27.8782 14.9575L28.3321 15.2244L28.8427 14.356L29.3533 13.4876L28.8994 13.2207L28.3888 14.0891ZM28.8427 14.356L28.6453 15.3439L29.1731 15.4493L29.3705 14.4615L29.5679 13.4736L29.0401 13.3681L28.8427 14.356ZM29.3705 14.4615L28.571 15.0744L28.9322 15.5454L29.7316 14.9324L30.531 14.3195L30.1699 13.8485L29.3705 14.4615ZM29.7316 14.9324L29.6181 15.9334L30.1353 15.992L30.2487 14.991L30.3622 13.9901L29.8451 13.9314L29.7316 14.9324ZM30.2487 14.991L29.3316 14.5742L29.331 14.5755L30.2481 14.9923L31.1652 15.4092L31.1658 15.4079L30.2487 14.991Z" fill="white"/>
</svg>
