<svg width="118" height="59" viewBox="0 0 118 59" fill="none" xmlns="http://www.w3.org/2000/svg">
<path fill-rule="evenodd" clip-rule="evenodd" d="M56.6928 4.17168C56.6483 4.81129 56.956 5.43875 57.8263 6.11074C58.3161 6.49127 58.64 7.04992 58.725 7.66524C59.0124 9.78243 60.1945 11.7539 61.9635 11.4786C62.255 11.43 62.5586 11.5393 62.7124 11.7903C63.522 13.1019 64.445 13.697 65.7647 13.9439C67.9224 14.3528 69.9869 15.6239 69.736 17.8059C68.5498 28.0679 53.8308 39.5768 41.156 27.5376C34.4077 19.5223 35.7234 11.3653 40.3423 6.02169C43.7751 2.0545 49.4992 -0.317732 54.8185 0.0344572C56.7738 0.168046 56.8345 2.21643 56.6928 4.17168ZM40.8241 17.1905C40.8241 22.1981 44.7507 26.2544 49.5964 26.2544C54.438 26.2544 58.3647 22.1981 58.3647 17.1905C58.3647 12.187 54.438 8.12674 49.5964 8.12674C44.7507 8.12674 40.8241 12.187 40.8241 17.1905Z" fill="url(#paint0_linear_866_1266)"/>
<path d="M61.9536 8.58004C61.4435 8.3331 60.8282 8.5436 60.5772 9.05772C60.3221 9.56778 60.5286 10.1871 61.0346 10.4381C61.5447 10.6891 62.16 10.4746 62.411 9.9645C62.666 9.45038 62.4596 8.83102 61.9536 8.58004Z" fill="url(#paint1_linear_866_1266)"/>
<path d="M64.8651 11.3572C64.521 11.1912 64.1081 11.3329 63.9381 11.677C63.7681 12.0252 63.9057 12.4421 64.2458 12.6081C64.5899 12.7781 65.0027 12.6364 65.1768 12.2883C65.3468 11.9442 65.2051 11.5272 64.8651 11.3572Z" fill="url(#paint2_linear_866_1266)"/>
<path d="M57.4452 0.73478C57.2145 0.621431 56.9311 0.718574 56.8177 0.949319C56.7044 1.18411 56.7975 1.46343 57.0282 1.57678C57.259 1.69417 57.5383 1.59703 57.6517 1.36224C57.7691 1.13149 57.676 0.848128 57.4452 0.73478Z" fill="url(#paint3_linear_866_1266)"/>
<path d="M47.8668 42.3419C47.8668 43.8276 46.6523 45.0299 45.1545 45.0299C43.6567 45.0299 42.4463 43.8276 42.4463 42.3419C42.4463 40.8603 43.6567 39.658 45.1545 39.658C46.6523 39.658 47.8668 40.8603 47.8668 42.3419Z" fill="url(#paint4_linear_866_1266)"/>
<path d="M19.5082 42.1435C18.909 40.8076 17.6136 39.921 16.1967 39.5243C16.0551 39.4838 15.9174 39.4474 15.7757 39.415C14.9459 39.2167 14.1038 39.1195 13.2578 39.1195C11.845 39.1195 10.5577 39.3462 9.39988 39.8036C8.25425 40.2611 7.21796 40.9493 6.29903 41.8722C5.32747 42.8357 4.59879 43.9125 4.11302 45.1027C3.63533 46.2847 3.39648 47.5963 3.39648 49.0456C3.39648 50.847 3.77704 52.4663 4.53809 53.9074C5.29914 55.3445 6.40022 56.5387 7.84945 57.486C8.60241 57.988 9.42417 58.3563 10.3148 58.5992C11.2175 58.8462 12.1972 58.9716 13.2578 58.9716C14.1038 58.9716 14.9459 58.8745 15.7757 58.6761C17.4719 58.2713 19.0466 57.0933 19.3786 55.3931C19.415 55.219 19.4353 55.049 19.4312 54.883C19.4312 54.8102 19.4232 54.7373 19.4151 54.6604C19.2329 53.2435 17.3869 53.2233 16.1077 53.8791C15.3912 54.2434 14.622 54.4215 13.8003 54.4215C12.3146 54.4215 11.092 53.9236 10.1286 52.9237C9.17725 51.9238 8.69956 50.6648 8.69956 49.1468C8.69956 47.5194 9.16918 46.2038 10.1043 45.1917C11.0475 44.1757 12.2822 43.6696 13.8003 43.6696C14.622 43.6696 15.3912 43.8518 16.1077 44.2242C17.4638 44.9043 19.4231 45.0905 19.747 43.617C19.7632 43.536 19.7753 43.451 19.7834 43.366C19.8117 42.9774 19.6903 42.5483 19.5082 42.1435Z" fill="url(#paint5_linear_866_1266)"/>
<path fill-rule="evenodd" clip-rule="evenodd" d="M20.9111 56.0408C20.9111 57.3969 22.0203 58.494 23.3886 58.494C24.7569 58.494 25.8661 57.3969 25.8661 56.0408V51.0899L29.6147 57.324C30.0519 58.0487 30.8413 58.494 31.6954 58.494C33.6426 58.494 34.7963 56.3282 33.6911 54.7373L31.0073 50.8672C32.4201 50.5677 33.4969 49.9605 34.2296 49.0456C34.9704 48.1226 35.3428 46.9284 35.3428 45.467C35.3428 44.4995 35.1525 43.617 34.772 42.8155C34.3996 42.0139 33.8652 41.3541 33.169 40.8359C32.5496 40.3825 31.8128 40.0587 30.9546 39.8684C30.1086 39.67 28.6026 39.5688 26.4369 39.5688H24.7083C22.6114 39.5688 20.9111 41.2529 20.9111 43.3336V56.0408ZM26.8457 48.5153H25.8661V43.5401H26.9267C28.0845 43.5401 28.9062 43.7425 29.392 44.1473C29.8859 44.544 30.1328 45.216 30.1328 46.1633C30.1328 46.9729 29.8697 47.568 29.3394 47.9485C28.8172 48.325 27.9873 48.5153 26.8457 48.5153Z" fill="url(#paint6_linear_866_1266)"/>
<path d="M36.4395 42.1839C36.4395 40.7428 37.6215 39.5688 39.0789 39.5688C40.5362 39.5688 41.7142 40.7428 41.7142 42.1839V48.7743C41.7142 50.1264 41.7506 51.102 41.8195 51.6971C41.8923 52.28 42.0097 52.7739 42.1798 53.1706C42.3822 53.6524 42.7344 54.0207 43.2404 54.2798C43.7423 54.5308 44.3576 54.6563 45.0823 54.6563C45.8069 54.6563 46.4141 54.5308 46.908 54.2798C47.414 54.0207 47.7702 53.6524 47.9848 53.1706C48.1508 52.7739 48.2722 52.28 48.341 51.6971C48.4099 51.102 48.4463 50.1264 48.4463 48.7743V42.1759C48.4463 40.7388 49.6243 39.5688 51.0776 39.5688C52.5309 39.5688 53.7089 40.7388 53.7089 42.1759V49.5759C53.7089 51.6526 53.5793 53.1868 53.3243 54.1786C53.0652 55.1583 52.6361 56.0003 52.0248 56.6966C51.361 57.4657 50.4542 58.0406 49.2964 58.4292C48.1386 58.8097 46.7339 59 45.0823 59C43.4185 59 42.0097 58.8097 40.856 58.4292C39.7063 58.0406 38.7955 57.4657 38.1235 56.6966C37.5244 56.0003 37.0912 55.1583 36.8241 54.1786C36.569 53.1868 36.4395 51.6526 36.4395 49.5759V42.1839Z" fill="url(#paint7_linear_866_1266)"/>
<path d="M74.3331 58.494C75.8188 58.494 76.9563 57.1783 76.7256 55.725L74.6165 42.3216C74.3655 40.7388 72.9891 39.5688 71.3739 39.5688C69.9247 39.5688 68.6495 40.5121 68.2325 41.8844L65.9817 49.3047C65.8117 49.8835 65.6781 50.3774 65.581 50.7903C65.4838 51.1951 65.4191 51.5676 65.3826 51.9036C65.3138 51.2801 65.1397 50.5353 64.8685 49.6649C64.8159 49.5111 64.7794 49.3978 64.7632 49.3289L62.5287 41.8844C62.1158 40.5121 60.8406 39.5688 59.3954 39.5688C57.7842 39.5688 56.416 40.7307 56.165 42.3094L54.0397 55.7372C53.8089 57.1864 54.9424 58.494 56.42 58.494C57.6223 58.494 58.6424 57.6155 58.8084 56.4334L59.6585 50.3126C59.7557 49.6164 59.8407 48.916 59.9095 48.2198C59.9824 47.5113 60.0431 46.7988 60.0958 46.0864C60.2132 46.8798 60.456 47.8716 60.8244 49.0699C60.8973 49.3208 60.9499 49.5071 60.9863 49.6285L63.1238 56.818C63.4193 57.8139 64.3382 58.494 65.3826 58.494C66.4311 58.494 67.35 57.8139 67.6455 56.818L69.783 49.6285C69.8194 49.5071 69.8761 49.3208 69.9571 49.0699C70.3173 47.8716 70.5602 46.8758 70.6857 46.0742C70.7383 46.9082 70.795 47.6813 70.8557 48.3857C70.9286 49.0941 71.0015 49.7338 71.0825 50.3126L71.9326 56.4213C72.0985 57.6115 73.1227 58.494 74.3331 58.494Z" fill="url(#paint8_linear_866_1266)"/>
<path fill-rule="evenodd" clip-rule="evenodd" d="M82.046 58.494C79.9532 58.494 78.2529 56.8099 78.2529 54.7332V43.3336C78.2529 41.2529 79.9532 39.5688 82.046 39.5688H83.5641C85.7582 39.5688 87.2843 39.6376 88.1506 39.7793C89.025 39.917 89.778 40.1518 90.4055 40.4878C91.118 40.8764 91.6645 41.3986 92.0329 42.0544C92.4134 42.6981 92.6036 43.447 92.6036 44.3011C92.6036 45.378 92.3203 46.2362 91.7535 46.8758C91.1989 47.5032 90.3083 47.9809 89.0777 48.3088C90.4581 48.41 91.5349 48.8877 92.3122 49.7297C93.0894 50.5677 93.478 51.685 93.478 53.0897C93.478 54.0977 93.2554 54.9883 92.8141 55.7534C92.381 56.5225 91.7616 57.1136 90.9479 57.5386C90.284 57.8827 89.4663 58.1296 88.4947 58.2754C87.5232 58.4211 85.9323 58.494 83.726 58.494H82.046ZM83.1552 47.1308H84.2159C85.5234 47.1308 86.4181 46.9932 86.9038 46.7179C87.3896 46.4345 87.6325 45.9487 87.6325 45.2565C87.6325 44.544 87.4058 44.042 86.9443 43.7587C86.495 43.4672 85.6124 43.3174 84.2968 43.3174H83.1552V47.1308ZM83.1552 54.628H85.0093C86.2642 54.628 87.1548 54.4782 87.673 54.1786C88.1952 53.8669 88.4543 53.3528 88.4543 52.6403C88.4543 51.8469 88.2154 51.2964 87.7418 50.9846C87.2641 50.6648 86.3816 50.5069 85.0903 50.5069H83.1552V54.628Z" fill="url(#paint9_linear_866_1266)"/>
<path d="M98.2454 54.2191C97.0471 53.4824 95.3793 53.5755 94.6385 54.7697C94.1122 55.6117 94.2458 56.729 95.0635 57.2998C95.6708 57.7289 96.2942 58.0689 96.9297 58.328C98.043 58.7733 99.2777 59 100.626 59C102.881 59 104.682 58.3928 106.034 57.1743C107.386 55.9517 108.062 54.3365 108.062 52.3286C108.062 51.5352 107.941 50.8146 107.702 50.171C107.467 49.5152 107.115 48.9565 106.657 48.491C105.977 47.8109 104.561 47.1834 102.403 46.6167L102.164 46.5519C101.168 46.2928 100.492 46.0216 100.136 45.7382C99.7917 45.4508 99.6218 45.0743 99.6218 44.6007C99.6218 44.1352 99.8201 43.7546 100.217 43.4632C100.614 43.1596 101.132 43.0098 101.767 43.0098C102.387 43.0098 103.006 43.1393 103.637 43.3984C104.65 43.7951 105.933 43.532 106.374 42.5442L106.508 42.2487C106.876 41.4189 106.601 40.423 105.767 40.0425C105.33 39.8441 104.88 39.6781 104.419 39.5446C103.463 39.2612 102.451 39.1195 101.383 39.1195C99.4031 39.1195 97.7919 39.6903 96.5451 40.8359C95.3104 41.9735 94.6911 43.447 94.6911 45.2565C94.6911 46.6531 95.0838 47.7542 95.8691 48.5558C96.6544 49.3573 97.9984 50.005 99.897 50.5069C101.286 50.8672 102.172 51.2194 102.561 51.5676C102.961 51.9036 103.16 52.3853 103.16 53.0128C103.16 53.5835 102.929 54.0531 102.468 54.4215C102.018 54.794 101.439 54.9802 100.735 54.9802C99.9739 54.9802 99.2088 54.7616 98.4397 54.3325C98.4032 54.3122 98.3668 54.292 98.3304 54.2677C98.302 54.2515 98.2737 54.2353 98.2454 54.2191Z" fill="url(#paint10_linear_866_1266)"/>
<path d="M22.935 6.42667C22.4614 4.60905 20.8178 3.33792 18.9314 3.32982C17.0409 3.32172 15.3852 4.5807 14.8954 6.39428L12.005 17.1462C11.7217 18.2635 11.5031 19.1257 11.3573 19.733C11.2197 20.3402 11.0942 20.9191 10.9687 21.4696C10.8432 20.7207 10.6975 19.988 10.5436 19.2755C10.402 18.563 10.2522 17.8465 10.0943 17.134L7.49942 6.17568C7.09866 4.47546 5.57656 3.27316 3.81967 3.26506C1.30171 3.25292 -0.532086 5.63728 0.139908 8.04998L5.89637 28.6915C6.48335 30.7844 8.39406 32.2377 10.5801 32.2458C12.762 32.2579 14.6808 30.8289 15.2881 28.7441L17.8586 19.9191C18.0206 19.3929 18.2554 18.4901 18.5671 17.2109C18.6885 16.713 18.7857 16.3244 18.8505 16.0491C18.9314 16.3649 19.0326 16.8061 19.1622 17.3729C19.4617 18.6399 19.6763 19.4941 19.8099 19.9273L22.3481 28.7968C22.9432 30.8735 24.8498 32.3106 27.0196 32.3227C29.2056 32.3308 31.1285 30.8978 31.7317 28.8089L37.6865 8.23213C38.3828 5.81943 36.5692 3.41078 34.0432 3.39863C32.2904 3.39054 30.7601 4.5726 30.331 6.26068L27.5783 17.134C27.4447 17.6077 27.303 18.1825 27.1532 18.8545C27.0196 19.5103 26.8496 20.3564 26.6432 21.3806C26.4893 20.5102 26.3396 19.741 26.1979 19.065C26.0562 18.393 25.8983 17.7453 25.7283 17.1259L22.935 6.42667Z" fill="url(#paint11_linear_866_1266)"/>
<path d="M87.3565 3.63758C89.0405 3.64163 90.5059 4.77511 90.9269 6.39437L93.8092 17.4296C93.9792 18.049 94.1331 18.6967 94.2788 19.3687C94.4205 20.0407 94.5703 20.8139 94.7241 21.6843C94.9265 20.656 95.0965 19.814 95.2342 19.1542C95.3799 18.4862 95.5257 17.9114 95.6592 17.4378L98.4322 6.48342C98.8492 4.83987 100.339 3.69425 102.039 3.70234H102.262C104.715 3.71449 106.484 6.05434 105.804 8.40227L99.8127 29.1126C99.2095 31.1974 97.2866 32.6345 95.1006 32.6224C92.9267 32.6143 91.0241 31.1772 90.429 29.1005L87.8868 20.231C87.7572 19.7938 87.5427 18.9437 87.2431 17.6766C87.1136 17.1098 87.0083 16.6686 86.9314 16.3488C86.8626 16.6281 86.7695 17.0167 86.648 17.5146C86.3363 18.7939 86.1015 19.6966 85.9396 20.2229L83.369 29.0479C82.7618 31.1286 80.839 32.5616 78.661 32.5495C76.475 32.5414 74.5602 31.0881 73.9773 28.9952L68.1844 8.23223C67.5286 5.88025 69.3179 3.55662 71.7711 3.56472L71.9735 3.56877C73.6859 3.57282 75.1715 4.75084 75.5642 6.40653L78.1752 17.4378C78.3291 18.1502 78.4789 18.8627 78.6206 19.5752C78.7784 20.2876 78.9201 21.0204 79.0496 21.7733C79.1711 21.2187 79.3006 20.6398 79.4342 20.0367C79.584 19.4294 79.7986 18.5672 80.086 17.4458L83.0695 6.36198C83.5026 4.74677 84.9802 3.62543 86.6602 3.63353L87.3565 3.63758Z" fill="url(#paint12_linear_866_1266)"/>
<path d="M109.16 8.80277L105.254 25.801C104.978 26.9871 105.913 28.0679 107.091 28.3756C108.237 28.6751 109.52 28.2865 109.982 27.1976L116.767 11.2155C117.88 8.5882 117.179 4.99344 114.39 4.38622C111.779 3.81543 109.759 6.19171 109.16 8.80277Z" fill="url(#paint13_linear_866_1266)"/>
<path d="M108.642 33.5171C109.31 31.6306 108.327 29.562 106.44 28.8941C104.558 28.2261 102.485 29.2098 101.817 31.0963C101.149 32.9787 102.137 35.0513 104.019 35.7193C105.906 36.3872 107.974 35.3994 108.642 33.5171Z" fill="url(#paint14_linear_866_1266)"/>
<defs>
<linearGradient id="paint0_linear_866_1266" x1="53.6885" y1="0.261846" x2="53.6885" y2="26.6714" gradientUnits="userSpaceOnUse">
<stop stop-color="#7B317C"/>
<stop offset="1" stop-color="#FF6DC5"/>
</linearGradient>
<linearGradient id="paint1_linear_866_1266" x1="61.5291" y1="8.49336" x2="61.5291" y2="10.163" gradientUnits="userSpaceOnUse">
<stop stop-color="#7B317C"/>
<stop offset="1" stop-color="#FF6DC5"/>
</linearGradient>
<linearGradient id="paint2_linear_866_1266" x1="64.5807" y1="11.299" x2="64.5807" y2="12.4238" gradientUnits="userSpaceOnUse">
<stop stop-color="#7B317C"/>
<stop offset="1" stop-color="#FF6DC5"/>
</linearGradient>
<linearGradient id="paint3_linear_866_1266" x1="57.2519" y1="0.694903" x2="57.2519" y2="1.45384" gradientUnits="userSpaceOnUse">
<stop stop-color="#7B317C"/>
<stop offset="1" stop-color="#FF6DC5"/>
</linearGradient>
<linearGradient id="paint4_linear_866_1266" x1="45.2491" y1="39.701" x2="45.2491" y2="44.0415" gradientUnits="userSpaceOnUse">
<stop stop-color="#7B317C"/>
<stop offset="1" stop-color="#FF6DC5"/>
</linearGradient>
<linearGradient id="paint5_linear_866_1266" x1="11.8718" y1="39.2785" x2="11.8718" y2="55.319" gradientUnits="userSpaceOnUse">
<stop stop-color="#7B317C"/>
<stop offset="1" stop-color="#FF6DC5"/>
</linearGradient>
<linearGradient id="paint6_linear_866_1266" x1="28.3733" y1="39.7205" x2="28.3733" y2="55.0119" gradientUnits="userSpaceOnUse">
<stop stop-color="#7B317C"/>
<stop offset="1" stop-color="#FF6DC5"/>
</linearGradient>
<linearGradient id="paint7_linear_866_1266" x1="45.369" y1="39.7245" x2="45.369" y2="55.4248" gradientUnits="userSpaceOnUse">
<stop stop-color="#7B317C"/>
<stop offset="1" stop-color="#FF6DC5"/>
</linearGradient>
<linearGradient id="paint8_linear_866_1266" x1="65.7708" y1="39.7205" x2="65.7708" y2="55.0119" gradientUnits="userSpaceOnUse">
<stop stop-color="#7B317C"/>
<stop offset="1" stop-color="#FF6DC5"/>
</linearGradient>
<linearGradient id="paint9_linear_866_1266" x1="86.1254" y1="39.7205" x2="86.1254" y2="55.0119" gradientUnits="userSpaceOnUse">
<stop stop-color="#7B317C"/>
<stop offset="1" stop-color="#FF6DC5"/>
</linearGradient>
<linearGradient id="paint10_linear_866_1266" x1="101.428" y1="39.2788" x2="101.428" y2="55.3421" gradientUnits="userSpaceOnUse">
<stop stop-color="#7B317C"/>
<stop offset="1" stop-color="#FF6DC5"/>
</linearGradient>
<linearGradient id="paint11_linear_866_1266" x1="19.5642" y1="3.4978" x2="19.5642" y2="26.9763" gradientUnits="userSpaceOnUse">
<stop stop-color="#7B317C"/>
<stop offset="1" stop-color="#FF6DC5"/>
</linearGradient>
<linearGradient id="paint12_linear_866_1266" x1="87.6463" y1="3.79748" x2="87.6463" y2="27.276" gradientUnits="userSpaceOnUse">
<stop stop-color="#7B317C"/>
<stop offset="1" stop-color="#FF6DC5"/>
</linearGradient>
<linearGradient id="paint13_linear_866_1266" x1="111.444" y1="4.49431" x2="111.444" y2="24.0257" gradientUnits="userSpaceOnUse">
<stop stop-color="#7B317C"/>
<stop offset="1" stop-color="#FF6DC5"/>
</linearGradient>
<linearGradient id="paint14_linear_866_1266" x1="105.354" y1="28.7428" x2="105.354" y2="34.5954" gradientUnits="userSpaceOnUse">
<stop stop-color="#7B317C"/>
<stop offset="1" stop-color="#FF6DC5"/>
</linearGradient>
</defs>
</svg>
