<svg width="188" height="166" viewBox="0 0 188 166" fill="none" xmlns="http://www.w3.org/2000/svg">
<path fill-rule="evenodd" clip-rule="evenodd" d="M114.05 12.2535C113.799 15.9715 115.535 19.5953 120.447 23.5251C123.211 25.7135 125.062 28.9843 125.519 32.5611C127.141 44.8681 133.812 56.3279 143.796 54.7042C145.441 54.4454 147.155 55.0807 148.023 56.5161C152.593 64.1639 157.825 67.623 165.25 69.0584C177.45 71.4351 189.102 78.824 187.663 91.5074C180.969 151.16 97.8971 218.06 26.3631 148.077C-11.7229 101.461 -4.29764 54.0689 21.7936 23.0074C41.1451 -0.0534545 73.4507 -13.8664 103.472 -11.7956C114.507 -11.0426 114.85 0.887805 114.05 12.2535ZM24.4894 87.9306C24.4894 117.016 46.6511 140.618 73.999 140.618C101.324 140.618 123.486 117.016 123.486 87.9306C123.486 58.8458 101.324 35.2437 73.999 35.2437C46.6511 35.2437 24.4894 58.8458 24.4894 87.9306Z" fill="white"/>
</svg>
