<svg width="94" height="95" viewBox="0 0 94 95" fill="none" xmlns="http://www.w3.org/2000/svg">
<path fill-rule="evenodd" clip-rule="evenodd" d="M57.0906 12.1267C56.9648 13.9857 57.8339 15.7977 60.2928 17.7625C61.6766 18.8567 62.603 20.4922 62.8317 22.2806C63.6437 28.434 66.9832 34.164 71.981 33.3521C72.8045 33.2227 73.6623 33.5404 74.0969 34.2581C76.3843 38.0819 79.0032 39.8115 82.7201 40.5292C88.8272 41.7175 94.66 45.412 93.9395 51.7537C90.5886 81.5798 49.0049 115.03 13.1967 80.0385C-5.86821 56.7306 -2.15129 33.0344 10.9094 17.5037C20.5962 5.97327 36.7677 -0.933208 51.7954 0.102176C57.3193 0.478679 57.4909 6.4439 57.0906 12.1267ZM12.2588 49.9653C12.2588 64.5078 23.3524 76.3088 37.0421 76.3088C50.7204 76.3088 61.814 64.5078 61.814 49.9653C61.814 35.4229 50.7204 23.6219 37.0421 23.6219C23.3524 23.6219 12.2588 35.4229 12.2588 49.9653Z" fill="white"/>
</svg>
