<svg width="113" height="105" viewBox="0 0 113 105" fill="none" xmlns="http://www.w3.org/2000/svg">
<path fill-rule="evenodd" clip-rule="evenodd" d="M34.1132 7.11673C35.6281 8.78329 37.9311 9.49594 41.6921 8.87469C43.7987 8.51537 45.9955 9.02817 47.7444 10.3099C53.7826 14.6971 61.5579 16.4073 65.0153 11.1354C65.5887 10.2704 66.5804 9.74682 67.5679 9.94605C72.8057 11.0334 76.4951 10.0687 80.2178 7.25045C86.3424 2.62738 94.4219 0.34737 99.347 6.30049C122.542 34.2643 117.035 100.4 56.7075 104.126C20.5121 102.208 2.96295 79.0219 0.314611 54.058C-1.65967 35.5332 5.7986 14.9045 19.2236 1.95291C24.1548 -2.81123 29.4953 2.00769 34.1132 7.11673ZM29.723 79.8994C42.3939 92.0318 61.9207 91.6784 73.3285 79.0932C84.7268 66.5185 83.689 46.4746 71.0181 34.3422C58.3472 22.2098 38.8205 22.5631 27.4222 35.1378C16.0144 47.7231 17.0522 67.767 29.723 79.8994Z" fill="white"/>
</svg>
