<svg width="130" height="127" viewBox="0 0 130 127" fill="none" xmlns="http://www.w3.org/2000/svg">
<path fill-rule="evenodd" clip-rule="evenodd" d="M67.6624 113.086C66.9784 110.683 65.0137 108.811 60.8984 107.499C58.5877 106.776 56.6287 105.153 55.5129 103.007C51.6408 95.6352 44.6541 89.9951 38.4836 93.3875C37.4649 93.9409 36.1971 93.9471 35.3007 93.2484C30.5613 89.5123 26.344 88.5734 21.1516 89.4305C12.616 90.8273 3.29543 88.9349 1.34317 80.5991C-7.88793 41.4124 31.2657 -20.4649 94.1065 6.67134C129.7 27.0161 135.653 58.6489 125.65 84.4176C118.236 103.544 100.224 119.916 80.0825 125.734C72.6809 127.878 69.733 120.439 67.6624 113.086ZM109.064 44.1366C102.424 25.8046 82.5174 16.1868 64.6003 22.6758C46.6982 29.1593 37.5665 49.2939 44.2057 67.6259C50.8449 85.9579 70.7519 95.5756 88.654 89.0921C106.571 82.6031 115.703 62.4685 109.064 44.1366Z" fill="#F9CEDC"/>
</svg>
