<svg width="221" height="220" viewBox="0 0 221 220" fill="none" xmlns="http://www.w3.org/2000/svg">
<path fill-rule="evenodd" clip-rule="evenodd" d="M158.876 37.2668C157.394 41.3554 158.26 45.9987 162.734 52.0408C165.258 55.4152 166.371 59.7004 165.761 63.8659C163.718 78.2149 167.836 93.2913 180 94.7872C182.002 95.0434 183.797 96.3258 184.351 98.2251C187.236 108.325 192.232 113.945 200.434 118.024C213.905 124.745 225.133 136.908 219.4 150.663C192.52 215.375 74.2381 262.84 13.1752 160.538C-16.3447 95.573 7.4676 44.8603 47.8308 18.6759C77.7747 -0.770528 119.872 -5.53475 154.226 6.76535C166.857 11.2774 163.442 24.7788 158.876 37.2668ZM30.2189 92.4239C20.9203 125.061 39.2239 158.91 71.1222 167.998C102.994 177.079 136.389 157.959 145.687 125.322C154.986 92.685 136.682 58.8358 104.811 49.7553C72.9123 40.6671 39.5174 59.787 30.2189 92.4239Z" fill="#F9CEDC"/>
</svg>
