<svg width="118" height="115" viewBox="0 0 118 115" fill="none" xmlns="http://www.w3.org/2000/svg">
<path fill-rule="evenodd" clip-rule="evenodd" d="M71.6669 14.6797C71.509 16.9301 72.6 19.1235 75.6867 21.502C77.4239 22.8266 78.5867 24.8063 78.8738 26.9712C79.8932 34.4202 84.0853 41.3564 90.3592 40.3736C91.3928 40.2169 92.4697 40.6015 93.0153 41.4703C95.8866 46.0992 99.1742 48.1929 103.84 49.0617C111.507 50.5002 118.829 54.9724 117.924 62.6492C113.718 98.7545 61.5168 139.247 16.5661 96.8887C-7.36647 68.6739 -2.70056 39.9891 13.6947 21.1887C25.8548 7.2308 46.1551 -1.12967 65.0198 0.123686C71.9541 0.579453 72.1694 7.80051 71.6669 14.6797ZM15.3887 60.4843C15.3887 78.0883 29.3148 92.3738 46.4997 92.3738C63.6702 92.3738 77.5962 78.0883 77.5962 60.4843C77.5962 42.8803 63.6702 28.5949 46.4997 28.5949C29.3148 28.5949 15.3887 42.8803 15.3887 60.4843Z" fill="white"/>
</svg>
